Truculenta-72ptExpandedBlack.ufo
<glyph name="exclam" format="2">
  <advance width="369"/>
  <unicode hex="0021"/>
  <outline>
    <contour>
      <point x="102" y="230" type="curve"/>
      <point x="225" y="232" type="line"/>
      <point x="229" y="353"/>
      <point x="231" y="409"/>
      <point x="236" y="478" type="curve" smooth="yes"/>
      <point x="242" y="563"/>
      <point x="244" y="589"/>
      <point x="255" y="711" type="curve"/>
      <point x="79" y="704" type="line"/>
      <point x="85" y="597"/>
      <point x="88" y="553"/>
      <point x="91" y="485" type="curve" smooth="yes"/>
      <point x="94" y="414"/>
      <point x="98" y="339"/>
    </contour>
    <contour>
      <point x="247" y="0" type="line"/>
      <point x="237" y="171" type="line"/>
      <point x="87" y="169" type="line"/>
      <point x="83" y="0" type="line"/>
    </contour>
  </outline>
</glyph>
<glyph name="quotedbl" format="2">
  <advance width="504"/>
  <unicode hex="0022"/>
  <outline>
    <contour>
      <point x="252" y="540" type="curve"/>
      <point x="366" y="549" type="line"/>
      <point x="366" y="543"/>
      <point x="376" y="627"/>
      <point x="385" y="672" type="curve" smooth="yes"/>
      <point x="395" y="717"/>
      <point x="407" y="767"/>
      <point x="406" y="763" type="curve"/>
      <point x="259" y="769" type="line"/>
      <point x="259" y="772"/>
      <point x="259" y="719"/>
      <point x="256" y="663" type="curve" smooth="yes"/>
      <point x="254" y="600"/>
      <point x="252" y="537"/>
    </contour>
    <contour>
      <point x="78" y="535" type="curve"/>
      <point x="193" y="552" type="line"/>
      <point x="191" y="548"/>
      <point x="195" y="633"/>
      <point x="199" y="678" type="curve" smooth="yes"/>
      <point x="204" y="723"/>
      <point x="212" y="773"/>
      <point x="212" y="771" type="curve"/>
      <point x="65" y="763" type="line"/>
      <point x="65" y="766"/>
      <point x="70" y="714"/>
      <point x="73" y="658" type="curve" smooth="yes"/>
      <point x="75" y="595"/>
      <point x="79" y="531"/>
    </contour>
  </outline>
</glyph>
<glyph name="numbersign" format="2">
  <advance width="926"/>
  <unicode hex="0023"/>
  <outline>
    <contour>
      <point x="144" y="3" type="line"/>
      <point x="299" y="0" type="line"/>
      <point x="381" y="369" type="line"/>
      <point x="462" y="696" type="line"/>
      <point x="309" y="699" type="line"/>
      <point x="244" y="390" type="line"/>
    </contour>
    <contour>
      <point x="63" y="127" type="line"/>
      <point x="156" y="129"/>
      <point x="332" y="132"/>
      <point x="456" y="131" type="curve" smooth="yes"/>
      <point x="585" y="130"/>
      <point x="722" y="131"/>
      <point x="816" y="129" type="curve"/>
      <point x="811" y="260" type="line"/>
      <point x="729" y="258"/>
      <point x="580" y="257"/>
      <point x="459" y="257" type="curve" smooth="yes"/>
      <point x="344" y="257"/>
      <point x="158" y="258"/>
      <point x="65" y="260" type="curve"/>
    </contour>
    <contour>
      <point x="457" y="2" type="line"/>
      <point x="612" y="-2" type="line"/>
      <point x="691" y="358" type="line"/>
      <point x="772" y="682" type="line"/>
      <point x="619" y="690" type="line"/>
      <point x="557" y="390" type="line"/>
    </contour>
    <contour>
      <point x="113" y="414" type="line"/>
      <point x="206" y="415"/>
      <point x="383" y="419"/>
      <point x="507" y="418" type="curve" smooth="yes"/>
      <point x="635" y="417"/>
      <point x="757" y="417"/>
      <point x="862" y="415" type="curve"/>
      <point x="862" y="547" type="line"/>
      <point x="758" y="544"/>
      <point x="630" y="544"/>
      <point x="509" y="544" type="curve" smooth="yes"/>
      <point x="394" y="544"/>
      <point x="197" y="546"/>
      <point x="104" y="547" type="curve"/>
    </contour>
  </outline>
</glyph>
<glyph name="quotesingle" format="2">
  <advance width="310"/>
  <unicode hex="0027"/>
  <outline>
    <contour>
      <point x="78" y="535" type="curve"/>
      <point x="191" y="552" type="line"/>
      <point x="191" y="548"/>
      <point x="195" y="633"/>
      <point x="198" y="678" type="curve" smooth="yes"/>
      <point x="204" y="723"/>
      <point x="212" y="773"/>
      <point x="212" y="771" type="curve"/>
      <point x="65" y="763" type="line"/>
      <point x="64" y="766"/>
      <point x="70" y="714"/>
      <point x="73" y="658" type="curve" smooth="yes"/>
      <point x="75" y="595"/>
      <point x="78" y="531"/>
    </contour>
  </outline>
</glyph>
<glyph name="parenleft" format="2">
  <advance width="474"/>
  <unicode hex="0028"/>
  <outline>
    <contour>
      <point x="357" y="-162" type="curve"/>
      <point x="384" y="-42" type="line"/>
      <point x="278" y="2"/>
      <point x="230" y="100"/>
      <point x="230" y="281" type="curve" smooth="yes"/>
      <point x="230" y="463"/>
      <point x="277" y="564"/>
      <point x="384" y="605" type="curve"/>
      <point x="357" y="725" type="line"/>
      <point x="203" y="699"/>
      <point x="70" y="578"/>
      <point x="70" y="281" type="curve" smooth="yes"/>
      <point x="70" y="-15"/>
      <point x="203" y="-136"/>
    </contour>
  </outline>
</glyph>
<glyph name="parenright" format="2">
  <advance width="474"/>
  <unicode hex="0029"/>
  <outline>
    <contour>
      <point x="109" y="725" type="curve"/>
      <point x="82" y="605" type="line"/>
      <point x="188" y="561"/>
      <point x="236" y="463"/>
      <point x="236" y="282" type="curve" smooth="yes"/>
      <point x="236" y="100"/>
      <point x="189" y="-1"/>
      <point x="82" y="-42" type="curve"/>
      <point x="109" y="-162" type="line"/>
      <point x="263" y="-136"/>
      <point x="396" y="-15"/>
      <point x="396" y="282" type="curve" smooth="yes"/>
      <point x="396" y="578"/>
      <point x="263" y="699"/>
    </contour>
  </outline>
</glyph>
<glyph name="asterisk" format="2">
  <advance width="653"/>
  <unicode hex="002A"/>
  <outline>
    <contour>
      <point x="452" y="441" type="curve"/>
      <point x="546" y="523" type="line"/>
      <point x="438" y="579"/>
      <point x="394" y="589"/>
      <point x="311" y="641" type="curve" smooth="yes"/>
      <point x="257" y="675"/>
      <point x="227" y="706"/>
      <point x="145" y="772" type="curve"/>
      <point x="74" y="675" type="line"/>
      <point x="68" y="678"/>
      <point x="217" y="607"/>
      <point x="276" y="573" type="curve" smooth="yes"/>
      <point x="332" y="542"/>
      <point x="457" y="438"/>
    </contour>
    <contour>
      <point x="132" y="425" type="line"/>
      <point x="127" y="420"/>
      <point x="277" y="540"/>
      <point x="333" y="573" type="curve" smooth="yes"/>
      <point x="393" y="608"/>
      <point x="530" y="671"/>
      <point x="526" y="669" type="curve"/>
      <point x="483" y="777" type="line"/>
      <point x="393" y="708"/>
      <point x="345" y="669"/>
      <point x="275" y="624" type="curve" smooth="yes"/>
      <point x="197" y="573"/>
      <point x="164" y="558"/>
      <point x="91" y="512" type="curve"/>
    </contour>
    <contour>
      <point x="369" y="366" type="line"/>
      <point x="369" y="361"/>
      <point x="347" y="540"/>
      <point x="347" y="615" type="curve" smooth="yes"/>
      <point x="347" y="692"/>
      <point x="366" y="828"/>
      <point x="366" y="824" type="curve"/>
      <point x="248" y="832" type="line"/>
      <point x="246" y="837"/>
      <point x="263" y="688"/>
      <point x="264" y="614" type="curve" smooth="yes"/>
      <point x="265" y="543"/>
      <point x="248" y="372"/>
      <point x="249" y="378" type="curve"/>
    </contour>
  </outline>
</glyph>
<glyph name="plus" format="2">
  <advance width="638"/>
  <unicode hex="002B"/>
  <outline>
    <contour>
      <point x="364" y="79" type="line"/>
      <point x="356" y="162"/>
      <point x="351" y="254"/>
      <point x="351" y="329" type="curve" smooth="yes"/>
      <point x="351" y="406"/>
      <point x="356" y="498"/>
      <point x="362" y="565" type="curve"/>
      <point x="240" y="558" type="line"/>
      <point x="243" y="486"/>
      <point x="248" y="403"/>
      <point x="249" y="328" type="curve" smooth="yes"/>
      <point x="250" y="257"/>
      <point x="245" y="159"/>
      <point x="241" y="71" type="curve"/>
    </contour>
    <contour>
      <point x="58" y="257" type="line"/>
      <point x="106" y="262"/>
      <point x="248" y="267"/>
      <point x="315" y="267" type="curve" smooth="yes"/>
      <point x="383" y="267"/>
      <point x="530" y="258"/>
      <point x="528" y="258" type="curve"/>
      <point x="547" y="376" type="line"/>
      <point x="485" y="372"/>
      <point x="378" y="370"/>
      <point x="314" y="368" type="curve" smooth="yes"/>
      <point x="251" y="366"/>
      <point x="99" y="372"/>
      <point x="65" y="373" type="curve"/>
    </contour>
  </outline>
</glyph>
<glyph name="comma" format="2">
  <advance width="323"/>
  <unicode hex="002C"/>
  <outline>
    <contour>
      <point x="144" y="-178" type="line"/>
      <point x="199" y="-123"/>
      <point x="209" y="-61"/>
      <point x="209" y="18" type="curve" smooth="yes"/>
      <point x="209" y="186" type="line"/>
      <point x="79" y="178" type="line"/>
      <point x="81" y="1" type="line"/>
      <point x="140" y="-2" type="line"/>
      <point x="140" y="-47"/>
      <point x="133" y="-90"/>
      <point x="90" y="-141" type="curve"/>
    </contour>
  </outline>
</glyph>
<glyph name="hyphen" format="2">
  <advance width="469"/>
  <unicode hex="002D"/>
  <outline>
    <contour>
      <point x="60" y="224" type="line"/>
      <point x="60" y="224"/>
      <point x="171" y="226"/>
      <point x="230" y="226" type="curve" smooth="yes"/>
      <point x="286" y="226"/>
      <point x="409" y="224"/>
      <point x="409" y="224" type="curve"/>
      <point x="406" y="356" type="line"/>
      <point x="406" y="356"/>
      <point x="298" y="352"/>
      <point x="236" y="353" type="curve" smooth="yes"/>
      <point x="174" y="354"/>
      <point x="66" y="356"/>
      <point x="66" y="356" type="curve"/>
    </contour>
  </outline>
</glyph>
<glyph name="period" format="2">
  <advance width="327"/>
  <unicode hex="002E"/>
  <outline>
    <contour>
      <point x="213" y="-3" type="line"/>
      <point x="212" y="195" type="line"/>
      <point x="79" y="187" type="line"/>
      <point x="83" y="-3" type="line"/>
    </contour>
  </outline>
</glyph>
<glyph name="slash" format="2">
  <advance width="382"/>
  <unicode hex="002F"/>
  <outline>
    <contour>
      <point x="-33" y="-1" type="curve"/>
      <point x="136" y="0" type="line"/>
      <point x="180" y="119"/>
      <point x="228" y="236"/>
      <point x="283" y="366" type="curve" smooth="yes"/>
      <point x="336" y="492"/>
      <point x="374" y="597"/>
      <point x="415" y="698" type="curve"/>
      <point x="244" y="700" type="line"/>
      <point x="208" y="579"/>
      <point x="175" y="483"/>
      <point x="127" y="367" type="curve" smooth="yes"/>
      <point x="75" y="241"/>
      <point x="29" y="128"/>
    </contour>
  </outline>
</glyph>
<glyph name="zero" format="2">
  <advance width="636"/>
  <unicode hex="0030"/>
  <outline>
    <contour>
      <point x="309" y="-10" type="curve" smooth="yes"/>
      <point x="548" y="-10"/>
      <point x="604" y="177"/>
      <point x="604" y="342" type="curve" smooth="yes"/>
      <point x="604" y="515"/>
      <point x="573" y="707"/>
      <point x="325" y="707" type="curve" smooth="yes"/>
      <point x="83" y="707"/>
      <point x="32" y="502"/>
      <point x="32" y="343" type="curve" smooth="yes"/>
      <point x="32" y="171"/>
      <point x="73" y="-10"/>
    </contour>
    <contour>
      <point x="315" y="128" type="curve" smooth="yes"/>
      <point x="234" y="128"/>
      <point x="207" y="191"/>
      <point x="207" y="338" type="curve" smooth="yes"/>
      <point x="207" y="498"/>
      <point x="241" y="566"/>
      <point x="322" y="566" type="curve" smooth="yes"/>
      <point x="402" y="566"/>
      <point x="431" y="509"/>
      <point x="431" y="353" type="curve" smooth="yes"/>
      <point x="431" y="191"/>
      <point x="402" y="128"/>
    </contour>
  </outline>
</glyph>
<glyph name="one" format="2">
  <advance width="374"/>
  <unicode hex="0031"/>
  <outline>
    <contour>
      <point x="172" y="0" type="curve"/>
      <point x="352" y="0" type="line"/>
      <point x="350" y="91"/>
      <point x="347" y="165"/>
      <point x="347" y="341" type="curve" smooth="yes"/>
      <point x="347" y="517"/>
      <point x="351" y="609"/>
      <point x="353" y="694" type="curve"/>
      <point x="274" y="694" type="line"/>
      <point x="175" y="621" type="line"/>
      <point x="176" y="545"/>
      <point x="177" y="421"/>
      <point x="177" y="342" type="curve" smooth="yes"/>
      <point x="177" y="223"/>
      <point x="177" y="98"/>
    </contour>
    <contour>
      <point x="7" y="506" type="line"/>
      <point x="58" y="505"/>
      <point x="195" y="506"/>
      <point x="292" y="529" type="curve"/>
      <point x="274" y="694" type="line"/>
      <point x="236" y="662"/>
      <point x="98" y="641"/>
      <point x="1" y="636" type="curve"/>
    </contour>
  </outline>
</glyph>
<glyph name="two" format="2">
  <advance width="591"/>
  <unicode hex="0032"/>
  <outline>
    <contour>
      <point x="191" y="76" type="line"/>
      <point x="368" y="149"/>
      <point x="567" y="310"/>
      <point x="567" y="489" type="curve" smooth="yes"/>
      <point x="567" y="656"/>
      <point x="435" y="700"/>
      <point x="307" y="700" type="curve" smooth="yes"/>
      <point x="111" y="700"/>
      <point x="37" y="584"/>
      <point x="37" y="464" type="curve" smooth="yes"/>
      <point x="37" y="437"/>
      <point x="41" y="410"/>
      <point x="48" y="384" type="curve"/>
      <point x="216" y="385" type="line"/>
      <point x="207" y="415"/>
      <point x="203" y="443"/>
      <point x="203" y="468" type="curve" smooth="yes"/>
      <point x="203" y="534"/>
      <point x="245" y="561"/>
      <point x="299" y="561" type="curve" smooth="yes"/>
      <point x="352" y="561"/>
      <point x="393" y="539"/>
      <point x="393" y="484" type="curve" smooth="yes"/>
      <point x="393" y="317"/>
      <point x="178" y="200"/>
      <point x="22" y="116" type="curve"/>
    </contour>
    <contour>
      <point x="20" y="-6" type="line"/>
      <point x="27" y="-5"/>
      <point x="290" y="0"/>
      <point x="295" y="0" type="curve" smooth="yes"/>
      <point x="321" y="0"/>
      <point x="566" y="0"/>
      <point x="575" y="0" type="curve"/>
      <point x="574" y="126" type="line"/>
      <point x="545" y="119"/>
      <point x="358" y="119"/>
      <point x="306" y="117" type="curve" smooth="yes"/>
      <point x="279" y="116"/>
      <point x="120" y="116"/>
      <point x="22" y="116" type="curve"/>
    </contour>
  </outline>
</glyph>
<glyph name="three" format="2">
  <advance width="550"/>
  <unicode hex="0033"/>
  <outline>
    <contour>
      <point x="264" y="-10" type="curve" smooth="yes"/>
      <point x="466" y="-10"/>
      <point x="543" y="81"/>
      <point x="545" y="182" type="curve" smooth="yes"/>
      <point x="546" y="245"/>
      <point x="512" y="302"/>
      <point x="414" y="314" type="curve"/>
      <point x="487" y="341"/>
      <point x="547" y="408"/>
      <point x="547" y="491" type="curve" smooth="yes"/>
      <point x="547" y="597"/>
      <point x="495" y="697"/>
      <point x="272" y="697" type="curve" smooth="yes"/>
      <point x="71" y="697"/>
      <point x="16" y="593"/>
      <point x="16" y="490" type="curve"/>
      <point x="188" y="489" type="line"/>
      <point x="189" y="518"/>
      <point x="203" y="556"/>
      <point x="274" y="556" type="curve" smooth="yes"/>
      <point x="344" y="556"/>
      <point x="372" y="527"/>
      <point x="372" y="477" type="curve" smooth="yes"/>
      <point x="372" y="421"/>
      <point x="337" y="369"/>
      <point x="219" y="369" type="curve" smooth="yes"/>
      <point x="165" y="369"/>
      <point x="120" y="369"/>
      <point x="102" y="370" type="curve"/>
      <point x="102" y="237" type="line"/>
      <point x="123" y="238"/>
      <point x="176" y="238"/>
      <point x="234" y="238" type="curve" smooth="yes"/>
      <point x="329" y="238"/>
      <point x="371" y="230"/>
      <point x="370" y="180" type="curve" smooth="yes"/>
      <point x="369" y="137"/>
      <point x="333" y="123"/>
      <point x="267" y="123" type="curve" smooth="yes"/>
      <point x="199" y="123"/>
      <point x="174" y="140"/>
      <point x="175" y="175" type="curve"/>
      <point x="2" y="175" type="line"/>
      <point x="2" y="75"/>
      <point x="57" y="-10"/>
    </contour>
  </outline>
</glyph>
<glyph name="four" format="2">
  <advance width="600"/>
  <unicode hex="0034"/>
  <outline>
    <contour>
      <point x="145" y="184" type="line"/>
      <point x="179" y="235"/>
      <point x="221" y="305"/>
      <point x="264" y="375" type="curve" smooth="yes"/>
      <point x="326" y="478"/>
      <point x="391" y="584"/>
      <point x="435" y="645" type="curve"/>
      <point x="452" y="691"/>
      <point x="502" y="698"/>
      <point x="500" y="696" type="curve"/>
      <point x="291" y="702" type="line"/>
      <point x="257" y="641"/>
      <point x="206" y="555"/>
      <point x="152" y="465" type="curve" smooth="yes"/>
      <point x="104" y="387"/>
      <point x="55" y="306"/>
      <point x="12" y="237" type="curve"/>
    </contour>
    <contour>
      <point x="28" y="95" type="line"/>
      <point x="104" y="97"/>
      <point x="239" y="99"/>
      <point x="303" y="100" type="curve" smooth="yes"/>
      <point x="411" y="102"/>
      <point x="551" y="99"/>
      <point x="586" y="100" type="curve"/>
      <point x="585" y="244" type="line"/>
      <point x="558" y="239"/>
      <point x="412" y="238"/>
      <point x="301" y="235" type="curve" smooth="yes"/>
      <point x="232" y="233"/>
      <point x="66" y="233"/>
      <point x="12" y="237" type="curve"/>
    </contour>
    <contour>
      <point x="328" y="-3" type="curve"/>
      <point x="499" y="0" type="line"/>
      <point x="498" y="49"/>
      <point x="496" y="107"/>
      <point x="496" y="306" type="curve" smooth="yes"/>
      <point x="496" y="483"/>
      <point x="497" y="601"/>
      <point x="500" y="696" type="curve"/>
      <point x="333" y="686" type="line"/>
      <point x="338" y="536"/>
      <point x="333" y="357"/>
      <point x="333" y="251" type="curve" smooth="yes"/>
      <point x="333" y="202"/>
      <point x="331" y="171"/>
    </contour>
  </outline>
</glyph>
<glyph name="five" format="2">
  <advance width="580"/>
  <unicode hex="0035"/>
  <outline>
    <contour>
      <point x="275" y="-10" type="curve" smooth="yes"/>
      <point x="500" y="-10"/>
      <point x="577" y="120"/>
      <point x="577" y="238" type="curve" smooth="yes"/>
      <point x="577" y="392"/>
      <point x="496" y="482"/>
      <point x="319" y="482" type="curve" smooth="yes"/>
      <point x="215" y="482"/>
      <point x="140" y="440"/>
      <point x="94" y="345" type="curve"/>
      <point x="187" y="297" type="line"/>
      <point x="207" y="320"/>
      <point x="235" y="340"/>
      <point x="295" y="340" type="curve" smooth="yes"/>
      <point x="368" y="340"/>
      <point x="403" y="301"/>
      <point x="403" y="235" type="curve" smooth="yes"/>
      <point x="403" y="188"/>
      <point x="371" y="122"/>
      <point x="281" y="122" type="curve" smooth="yes"/>
      <point x="194" y="122"/>
      <point x="174" y="157"/>
      <point x="177" y="208" type="curve"/>
      <point x="4" y="201" type="line"/>
      <point x="-2" y="92"/>
      <point x="55" y="-10"/>
    </contour>
    <contour>
      <point x="187" y="297" type="line"/>
      <point x="187" y="291"/>
      <point x="191" y="433"/>
      <point x="195" y="502" type="curve" smooth="yes"/>
      <point x="197" y="540"/>
      <point x="197" y="624"/>
      <point x="203" y="695" type="curve"/>
      <point x="32" y="703" type="line"/>
      <point x="32" y="708"/>
      <point x="34" y="593"/>
      <point x="32" y="505" type="curve" smooth="yes"/>
      <point x="30" y="421"/>
      <point x="22" y="288"/>
      <point x="22" y="293" type="curve"/>
    </contour>
    <contour>
      <point x="57" y="552" type="line"/>
      <point x="55" y="552"/>
      <point x="140" y="554"/>
      <point x="293" y="554" type="curve" smooth="yes"/>
      <point x="392" y="554"/>
      <point x="503" y="553"/>
      <point x="530" y="552" type="curve"/>
      <point x="534" y="697" type="line"/>
      <point x="509" y="696"/>
      <point x="393" y="698"/>
      <point x="291" y="698" type="curve" smooth="yes"/>
      <point x="141" y="698"/>
      <point x="128" y="699"/>
      <point x="31" y="703" type="curve"/>
    </contour>
  </outline>
</glyph>
<glyph name="seven" format="2">
  <advance width="479"/>
  <unicode hex="0037"/>
  <outline>
    <contour>
      <point x="84" y="-1" type="curve"/>
      <point x="273" y="0" type="line"/>
      <point x="265" y="106"/>
      <point x="288" y="218"/>
      <point x="327" y="324" type="curve" smooth="yes"/>
      <point x="362" y="420"/>
      <point x="409" y="483"/>
      <point x="463" y="558" type="curve"/>
      <point x="463" y="700" type="line"/>
      <point x="309" y="612"/>
      <point x="216" y="498"/>
      <point x="160" y="368" type="curve" smooth="yes"/>
      <point x="111" y="255"/>
      <point x="84" y="130"/>
    </contour>
    <contour>
      <point x="4" y="551" type="line"/>
      <point x="32" y="553"/>
      <point x="166" y="553"/>
      <point x="215" y="553" type="curve" smooth="yes"/>
      <point x="264" y="553"/>
      <point x="381" y="555"/>
      <point x="411" y="555" type="curve"/>
      <point x="463" y="700" type="line"/>
      <point x="437" y="698"/>
      <point x="279" y="697"/>
      <point x="228" y="698" type="curve" smooth="yes"/>
      <point x="177" y="699"/>
      <point x="41" y="699"/>
      <point x="3" y="700" type="curve"/>
    </contour>
  </outline>
</glyph>
<glyph name="eight" format="2">
  <advance width="585"/>
  <unicode hex="0038"/>
  <outline>
    <contour>
      <point x="279" y="237" type="curve" smooth="yes"/>
      <point x="485" y="237"/>
      <point x="558" y="347"/>
      <point x="558" y="468" type="curve" smooth="yes"/>
      <point x="558" y="608"/>
      <point x="490" y="707"/>
      <point x="291" y="707" type="curve" smooth="yes"/>
      <point x="91" y="707"/>
      <point x="17" y="594"/>
      <point x="17" y="459" type="curve" smooth="yes"/>
      <point x="17" y="344"/>
      <point x="92" y="237"/>
    </contour>
    <contour>
      <point x="277" y="-10" type="curve" smooth="yes"/>
      <point x="500" y="-10"/>
      <point x="582" y="75"/>
      <point x="582" y="174" type="curve" smooth="yes"/>
      <point x="582" y="294"/>
      <point x="494" y="366"/>
      <point x="292" y="366" type="curve" smooth="yes"/>
      <point x="85" y="366"/>
      <point x="-7" y="288"/>
      <point x="-7" y="166" type="curve" smooth="yes"/>
      <point x="-7" y="77"/>
      <point x="76" y="-10"/>
    </contour>
    <contour>
      <point x="283" y="120" type="curve" smooth="yes"/>
      <point x="198" y="120"/>
      <point x="166" y="139"/>
      <point x="166" y="179" type="curve" smooth="yes"/>
      <point x="166" y="219"/>
      <point x="207" y="236"/>
      <point x="287" y="236" type="curve" smooth="yes"/>
      <point x="373" y="236"/>
      <point x="410" y="227"/>
      <point x="410" y="178" type="curve" smooth="yes"/>
      <point x="410" y="139"/>
      <point x="370" y="120"/>
    </contour>
    <contour>
      <point x="287" y="367" type="curve" smooth="yes"/>
      <point x="225" y="367"/>
      <point x="192" y="406"/>
      <point x="192" y="464" type="curve" smooth="yes"/>
      <point x="192" y="528"/>
      <point x="222" y="571"/>
      <point x="290" y="571" type="curve" smooth="yes"/>
      <point x="359" y="571"/>
      <point x="384" y="537"/>
      <point x="384" y="457" type="curve" smooth="yes"/>
      <point x="384" y="412"/>
      <point x="352" y="367"/>
    </contour>
  </outline>
</glyph>
<glyph name="nine" format="2">
  <advance width="611"/>
  <unicode hex="0039"/>
  <outline>
    <contour>
      <point x="285" y="-10" type="curve" smooth="yes"/>
      <point x="503" y="-10"/>
      <point x="582" y="137"/>
      <point x="582" y="382" type="curve" smooth="yes"/>
      <point x="582" y="599"/>
      <point x="517" y="713"/>
      <point x="294" y="713" type="curve" smooth="yes"/>
      <point x="94" y="713"/>
      <point x="16" y="594"/>
      <point x="16" y="466" type="curve" smooth="yes"/>
      <point x="16" y="323"/>
      <point x="99" y="238"/>
      <point x="270" y="238" type="curve" smooth="yes"/>
      <point x="360" y="238"/>
      <point x="430" y="282"/>
      <point x="451" y="422" type="curve"/>
      <point x="408" y="473" type="line"/>
      <point x="408" y="398"/>
      <point x="358" y="378"/>
      <point x="291" y="378" type="curve" smooth="yes"/>
      <point x="226" y="378"/>
      <point x="189" y="413"/>
      <point x="189" y="472" type="curve" smooth="yes"/>
      <point x="189" y="535"/>
      <point x="226" y="570"/>
      <point x="296" y="570" type="curve" smooth="yes"/>
      <point x="376" y="570"/>
      <point x="408" y="537"/>
      <point x="408" y="473" type="curve" smooth="yes"/>
      <point x="408" y="256"/>
      <point x="394" y="131"/>
      <point x="287" y="131" type="curve" smooth="yes"/>
      <point x="235" y="131"/>
      <point x="202" y="147"/>
      <point x="202" y="187" type="curve" smooth="yes"/>
      <point x="202" y="191"/>
      <point x="202" y="195"/>
      <point x="203" y="200" type="curve"/>
      <point x="30" y="198" type="line"/>
      <point x="28" y="185"/>
      <point x="27" y="173"/>
      <point x="27" y="161" type="curve" smooth="yes"/>
      <point x="27" y="58"/>
      <point x="110" y="-10"/>
    </contour>
  </outline>
</glyph>
<glyph name="colon" format="2">
  <advance width="327"/>
  <unicode hex="003A"/>
  <outline>
    <contour>
      <point x="213" y="-3" type="line"/>
      <point x="213" y="194" type="line"/>
      <point x="79" y="179" type="line"/>
      <point x="83" y="-3" type="line"/>
    </contour>
    <contour>
      <point x="213" y="407" type="line"/>
      <point x="213" y="603" type="line"/>
      <point x="79" y="589" type="line"/>
      <point x="83" y="407" type="line"/>
    </contour>
  </outline>
</glyph>
<glyph name="semicolon" format="2">
  <advance width="325"/>
  <unicode hex="003B"/>
  <outline>
    <contour>
      <point x="142" y="-178" type="line"/>
      <point x="196" y="-123"/>
      <point x="206" y="-61"/>
      <point x="206" y="18" type="curve" smooth="yes"/>
      <point x="206" y="186" type="line"/>
      <point x="79" y="178" type="line"/>
      <point x="81" y="1" type="line"/>
      <point x="136" y="-2" type="line"/>
      <point x="136" y="-47"/>
      <point x="130" y="-90"/>
      <point x="87" y="-141" type="curve"/>
    </contour>
    <contour>
      <point x="211" y="407" type="line"/>
      <point x="211" y="603" type="line"/>
      <point x="84" y="589" type="line"/>
      <point x="87" y="407" type="line"/>
    </contour>
  </outline>
</glyph>
<glyph name="equal" format="2">
  <advance width="638"/>
  <unicode hex="003D"/>
  <outline>
    <contour>
      <point x="80" y="117" type="line"/>
      <point x="143" y="118"/>
      <point x="246" y="119"/>
      <point x="296" y="119" type="curve" smooth="yes"/>
      <point x="341" y="119"/>
      <point x="461" y="118"/>
      <point x="524" y="115" type="curve"/>
      <point x="518" y="230" type="line"/>
      <point x="455" y="227"/>
      <point x="353" y="224"/>
      <point x="303" y="227" type="curve" smooth="yes"/>
      <point x="251" y="229"/>
      <point x="147" y="229"/>
      <point x="85" y="230" type="curve"/>
    </contour>
    <contour>
      <point x="80" y="403" type="line"/>
      <point x="143" y="403"/>
      <point x="246" y="404"/>
      <point x="296" y="404" type="curve" smooth="yes"/>
      <point x="341" y="404"/>
      <point x="450" y="401"/>
      <point x="524" y="401" type="curve"/>
      <point x="517" y="515" type="line"/>
      <point x="465" y="514"/>
      <point x="355" y="510"/>
      <point x="305" y="512" type="curve" smooth="yes"/>
      <point x="252" y="513"/>
      <point x="150" y="516"/>
      <point x="87" y="516" type="curve"/>
    </contour>
  </outline>
</glyph>
<glyph name="question" format="2">
  <advance width="666"/>
  <unicode hex="003F"/>
  <outline>
    <contour>
      <point x="407" y="213" type="line"/>
      <point x="399" y="248"/>
      <point x="396" y="270"/>
      <point x="396" y="286" type="curve" smooth="yes"/>
      <point x="396" y="318"/>
      <point x="441" y="339"/>
      <point x="489" y="368" type="curve" smooth="yes"/>
      <point x="544" y="402"/>
      <point x="603" y="446"/>
      <point x="603" y="531" type="curve" smooth="yes"/>
      <point x="603" y="645"/>
      <point x="512" y="716"/>
      <point x="341" y="716" type="curve" smooth="yes"/>
      <point x="148" y="716"/>
      <point x="63" y="616"/>
      <point x="63" y="512" type="curve" smooth="yes"/>
      <point x="63" y="487"/>
      <point x="68" y="461"/>
      <point x="78" y="436" type="curve"/>
      <point x="246" y="435" type="line"/>
      <point x="238" y="454"/>
      <point x="233" y="475"/>
      <point x="233" y="497" type="curve" smooth="yes"/>
      <point x="233" y="553"/>
      <point x="267" y="580"/>
      <point x="335" y="580" type="curve" smooth="yes"/>
      <point x="387" y="580"/>
      <point x="436" y="564"/>
      <point x="436" y="518" type="curve" smooth="yes"/>
      <point x="436" y="481"/>
      <point x="410" y="457"/>
      <point x="378" y="436" type="curve" smooth="yes"/>
      <point x="322" y="399"/>
      <point x="246" y="368"/>
      <point x="246" y="285" type="curve" smooth="yes"/>
      <point x="246" y="266"/>
      <point x="249" y="246"/>
      <point x="256" y="214" type="curve"/>
    </contour>
    <contour>
      <point x="407" y="-3" type="line"/>
      <point x="395" y="167" type="line"/>
      <point x="263" y="165" type="line"/>
      <point x="262" y="0" type="line"/>
    </contour>
  </outline>
</glyph>
<glyph name="at" format="2">
  <advance width="1058"/>
  <unicode hex="0040"/>
  <outline>
    <contour>
      <point x="502" y="-219" type="curve" smooth="yes"/>
      <point x="610" y="-219"/>
      <point x="731" y="-193"/>
      <point x="852" y="-139" type="curve"/>
      <point x="823" y="-53" type="line"/>
      <point x="711" y="-96"/>
      <point x="618" y="-117"/>
      <point x="517" y="-117" type="curve" smooth="yes"/>
      <point x="281" y="-117"/>
      <point x="168" y="0"/>
      <point x="168" y="240" type="curve" smooth="yes"/>
      <point x="168" y="460"/>
      <point x="279" y="661"/>
      <point x="564" y="661" type="curve" smooth="yes"/>
      <point x="835" y="661"/>
      <point x="895" y="499"/>
      <point x="895" y="350" type="curve" smooth="yes"/>
      <point x="895" y="223"/>
      <point x="851" y="114"/>
      <point x="770" y="114" type="curve" smooth="yes"/>
      <point x="743" y="114"/>
      <point x="727" y="128"/>
      <point x="727" y="163" type="curve" smooth="yes"/>
      <point x="727" y="214"/>
      <point x="735" y="225"/>
      <point x="785" y="560" type="curve"/>
      <point x="629" y="551" type="line"/>
      <point x="618" y="488" type="line"/>
      <point x="601" y="537"/>
      <point x="564" y="569"/>
      <point x="498" y="569" type="curve" smooth="yes"/>
      <point x="382" y="569"/>
      <point x="269" y="457"/>
      <point x="269" y="209" type="curve" smooth="yes"/>
      <point x="269" y="65"/>
      <point x="318" y="-11"/>
      <point x="424" y="-11" type="curve" smooth="yes"/>
      <point x="495" y="-11"/>
      <point x="558" y="34"/>
      <point x="592" y="97" type="curve"/>
      <point x="610" y="34"/>
      <point x="649" y="-10"/>
      <point x="739" y="-10" type="curve" smooth="yes"/>
      <point x="923" y="-10"/>
      <point x="1019" y="171"/>
      <point x="1020" y="362" type="curve" smooth="yes"/>
      <point x="1021" y="551"/>
      <point x="912" y="763"/>
      <point x="568" y="763" type="curve" smooth="yes"/>
      <point x="200" y="763"/>
      <point x="43" y="501"/>
      <point x="43" y="241" type="curve" smooth="yes"/>
      <point x="43" y="-56"/>
      <point x="216" y="-219"/>
    </contour>
    <contour>
      <point x="481" y="114" type="curve" smooth="yes"/>
      <point x="443" y="114"/>
      <point x="441" y="165"/>
      <point x="441" y="217" type="curve" smooth="yes"/>
      <point x="441" y="330"/>
      <point x="479" y="443"/>
      <point x="541" y="443" type="curve" smooth="yes"/>
      <point x="580" y="443"/>
      <point x="590" y="398"/>
      <point x="580" y="325" type="curve" smooth="yes"/>
      <point x="568" y="234" type="line" smooth="yes"/>
      <point x="557" y="154"/>
      <point x="521" y="114"/>
    </contour>
  </outline>
</glyph>
<glyph name="A" format="2">
  <advance width="554"/>
  <unicode hex="0041"/>
  <anchor x="268" y="0" name="bottom"/>
  <anchor x="459" y="0" name="ogonek"/>
  <anchor x="279" y="693" name="top"/>
  <outline>
    <contour>
      <point x="377" y="-5" type="curve"/>
      <point x="568" y="0" type="line"/>
      <point x="539" y="99"/>
      <point x="504" y="221"/>
      <point x="470" y="346" type="curve" smooth="yes"/>
      <point x="436" y="471"/>
      <point x="403" y="598"/>
      <point x="377" y="705" type="curve"/>
      <point x="183" y="697" type="line"/>
      <point x="240" y="638" type="line"/>
      <point x="265" y="524"/>
      <point x="289" y="416"/>
      <point x="310" y="317" type="curve" smooth="yes"/>
      <point x="336" y="195"/>
      <point x="359" y="86"/>
    </contour>
    <contour>
      <point x="118" y="97" type="line"/>
      <point x="434" y="104" type="line"/>
      <point x="434" y="235" type="line"/>
      <point x="118" y="238" type="line"/>
    </contour>
    <contour>
      <point x="178" y="6" type="line"/>
      <point x="204" y="126"/>
      <point x="228" y="233"/>
      <point x="247" y="323" type="curve" smooth="yes"/>
      <point x="284" y="497"/>
      <point x="309" y="608"/>
      <point x="316" y="630" type="curve"/>
      <point x="377" y="705" type="line"/>
      <point x="183" y="697" type="line"/>
      <point x="158" y="602"/>
      <point x="123" y="472"/>
      <point x="88" y="346" type="curve" smooth="yes"/>
      <point x="51" y="212"/>
      <point x="15" y="83"/>
      <point x="-8" y="7" type="curve"/>
    </contour>
  </outline>
</glyph>
<glyph name="B" format="2">
  <advance width="562"/>
  <unicode hex="0042"/>
  <outline>
    <contour>
      <point x="126" y="240" type="line"/>
      <point x="376" y="240"/>
      <point x="552" y="304"/>
      <point x="552" y="487" type="curve" smooth="yes"/>
      <point x="552" y="659"/>
      <point x="433" y="719"/>
      <point x="201" y="719" type="curve" smooth="yes"/>
      <point x="153" y="719"/>
      <point x="87" y="717"/>
      <point x="30" y="713" type="curve"/>
      <point x="95" y="570" type="line"/>
      <point x="149" y="575"/>
      <point x="196" y="579"/>
      <point x="237" y="579" type="curve" smooth="yes"/>
      <point x="320" y="579"/>
      <point x="384" y="564"/>
      <point x="384" y="471" type="curve" smooth="yes"/>
      <point x="384" y="349"/>
      <point x="314" y="338"/>
      <point x="122" y="338" type="curve"/>
    </contour>
    <contour>
      <point x="218" y="-10" type="curve" smooth="yes"/>
      <point x="449" y="-10"/>
      <point x="559" y="31"/>
      <point x="559" y="157" type="curve" smooth="yes"/>
      <point x="559" y="262"/>
      <point x="423" y="339"/>
      <point x="122" y="338" type="curve"/>
      <point x="126" y="203" type="line"/>
      <point x="184" y="204"/>
      <point x="234" y="206"/>
      <point x="277" y="206" type="curve" smooth="yes"/>
      <point x="330" y="206"/>
      <point x="391" y="205"/>
      <point x="391" y="159" type="curve" smooth="yes"/>
      <point x="391" y="113"/>
      <point x="328" y="106"/>
      <point x="264" y="106" type="curve" smooth="yes"/>
      <point x="217" y="106"/>
      <point x="163" y="110"/>
      <point x="103" y="116" type="curve"/>
      <point x="34" y="-5" type="line"/>
      <point x="94" y="-8"/>
      <point x="177" y="-10"/>
    </contour>
    <contour>
      <point x="34" y="-5" type="curve"/>
      <point x="216" y="3" type="line"/>
      <point x="216" y="3"/>
      <point x="213" y="268"/>
      <point x="213" y="353" type="curve"/>
      <point x="213" y="468"/>
      <point x="215" y="704"/>
      <point x="215" y="704" type="curve"/>
      <point x="30" y="713" type="line"/>
      <point x="30" y="713"/>
      <point x="38" y="525"/>
      <point x="38" y="355" type="curve"/>
      <point x="38" y="187"/>
      <point x="34" y="-5"/>
    </contour>
  </outline>
</glyph>
<glyph name="C" format="2">
  <advance width="518"/>
  <unicode hex="0043"/>
  <anchor x="269" y="0" name="bottom"/>
  <anchor x="277" y="693" name="top"/>
  <outline>
    <contour>
      <point x="267" y="-10" type="curve"/>
      <point x="421" y="-10"/>
      <point x="505" y="59"/>
      <point x="505" y="186" type="curve" smooth="yes"/>
      <point x="505" y="195"/>
      <point x="504" y="206"/>
      <point x="503" y="216" type="curve"/>
      <point x="333" y="214" type="line"/>
      <point x="334" y="208"/>
      <point x="334" y="202"/>
      <point x="334" y="197" type="curve" smooth="yes"/>
      <point x="334" y="161"/>
      <point x="315" y="135"/>
      <point x="275" y="135" type="curve" smooth="yes"/>
      <point x="240" y="135"/>
      <point x="220" y="154"/>
      <point x="210" y="196" type="curve" smooth="yes"/>
      <point x="203" y="226"/>
      <point x="200" y="268"/>
      <point x="200" y="323" type="curve" smooth="yes"/>
      <point x="200" y="389"/>
      <point x="203" y="447"/>
      <point x="214" y="489" type="curve" smooth="yes"/>
      <point x="224" y="531"/>
      <point x="243" y="557"/>
      <point x="275" y="557" type="curve" smooth="yes"/>
      <point x="321" y="557"/>
      <point x="336" y="524"/>
      <point x="336" y="461" type="curve" smooth="yes"/>
      <point x="336" y="429"/>
      <point x="333" y="390"/>
      <point x="327" y="343" type="curve"/>
      <point x="502" y="343" type="line"/>
      <point x="508" y="385"/>
      <point x="511" y="424"/>
      <point x="511" y="459" type="curve" smooth="yes"/>
      <point x="511" y="612"/>
      <point x="449" y="701"/>
      <point x="277" y="701" type="curve" smooth="yes"/>
      <point x="164" y="701"/>
      <point x="92" y="646"/>
      <point x="54" y="560" type="curve" smooth="yes"/>
      <point x="28" y="503"/>
      <point x="17" y="432"/>
      <point x="17" y="355" type="curve" smooth="yes"/>
      <point x="17" y="264"/>
      <point x="27" y="183"/>
      <point x="55" y="121" type="curve" smooth="yes"/>
      <point x="91" y="40"/>
      <point x="156" y="-10"/>
    </contour>
  </outline>
</glyph>
<glyph name="E" format="2">
  <advance width="510"/>
  <unicode hex="0045"/>
  <anchor x="262" y="0" name="bottom"/>
  <anchor x="370" y="-1" name="ogonek"/>
  <anchor x="264" y="693" name="top"/>
  <outline>
    <contour>
      <point x="53" y="-1" type="curve"/>
      <point x="238" y="3" type="line"/>
      <point x="238" y="3"/>
      <point x="235" y="223"/>
      <point x="235" y="341" type="curve"/>
      <point x="235" y="457"/>
      <point x="238" y="688"/>
      <point x="238" y="688" type="curve"/>
      <point x="49" y="702" type="line"/>
      <point x="49" y="702"/>
      <point x="57" y="513"/>
      <point x="57" y="342" type="curve"/>
      <point x="57" y="173"/>
      <point x="53" y="-1"/>
    </contour>
    <contour>
      <point x="53" y="-1" type="line"/>
      <point x="468" y="0" type="line"/>
      <point x="467" y="126" type="line"/>
      <point x="124" y="131" type="line"/>
    </contour>
    <contour>
      <point x="120" y="211" type="line"/>
      <point x="463" y="216" type="line"/>
      <point x="465" y="354" type="line"/>
      <point x="120" y="358" type="line"/>
    </contour>
    <contour>
      <point x="111" y="560" type="line"/>
      <point x="456" y="561" type="line"/>
      <point x="456" y="693" type="line"/>
      <point x="49" y="702" type="line"/>
    </contour>
  </outline>
</glyph>
<glyph name="F" format="2">
  <advance width="460"/>
  <unicode hex="0046"/>
  <outline>
    <contour>
      <point x="43" y="4" type="curve"/>
      <point x="229" y="4" type="line"/>
      <point x="229" y="4"/>
      <point x="226" y="238"/>
      <point x="226" y="361" type="curve"/>
      <point x="226" y="477"/>
      <point x="229" y="693"/>
      <point x="229" y="693" type="curve"/>
      <point x="39" y="707" type="line"/>
      <point x="39" y="707"/>
      <point x="47" y="532"/>
      <point x="47" y="361" type="curve"/>
      <point x="47" y="192"/>
      <point x="43" y="4"/>
    </contour>
    <contour>
      <point x="110" y="231" type="line"/>
      <point x="433" y="234" type="line"/>
      <point x="431" y="379" type="line"/>
      <point x="110" y="382" type="line"/>
    </contour>
    <contour>
      <point x="98" y="560" type="line"/>
      <point x="428" y="560" type="line"/>
      <point x="431" y="698" type="line"/>
      <point x="39" y="707" type="line"/>
    </contour>
  </outline>
</glyph>
<glyph name="G" format="2">
  <advance width="527"/>
  <unicode hex="0047"/>
  <anchor x="278" y="0" name="bottom"/>
  <anchor x="273" y="693" name="top"/>
  <outline>
    <contour>
      <point x="12" y="340" type="curve" smooth="yes"/>
      <point x="12" y="252"/>
      <point x="24" y="172"/>
      <point x="54" y="111" type="curve" smooth="yes"/>
      <point x="91" y="38"/>
      <point x="155" y="-8"/>
      <point x="255" y="-8" type="curve" smooth="yes"/>
      <point x="311" y="-8"/>
      <point x="348" y="12"/>
      <point x="374" y="53" type="curve"/>
      <point x="389" y="0" type="line"/>
      <point x="507" y="0" type="line"/>
      <point x="505" y="317" type="line"/>
      <point x="277" y="319" type="line"/>
      <point x="277" y="190" type="line"/>
      <point x="351" y="192" type="line"/>
      <point x="352" y="188"/>
      <point x="352" y="185"/>
      <point x="352" y="181" type="curve" smooth="yes"/>
      <point x="351" y="154"/>
      <point x="327" y="131"/>
      <point x="277" y="131" type="curve" smooth="yes"/>
      <point x="240" y="131"/>
      <point x="218" y="154"/>
      <point x="207" y="199" type="curve" smooth="yes"/>
      <point x="199" y="229"/>
      <point x="196" y="269"/>
      <point x="196" y="318" type="curve" smooth="yes"/>
      <point x="196" y="396"/>
      <point x="199" y="463"/>
      <point x="211" y="508" type="curve" smooth="yes"/>
      <point x="222" y="551"/>
      <point x="241" y="576"/>
      <point x="274" y="576" type="curve" smooth="yes"/>
      <point x="313" y="576"/>
      <point x="328" y="547"/>
      <point x="328" y="493" type="curve" smooth="yes"/>
      <point x="328" y="467"/>
      <point x="325" y="435"/>
      <point x="319" y="398" type="curve"/>
      <point x="494" y="397" type="line"/>
      <point x="502" y="433"/>
      <point x="506" y="467"/>
      <point x="506" y="498" type="curve" smooth="yes"/>
      <point x="506" y="625"/>
      <point x="439" y="714"/>
      <point x="278" y="714" type="curve" smooth="yes"/>
      <point x="165" y="714"/>
      <point x="94" y="657"/>
      <point x="54" y="570" type="curve" smooth="yes"/>
      <point x="25" y="506"/>
      <point x="12" y="426"/>
    </contour>
  </outline>
</glyph>
<glyph name="H" format="2">
  <advance width="613"/>
  <unicode hex="0048"/>
  <anchor x="307" y="0" name="bottom"/>
  <anchor x="306" y="459" name="center"/>
  <anchor x="306" y="693" name="top"/>
  <outline>
    <contour>
      <point x="368" y="0" type="curve"/>
      <point x="559" y="0" type="line"/>
      <point x="556" y="97"/>
      <point x="555" y="241"/>
      <point x="555" y="383" type="curve" smooth="yes"/>
      <point x="555" y="518"/>
      <point x="558" y="619"/>
      <point x="562" y="708" type="curve"/>
      <point x="372" y="706" type="line"/>
      <point x="374" y="627"/>
      <point x="375" y="463"/>
      <point x="375" y="381" type="curve" smooth="yes"/>
      <point x="375" y="297"/>
      <point x="372" y="118"/>
    </contour>
    <contour>
      <point x="119" y="308" type="line"/>
      <point x="119" y="164" type="line"/>
      <point x="503" y="159" type="line"/>
      <point x="503" y="314" type="line"/>
    </contour>
    <contour>
      <point x="54" y="2" type="curve"/>
      <point x="240" y="3" type="line"/>
      <point x="240" y="80"/>
      <point x="237" y="285"/>
      <point x="237" y="352" type="curve" smooth="yes"/>
      <point x="237" y="440"/>
      <point x="240" y="623"/>
      <point x="240" y="698" type="curve"/>
      <point x="51" y="694" type="line"/>
      <point x="54" y="621"/>
      <point x="58" y="480"/>
      <point x="58" y="353" type="curve" smooth="yes"/>
      <point x="58" y="233"/>
      <point x="57" y="98"/>
    </contour>
  </outline>
</glyph>
<glyph name="I" format="2">
  <advance width="255"/>
  <unicode hex="0049"/>
  <anchor x="124" y="0" name="bottom"/>
  <anchor x="104" y="0" name="ogonek"/>
  <anchor x="126" y="693" name="top"/>
  <outline>
    <contour>
      <point x="37" y="702" type="line"/>
      <point x="41" y="626"/>
      <point x="41" y="470"/>
      <point x="41" y="396" type="curve"/>
      <point x="41" y="296"/>
      <point x="33" y="0"/>
      <point x="33" y="0" type="curve"/>
      <point x="223" y="1" type="line"/>
      <point x="223" y="1"/>
      <point x="220" y="212"/>
      <point x="220" y="398" type="curve"/>
      <point x="220" y="585"/>
      <point x="226" y="704"/>
      <point x="226" y="704" type="curve"/>
    </contour>
  </outline>
</glyph>
<glyph name="J" format="2">
  <advance width="505"/>
  <unicode hex="004A"/>
  <anchor x="406" y="693" name="top"/>
  <outline>
    <contour>
      <point x="232" y="-10" type="curve" smooth="yes"/>
      <point x="430" y="-10"/>
      <point x="481" y="102"/>
      <point x="481" y="238" type="curve" smooth="yes"/>
      <point x="481" y="308"/>
      <point x="481" y="357"/>
      <point x="481" y="425" type="curve"/>
      <point x="481" y="515"/>
      <point x="481" y="606"/>
      <point x="483" y="699" type="curve"/>
      <point x="313" y="697" type="line"/>
      <point x="317" y="610"/>
      <point x="318" y="487"/>
      <point x="318" y="419" type="curve"/>
      <point x="319" y="334"/>
      <point x="319" y="300"/>
      <point x="319" y="250" type="curve" smooth="yes"/>
      <point x="319" y="193"/>
      <point x="307" y="124"/>
      <point x="235" y="124" type="curve" smooth="yes"/>
      <point x="184" y="124"/>
      <point x="159" y="157"/>
      <point x="159" y="213" type="curve" smooth="yes"/>
      <point x="159" y="236"/>
      <point x="161" y="262"/>
      <point x="165" y="291" type="curve"/>
      <point x="3" y="292" type="line"/>
      <point x="-3" y="258"/>
      <point x="-6" y="227"/>
      <point x="-6" y="198" type="curve" smooth="yes"/>
      <point x="-6" y="70"/>
      <point x="54" y="-10"/>
    </contour>
  </outline>
</glyph>
<glyph name="K" format="2">
  <advance width="527"/>
  <unicode hex="004B"/>
  <anchor x="276" y="0" name="bottom"/>
  <outline>
    <contour>
      <point x="356" y="1" type="curve"/>
      <point x="578" y="6" type="line"/>
      <point x="463" y="128"/>
      <point x="398" y="209"/>
      <point x="332" y="297" type="curve"/>
      <point x="391" y="401"/>
      <point x="498" y="592"/>
      <point x="573" y="705" type="curve"/>
      <point x="370" y="702" type="line"/>
      <point x="319" y="596"/>
      <point x="228" y="422"/>
      <point x="136" y="271" type="curve"/>
      <point x="215" y="191"/>
      <point x="283" y="102"/>
    </contour>
    <contour>
      <point x="41" y="2" type="curve"/>
      <point x="227" y="3" type="line"/>
      <point x="225" y="80"/>
      <point x="224" y="285"/>
      <point x="224" y="352" type="curve" smooth="yes"/>
      <point x="224" y="440"/>
      <point x="227" y="623"/>
      <point x="227" y="698" type="curve"/>
      <point x="38" y="704" type="line"/>
      <point x="40" y="631"/>
      <point x="45" y="480"/>
      <point x="45" y="353" type="curve" smooth="yes"/>
      <point x="45" y="233"/>
      <point x="44" y="98"/>
    </contour>
  </outline>
</glyph>
<glyph name="L" format="2">
  <advance width="450"/>
  <unicode hex="004C"/>
  <anchor x="258" y="0" name="bottom"/>
  <anchor x="209" y="377" name="center"/>
  <anchor x="168" y="693" name="top"/>
  <anchor x="263" y="478" name="topright"/>
  <outline>
    <contour>
      <point x="51" y="-4" type="curve"/>
      <point x="237" y="3" type="line"/>
      <point x="237" y="3"/>
      <point x="235" y="226"/>
      <point x="235" y="343" type="curve"/>
      <point x="235" y="459"/>
      <point x="237" y="703"/>
      <point x="237" y="703" type="curve"/>
      <point x="47" y="696" type="line"/>
      <point x="47" y="696"/>
      <point x="55" y="516"/>
      <point x="55" y="345" type="curve"/>
      <point x="55" y="176"/>
      <point x="51" y="-4"/>
    </contour>
    <contour>
      <point x="51" y="-4" type="line"/>
      <point x="451" y="-1" type="line"/>
      <point x="451" y="130" type="line"/>
      <point x="122" y="133" type="line"/>
    </contour>
  </outline>
</glyph>
<glyph name="M" format="2">
  <advance width="819"/>
  <unicode hex="004D"/>
  <outline>
    <contour>
      <point x="48" y="-1" type="curve"/>
      <point x="219" y="-1" type="line"/>
      <point x="219" y="52"/>
      <point x="218" y="137"/>
      <point x="217" y="216" type="curve" smooth="yes"/>
      <point x="217" y="289"/>
      <point x="216" y="358"/>
      <point x="216" y="393" type="curve"/>
      <point x="233" y="342"/>
      <point x="248" y="293"/>
      <point x="263" y="246" type="curve" smooth="yes"/>
      <point x="290" y="161"/>
      <point x="313" y="85"/>
      <point x="336" y="18" type="curve"/>
      <point x="476" y="12" type="line"/>
      <point x="494" y="70"/>
      <point x="518" y="152"/>
      <point x="542" y="231" type="curve" smooth="yes"/>
      <point x="562" y="299"/>
      <point x="582" y="366"/>
      <point x="597" y="413" type="curve"/>
      <point x="597" y="345"/>
      <point x="597" y="286"/>
      <point x="597" y="236" type="curve" smooth="yes"/>
      <point x="597" y="89"/>
      <point x="597" y="16"/>
      <point x="596" y="0" type="curve"/>
      <point x="771" y="-2" type="line"/>
      <point x="770" y="59"/>
      <point x="769" y="180"/>
      <point x="768" y="305" type="curve" smooth="yes"/>
      <point x="767" y="464"/>
      <point x="768" y="632"/>
      <point x="770" y="697" type="curve"/>
      <point x="541" y="697" type="line"/>
      <point x="509" y="591"/>
      <point x="483" y="498"/>
      <point x="457" y="413" type="curve" smooth="yes"/>
      <point x="441" y="358"/>
      <point x="425" y="307"/>
      <point x="408" y="257" type="curve"/>
      <point x="396" y="294"/>
      <point x="384" y="332"/>
      <point x="372" y="371" type="curve" smooth="yes"/>
      <point x="340" y="478"/>
      <point x="308" y="593"/>
      <point x="276" y="704" type="curve"/>
      <point x="49" y="702" type="line"/>
      <point x="50" y="600"/>
      <point x="51" y="441"/>
      <point x="50" y="294" type="curve" smooth="yes"/>
      <point x="49" y="178"/>
      <point x="49" y="69"/>
    </contour>
  </outline>
</glyph>
<glyph name="P" format="2">
  <advance width="519"/>
  <unicode hex="0050"/>
  <outline>
    <contour>
      <point x="125" y="196" type="line"/>
      <point x="376" y="196"/>
      <point x="527" y="266"/>
      <point x="527" y="476" type="curve" smooth="yes"/>
      <point x="527" y="665"/>
      <point x="423" y="718"/>
      <point x="205" y="718" type="curve" smooth="yes"/>
      <point x="160" y="718"/>
      <point x="81" y="716"/>
      <point x="28" y="712" type="curve"/>
      <point x="93" y="570" type="line"/>
      <point x="140" y="576"/>
      <point x="199" y="580"/>
      <point x="237" y="580" type="curve" smooth="yes"/>
      <point x="293" y="580"/>
      <point x="344" y="554"/>
      <point x="344" y="473" type="curve" smooth="yes"/>
      <point x="344" y="361"/>
      <point x="292" y="327"/>
      <point x="125" y="336" type="curve"/>
    </contour>
    <contour>
      <point x="32" y="-5" type="curve"/>
      <point x="219" y="5" type="line"/>
      <point x="210" y="1"/>
      <point x="216" y="217"/>
      <point x="216" y="354" type="curve"/>
      <point x="214" y="464"/>
      <point x="213" y="601"/>
      <point x="218" y="702" type="curve"/>
      <point x="28" y="712" type="line"/>
      <point x="31" y="631"/>
      <point x="36" y="477"/>
      <point x="36" y="352" type="curve"/>
      <point x="36" y="228"/>
      <point x="34" y="75"/>
    </contour>
  </outline>
</glyph>
<glyph name="R" format="2">
  <advance width="559"/>
  <unicode hex="0052"/>
  <anchor x="287" y="0" name="bottom"/>
  <anchor x="267" y="712" name="top"/>
  <outline>
    <contour>
      <point x="125" y="206" type="line"/>
      <point x="382" y="206"/>
      <point x="527" y="276"/>
      <point x="527" y="476" type="curve" smooth="yes"/>
      <point x="527" y="665"/>
      <point x="423" y="718"/>
      <point x="205" y="718" type="curve" smooth="yes"/>
      <point x="160" y="718"/>
      <point x="81" y="716"/>
      <point x="28" y="712" type="curve"/>
      <point x="93" y="570" type="line"/>
      <point x="140" y="576"/>
      <point x="209" y="580"/>
      <point x="247" y="580" type="curve" smooth="yes"/>
      <point x="303" y="580"/>
      <point x="344" y="559"/>
      <point x="344" y="478" type="curve" smooth="yes"/>
      <point x="344" y="367"/>
      <point x="274" y="337"/>
      <point x="125" y="346" type="curve"/>
    </contour>
    <contour>
      <point x="32" y="-5" type="curve"/>
      <point x="219" y="5" type="line"/>
      <point x="218" y="118"/>
      <point x="216" y="296"/>
      <point x="216" y="374" type="curve"/>
      <point x="214" y="484"/>
      <point x="213" y="635"/>
      <point x="218" y="702" type="curve"/>
      <point x="28" y="712" type="line"/>
      <point x="31" y="631"/>
      <point x="36" y="477"/>
      <point x="36" y="352" type="curve"/>
      <point x="36" y="228"/>
      <point x="34" y="75"/>
    </contour>
    <contour>
      <point x="389" y="-6" type="curve"/>
      <point x="597" y="-3" type="line"/>
      <point x="525" y="108"/>
      <point x="473" y="206"/>
      <point x="423" y="305" type="curve"/>
      <point x="252" y="274" type="line"/>
      <point x="302" y="175"/>
      <point x="349" y="86"/>
    </contour>
  </outline>
</glyph>
<glyph name="S" format="2">
  <advance width="548"/>
  <unicode hex="0053"/>
  <anchor x="281" y="0" name="bottom"/>
  <anchor x="281" y="701" name="top"/>
  <outline>
    <contour>
      <point x="269" y="-10" type="curve" smooth="yes"/>
      <point x="478" y="-10"/>
      <point x="540" y="81"/>
      <point x="540" y="171" type="curve" smooth="yes"/>
      <point x="540" y="310"/>
      <point x="418" y="345"/>
      <point x="280" y="399" type="curve" smooth="yes"/>
      <point x="204" y="429"/>
      <point x="188" y="454"/>
      <point x="188" y="502" type="curve" smooth="yes"/>
      <point x="188" y="544"/>
      <point x="213" y="577"/>
      <point x="276" y="577" type="curve" smooth="yes"/>
      <point x="333" y="577"/>
      <point x="359" y="546"/>
      <point x="359" y="472" type="curve" smooth="yes"/>
      <point x="359" y="450"/>
      <point x="357" y="425"/>
      <point x="353" y="396" type="curve"/>
      <point x="531" y="396" type="line"/>
      <point x="538" y="430"/>
      <point x="542" y="462"/>
      <point x="542" y="491" type="curve" smooth="yes"/>
      <point x="542" y="630"/>
      <point x="459" y="705"/>
      <point x="282" y="705" type="curve" smooth="yes"/>
      <point x="87" y="705"/>
      <point x="11" y="597"/>
      <point x="11" y="488" type="curve" smooth="yes"/>
      <point x="11" y="325"/>
      <point x="133" y="286"/>
      <point x="234" y="247" type="curve" smooth="yes"/>
      <point x="324" y="212"/>
      <point x="362" y="206"/>
      <point x="362" y="165" type="curve" smooth="yes"/>
      <point x="362" y="132"/>
      <point x="340" y="113"/>
      <point x="267" y="113" type="curve" smooth="yes"/>
      <point x="217" y="113"/>
      <point x="185" y="141"/>
      <point x="185" y="190" type="curve" smooth="yes"/>
      <point x="185" y="203"/>
      <point x="187" y="216"/>
      <point x="191" y="231" type="curve"/>
      <point x="21" y="231" type="line"/>
      <point x="15" y="208"/>
      <point x="12" y="186"/>
      <point x="12" y="166" type="curve" smooth="yes"/>
      <point x="12" y="54"/>
      <point x="103" y="-10"/>
    </contour>
  </outline>
</glyph>
<glyph name="V" format="2">
  <advance width="558"/>
  <unicode hex="0056"/>
  <outline>
    <contour>
      <point x="-3" y="704" type="line"/>
      <point x="26" y="605"/>
      <point x="61" y="475"/>
      <point x="95" y="350" type="curve" smooth="yes"/>
      <point x="129" y="225"/>
      <point x="162" y="98"/>
      <point x="188" y="-9" type="curve"/>
      <point x="378" y="-11" type="line"/>
      <point x="403" y="84"/>
      <point x="442" y="224"/>
      <point x="477" y="350" type="curve" smooth="yes"/>
      <point x="514" y="484"/>
      <point x="552" y="631"/>
      <point x="575" y="707" type="curve"/>
      <point x="389" y="696" type="line"/>
      <point x="381" y="658"/>
      <point x="358" y="541"/>
      <point x="331" y="401" type="curve" smooth="yes"/>
      <point x="318" y="334"/>
      <point x="302" y="262"/>
      <point x="287" y="190" type="curve"/>
      <point x="270" y="270"/>
      <point x="257" y="339"/>
      <point x="245" y="399" type="curve" smooth="yes"/>
      <point x="216" y="546"/>
      <point x="201" y="636"/>
      <point x="188" y="701" type="curve"/>
    </contour>
  </outline>
</glyph>
<glyph name="W" format="2">
  <advance width="948"/>
  <unicode hex="0057"/>
  <anchor x="477" y="693" name="top"/>
  <outline>
    <contour>
      <point x="361" y="-11" type="line"/>
      <point x="372" y="34"/>
      <point x="408" y="176"/>
      <point x="437" y="291" type="curve" smooth="yes"/>
      <point x="456" y="365"/>
      <point x="472" y="427"/>
      <point x="478" y="448" type="curve"/>
      <point x="490" y="407"/>
      <point x="503" y="358"/>
      <point x="516" y="308" type="curve" smooth="yes"/>
      <point x="546" y="194"/>
      <point x="576" y="69"/>
      <point x="594" y="-11" type="curve"/>
      <point x="776" y="-9" type="line"/>
      <point x="788" y="45"/>
      <point x="827" y="215"/>
      <point x="865" y="377" type="curve" smooth="yes"/>
      <point x="902" y="536"/>
      <point x="937" y="687"/>
      <point x="943" y="709" type="curve"/>
      <point x="751" y="707" type="line"/>
      <point x="742" y="608"/>
      <point x="728" y="503"/>
      <point x="716" y="406" type="curve" smooth="yes"/>
      <point x="706" y="328"/>
      <point x="695" y="256"/>
      <point x="685" y="199" type="curve"/>
      <point x="673" y="249"/>
      <point x="658" y="315"/>
      <point x="641" y="387" type="curve" smooth="yes"/>
      <point x="621" y="473"/>
      <point x="600" y="568"/>
      <point x="581" y="655" type="curve"/>
      <point x="374" y="655" type="line"/>
      <point x="358" y="579"/>
      <point x="335" y="477"/>
      <point x="314" y="383" type="curve" smooth="yes"/>
      <point x="298" y="313"/>
      <point x="282" y="247"/>
      <point x="270" y="199" type="curve"/>
      <point x="260" y="264"/>
      <point x="248" y="349"/>
      <point x="236" y="435" type="curve" smooth="yes"/>
      <point x="223" y="530"/>
      <point x="211" y="626"/>
      <point x="204" y="693" type="curve"/>
      <point x="12" y="695" type="line"/>
      <point x="19" y="671"/>
      <point x="54" y="523"/>
      <point x="91" y="365" type="curve" smooth="yes"/>
      <point x="125" y="218"/>
      <point x="163" y="63"/>
      <point x="179" y="-9" type="curve"/>
    </contour>
  </outline>
</glyph>
<glyph name="X" format="2">
  <advance width="537"/>
  <unicode hex="0058"/>
  <outline>
    <contour>
      <point x="-28" y="-2" type="curve"/>
      <point x="155" y="-1" type="line"/>
      <point x="206" y="87"/>
      <point x="264" y="185"/>
      <point x="321" y="282" type="curve" smooth="yes"/>
      <point x="412" y="437"/>
      <point x="505" y="588"/>
      <point x="568" y="691" type="curve"/>
      <point x="385" y="692" type="line"/>
      <point x="346" y="620"/>
      <point x="289" y="522"/>
      <point x="227" y="418" type="curve" smooth="yes"/>
      <point x="139" y="270"/>
      <point x="41" y="109"/>
    </contour>
    <contour>
      <point x="381" y="-11" type="curve"/>
      <point x="570" y="-7" type="line"/>
      <point x="496" y="123"/>
      <point x="408" y="274"/>
      <point x="329" y="412" type="curve" smooth="yes"/>
      <point x="269" y="517"/>
      <point x="212" y="613"/>
      <point x="169" y="688" type="curve"/>
      <point x="-19" y="690" type="line"/>
      <point x="65" y="544"/>
      <point x="149" y="399"/>
      <point x="226" y="264" type="curve" smooth="yes"/>
      <point x="282" y="166"/>
      <point x="335" y="73"/>
    </contour>
  </outline>
</glyph>
<glyph name="Y" format="2">
  <advance width="505"/>
  <unicode hex="0059"/>
  <anchor x="251" y="0" name="bottom"/>
  <anchor x="253" y="693" name="top"/>
  <outline>
    <contour>
      <point x="165" y="0" type="curve"/>
      <point x="345" y="1" type="line"/>
      <point x="341" y="70"/>
      <point x="341" y="129"/>
      <point x="339" y="224" type="curve"/>
      <point x="166" y="234" type="line"/>
      <point x="169" y="115"/>
      <point x="167" y="48"/>
    </contour>
    <contour>
      <point x="-26" y="704" type="line"/>
      <point x="-2" y="646"/>
      <point x="34" y="554"/>
      <point x="71" y="460" type="curve" smooth="yes"/>
      <point x="121" y="333"/>
      <point x="172" y="200"/>
      <point x="194" y="137" type="curve"/>
      <point x="313" y="136" type="line"/>
      <point x="334" y="192"/>
      <point x="382" y="310"/>
      <point x="430" y="427" type="curve" smooth="yes"/>
      <point x="473" y="531"/>
      <point x="516" y="635"/>
      <point x="543" y="698" type="curve"/>
      <point x="354" y="694" type="line"/>
      <point x="337" y="632"/>
      <point x="320" y="578"/>
      <point x="303" y="525" type="curve" smooth="yes"/>
      <point x="289" y="481"/>
      <point x="273" y="438"/>
      <point x="256" y="392" type="curve"/>
      <point x="239" y="442"/>
      <point x="226" y="484"/>
      <point x="213" y="527" type="curve" smooth="yes"/>
      <point x="197" y="579"/>
      <point x="183" y="632"/>
      <point x="165" y="704" type="curve"/>
    </contour>
  </outline>
</glyph>
<glyph name="Z" format="2">
  <advance width="449"/>
  <unicode hex="005A"/>
  <anchor x="215" y="693" name="top"/>
  <outline>
    <contour>
      <point x="3" y="693" type="curve"/>
      <point x="-1" y="552" type="line"/>
      <point x="35" y="554"/>
      <point x="86" y="555"/>
      <point x="161" y="555" type="curve" smooth="yes"/>
      <point x="182" y="555"/>
      <point x="225" y="554"/>
      <point x="244" y="555" type="curve"/>
      <point x="213" y="500"/>
      <point x="173" y="432"/>
      <point x="131" y="363" type="curve" smooth="yes"/>
      <point x="83" y="285"/>
      <point x="33" y="206"/>
      <point x="-10" y="140" type="curve"/>
      <point x="-3" y="1" type="line"/>
      <point x="-8" y="1"/>
      <point x="136" y="3"/>
      <point x="221" y="3" type="curve" smooth="yes"/>
      <point x="300" y="3"/>
      <point x="403" y="0"/>
      <point x="453" y="0" type="curve"/>
      <point x="454" y="143" type="line"/>
      <point x="399" y="143"/>
      <point x="362" y="140"/>
      <point x="286" y="140" type="curve" smooth="yes"/>
      <point x="256" y="140"/>
      <point x="210" y="140"/>
      <point x="183" y="140" type="curve"/>
      <point x="218" y="199"/>
      <point x="251" y="253"/>
      <point x="282" y="303" type="curve" smooth="yes"/>
      <point x="335" y="389"/>
      <point x="384" y="467"/>
      <point x="439" y="552" type="curve"/>
      <point x="440" y="695" type="line"/>
      <point x="375" y="694"/>
      <point x="301" y="693"/>
      <point x="230" y="692" type="curve" smooth="yes"/>
      <point x="179" y="691"/>
      <point x="72" y="694"/>
    </contour>
  </outline>
</glyph>
<glyph name="bracketleft" format="2">
  <advance width="527"/>
  <unicode hex="005B"/>
  <outline>
    <contour>
      <point x="112" y="-139" type="curve"/>
      <point x="256" y="-128" type="line"/>
      <point x="251" y="123"/>
      <point x="251" y="172"/>
      <point x="251" y="296" type="curve" smooth="yes"/>
      <point x="251" y="393"/>
      <point x="254" y="460"/>
      <point x="256" y="671" type="curve"/>
      <point x="113" y="692" type="line"/>
      <point x="113" y="700"/>
      <point x="117" y="509"/>
      <point x="117" y="303" type="curve" smooth="yes"/>
      <point x="117" y="98"/>
      <point x="115" y="-85"/>
    </contour>
    <contour>
      <point x="112" y="-139" type="line"/>
      <point x="100" y="-139"/>
      <point x="158" y="-138"/>
      <point x="398" y="-130" type="curve"/>
      <point x="406" y="-9" type="line"/>
      <point x="235" y="-16"/>
      <point x="174" y="-21"/>
      <point x="152" y="-24" type="curve"/>
    </contour>
    <contour>
      <point x="129" y="594" type="line"/>
      <point x="175" y="595"/>
      <point x="410" y="596"/>
      <point x="405" y="596" type="curve"/>
      <point x="394" y="702" type="line"/>
      <point x="253" y="695"/>
      <point x="130" y="692"/>
      <point x="113" y="692" type="curve"/>
    </contour>
  </outline>
</glyph>
<glyph name="backslash" format="2">
  <advance width="382"/>
  <unicode hex="005C"/>
  <outline>
    <contour>
      <point x="415" y="-1" type="line"/>
      <point x="353" y="128"/>
      <point x="307" y="241"/>
      <point x="255" y="367" type="curve" smooth="yes"/>
      <point x="207" y="483"/>
      <point x="174" y="579"/>
      <point x="138" y="700" type="curve"/>
      <point x="-33" y="698" type="line"/>
      <point x="8" y="597"/>
      <point x="46" y="492"/>
      <point x="99" y="366" type="curve" smooth="yes"/>
      <point x="154" y="236"/>
      <point x="202" y="119"/>
      <point x="246" y="0" type="curve"/>
    </contour>
  </outline>
</glyph>
<glyph name="bracketright" format="2">
  <advance width="527"/>
  <unicode hex="005D"/>
  <outline>
    <contour>
      <point x="415" y="-129" type="line"/>
      <point x="415" y="-137"/>
      <point x="411" y="54"/>
      <point x="411" y="260" type="curve" smooth="yes"/>
      <point x="411" y="465"/>
      <point x="413" y="648"/>
      <point x="416" y="702" type="curve"/>
      <point x="272" y="691" type="line"/>
      <point x="277" y="440"/>
      <point x="277" y="391"/>
      <point x="277" y="267" type="curve" smooth="yes"/>
      <point x="277" y="170"/>
      <point x="274" y="103"/>
      <point x="272" y="-108" type="curve"/>
    </contour>
    <contour>
      <point x="134" y="-139" type="line"/>
      <point x="275" y="-132"/>
      <point x="398" y="-129"/>
      <point x="415" y="-129" type="curve"/>
      <point x="399" y="-31" type="line"/>
      <point x="353" y="-32"/>
      <point x="118" y="-33"/>
      <point x="123" y="-33" type="curve"/>
    </contour>
    <contour>
      <point x="122" y="572" type="line"/>
      <point x="263" y="579"/>
      <point x="366" y="584"/>
      <point x="388" y="587" type="curve"/>
      <point x="416" y="702" type="line"/>
      <point x="428" y="702"/>
      <point x="382" y="701"/>
      <point x="130" y="693" type="curve"/>
    </contour>
  </outline>
</glyph>
<glyph name="underscore" format="2">
  <advance width="504"/>
  <unicode hex="005F"/>
  <outline>
    <contour>
      <point x="32" y="-149" type="line"/>
      <point x="32" y="-149"/>
      <point x="186" y="-146"/>
      <point x="253" y="-145" type="curve" smooth="yes"/>
      <point x="325" y="-144"/>
      <point x="472" y="-146"/>
      <point x="472" y="-146" type="curve"/>
      <point x="474" y="-32" type="line"/>
      <point x="474" y="-32"/>
      <point x="322" y="-35"/>
      <point x="247" y="-36" type="curve" smooth="yes"/>
      <point x="173" y="-37"/>
      <point x="30" y="-34"/>
      <point x="30" y="-34" type="curve"/>
    </contour>
  </outline>
</glyph>
<glyph name="grave" format="2">
  <advance width="237"/>
  <unicode hex="0060"/>
  <anchor x="117" y="552" name="_top"/>
  <outline>
    <contour>
      <point x="186" y="594" type="curve"/>
      <point x="233" y="660" type="line"/>
      <point x="201" y="678"/>
      <point x="167" y="696"/>
      <point x="133" y="716" type="curve" smooth="yes"/>
      <point x="99" y="736"/>
      <point x="64" y="759"/>
      <point x="30" y="782" type="curve"/>
      <point x="-29" y="694" type="line"/>
      <point x="11" y="677"/>
      <point x="50" y="661"/>
      <point x="85" y="645" type="curve" smooth="yes"/>
      <point x="119" y="628"/>
      <point x="152" y="613"/>
    </contour>
  </outline>
</glyph>
<glyph name="a" format="2">
  <advance width="468"/>
  <unicode hex="0061"/>
  <anchor x="224" y="0" name="bottom"/>
  <anchor x="371" y="0" name="ogonek"/>
  <anchor x="237" y="555" name="top"/>
  <outline>
    <contour>
      <point x="299" y="0" type="line"/>
      <point x="450" y="0" type="line"/>
      <point x="445" y="264" type="line"/>
      <point x="448" y="373" type="line" smooth="yes"/>
      <point x="450" y="458"/>
      <point x="423" y="565"/>
      <point x="243" y="565" type="curve" smooth="yes"/>
      <point x="104" y="565"/>
      <point x="31" y="492"/>
      <point x="31" y="399" type="curve" smooth="yes"/>
      <point x="31" y="383"/>
      <point x="34" y="366"/>
      <point x="38" y="349" type="curve"/>
      <point x="201" y="356" type="line"/>
      <point x="197" y="369"/>
      <point x="195" y="382"/>
      <point x="195" y="394" type="curve" smooth="yes"/>
      <point x="195" y="420"/>
      <point x="212" y="439"/>
      <point x="241" y="439" type="curve" smooth="yes"/>
      <point x="271" y="439"/>
      <point x="287" y="422"/>
      <point x="287" y="397" type="curve" smooth="yes"/>
      <point x="291" y="85" type="line"/>
    </contour>
    <contour>
      <point x="155" y="-9" type="curve" smooth="yes"/>
      <point x="312" y="-9"/>
      <point x="342" y="142"/>
      <point x="342" y="341" type="curve"/>
      <point x="288" y="283" type="line"/>
      <point x="291" y="177"/>
      <point x="275" y="105"/>
      <point x="211" y="105" type="curve" smooth="yes"/>
      <point x="186" y="105"/>
      <point x="174" y="122"/>
      <point x="174" y="146" type="curve" smooth="yes"/>
      <point x="174" y="177"/>
      <point x="195" y="192"/>
      <point x="227" y="207" type="curve" smooth="yes"/>
      <point x="298" y="240"/>
      <point x="322" y="255"/>
      <point x="342" y="353" type="curve"/>
      <point x="287" y="397" type="line"/>
      <point x="287" y="339"/>
      <point x="267" y="333"/>
      <point x="199" y="309" type="curve" smooth="yes"/>
      <point x="104" y="276"/>
      <point x="11" y="244"/>
      <point x="11" y="123" type="curve" smooth="yes"/>
      <point x="11" y="37"/>
      <point x="68" y="-9"/>
    </contour>
  </outline>
</glyph>
<glyph name="b" format="2">
  <advance width="527"/>
  <unicode hex="0062"/>
  <outline>
    <contour>
      <point x="303" y="-7" type="curve" smooth="yes"/>
      <point x="385" y="-7"/>
      <point x="437" y="39"/>
      <point x="468" y="111" type="curve" smooth="yes"/>
      <point x="502" y="189"/>
      <point x="511" y="320"/>
      <point x="493" y="407" type="curve" smooth="yes"/>
      <point x="473" y="503"/>
      <point x="422" y="565"/>
      <point x="325" y="565" type="curve" smooth="yes"/>
      <point x="178" y="565"/>
      <point x="142" y="398"/>
      <point x="142" y="270" type="curve"/>
      <point x="209" y="312" type="line"/>
      <point x="209" y="412"/>
      <point x="236" y="439"/>
      <point x="273" y="439" type="curve" smooth="yes"/>
      <point x="305" y="439"/>
      <point x="318" y="411"/>
      <point x="324" y="366" type="curve" smooth="yes"/>
      <point x="331" y="312"/>
      <point x="328" y="208"/>
      <point x="315" y="162" type="curve" smooth="yes"/>
      <point x="306" y="131"/>
      <point x="292" y="111"/>
      <point x="268" y="111" type="curve" smooth="yes"/>
      <point x="226" y="111"/>
      <point x="209" y="132"/>
      <point x="209" y="258" type="curve"/>
      <point x="142" y="276" type="line"/>
      <point x="142" y="182"/>
      <point x="154" y="-7"/>
    </contour>
    <contour>
      <point x="189" y="-2" type="line"/>
      <point x="207" y="100" type="line"/>
      <point x="209" y="188"/>
      <point x="209" y="277"/>
      <point x="209" y="343" type="curve"/>
      <point x="209" y="465"/>
      <point x="211" y="584"/>
      <point x="212" y="690" type="curve"/>
      <point x="32" y="686" type="line"/>
      <point x="38" y="555"/>
      <point x="38" y="452"/>
      <point x="40" y="344" type="curve" smooth="yes"/>
      <point x="41" y="284"/>
      <point x="37" y="41"/>
      <point x="35" y="0" type="curve"/>
    </contour>
  </outline>
</glyph>
<glyph name="c" format="2">
  <advance width="494"/>
  <unicode hex="0063"/>
  <anchor x="260" y="0" name="bottom"/>
  <anchor x="258" y="555" name="top"/>
  <outline>
    <contour>
      <point x="246" y="-12" type="curve" smooth="yes"/>
      <point x="390" y="-12"/>
      <point x="464" y="45"/>
      <point x="464" y="159" type="curve" smooth="yes"/>
      <point x="464" y="168"/>
      <point x="464" y="178"/>
      <point x="463" y="188" type="curve"/>
      <point x="295" y="188" type="line"/>
      <point x="297" y="177"/>
      <point x="298" y="168"/>
      <point x="298" y="160" type="curve" smooth="yes"/>
      <point x="298" y="121"/>
      <point x="277" y="113"/>
      <point x="251" y="113" type="curve" smooth="yes"/>
      <point x="227" y="113"/>
      <point x="215" y="132"/>
      <point x="208" y="168" type="curve" smooth="yes"/>
      <point x="202" y="198"/>
      <point x="201" y="239"/>
      <point x="201" y="290" type="curve" smooth="yes"/>
      <point x="201" y="336"/>
      <point x="204" y="374"/>
      <point x="212" y="400" type="curve" smooth="yes"/>
      <point x="221" y="429"/>
      <point x="234" y="445"/>
      <point x="255" y="445" type="curve" smooth="yes"/>
      <point x="283" y="445"/>
      <point x="293" y="423"/>
      <point x="293" y="379" type="curve" smooth="yes"/>
      <point x="293" y="360"/>
      <point x="291" y="337"/>
      <point x="288" y="309" type="curve"/>
      <point x="458" y="306" type="line"/>
      <point x="462" y="331"/>
      <point x="464" y="355"/>
      <point x="464" y="376" type="curve" smooth="yes"/>
      <point x="464" y="496"/>
      <point x="402" y="564"/>
      <point x="260" y="564" type="curve" smooth="yes"/>
      <point x="170" y="564"/>
      <point x="109" y="528"/>
      <point x="73" y="467" type="curve" smooth="yes"/>
      <point x="44" y="418"/>
      <point x="29" y="352"/>
      <point x="29" y="275" type="curve" smooth="yes"/>
      <point x="29" y="198"/>
      <point x="42" y="130"/>
      <point x="72" y="79" type="curve" smooth="yes"/>
      <point x="106" y="22"/>
      <point x="162" y="-12"/>
    </contour>
  </outline>
</glyph>
<glyph name="d" format="2">
  <advance width="525"/>
  <unicode hex="0064"/>
  <anchor x="373" y="625" name="center"/>
  <anchor x="468" y="416" name="topright"/>
  <outline>
    <contour>
      <point x="29" y="273" type="curve" smooth="yes"/>
      <point x="29" y="197"/>
      <point x="40" y="128"/>
      <point x="66" y="77" type="curve" smooth="yes"/>
      <point x="93" y="23"/>
      <point x="136" y="-10"/>
      <point x="200" y="-10" type="curve" smooth="yes"/>
      <point x="280" y="-10"/>
      <point x="308" y="31"/>
      <point x="331" y="69" type="curve"/>
      <point x="336" y="-2" type="line"/>
      <point x="492" y="0" type="line"/>
      <point x="488" y="86"/>
      <point x="486" y="228"/>
      <point x="487" y="344" type="curve" smooth="yes"/>
      <point x="488" y="455"/>
      <point x="488" y="571"/>
      <point x="495" y="696" type="curve"/>
      <point x="322" y="690" type="line"/>
      <point x="323" y="643"/>
      <point x="323" y="563"/>
      <point x="324" y="516" type="curve"/>
      <point x="305" y="540"/>
      <point x="276" y="565"/>
      <point x="223" y="565" type="curve" smooth="yes"/>
      <point x="145" y="565"/>
      <point x="89" y="515"/>
      <point x="57" y="438" type="curve" smooth="yes"/>
      <point x="38" y="392"/>
      <point x="29" y="335"/>
    </contour>
    <contour>
      <point x="200" y="277" type="curve" smooth="yes"/>
      <point x="200" y="313"/>
      <point x="202" y="345"/>
      <point x="206" y="372" type="curve" smooth="yes"/>
      <point x="213" y="420"/>
      <point x="231" y="450"/>
      <point x="262" y="450" type="curve" smooth="yes"/>
      <point x="294" y="450"/>
      <point x="309" y="429"/>
      <point x="314" y="382" type="curve" smooth="yes"/>
      <point x="317" y="356"/>
      <point x="318" y="322"/>
      <point x="318" y="279" type="curve" smooth="yes"/>
      <point x="318" y="235"/>
      <point x="315" y="200"/>
      <point x="308" y="174" type="curve" smooth="yes"/>
      <point x="298" y="138"/>
      <point x="283" y="119"/>
      <point x="257" y="119" type="curve" smooth="yes"/>
      <point x="233" y="119"/>
      <point x="220" y="131"/>
      <point x="211" y="158" type="curve" smooth="yes"/>
      <point x="203" y="183"/>
      <point x="200" y="223"/>
    </contour>
  </outline>
</glyph>
<glyph name="e" format="2">
  <advance width="494"/>
  <unicode hex="0065"/>
  <anchor x="258" y="0" name="bottom"/>
  <anchor x="284" y="-8" name="ogonek"/>
  <anchor x="259" y="555" name="top"/>
  <outline>
    <contour>
      <point x="253" y="-12" type="curve" smooth="yes"/>
      <point x="377" y="-12"/>
      <point x="473" y="46"/>
      <point x="473" y="149" type="curve" smooth="yes"/>
      <point x="473" y="160"/>
      <point x="472" y="171"/>
      <point x="470" y="183" type="curve"/>
      <point x="301" y="183" type="line"/>
      <point x="304" y="171"/>
      <point x="306" y="160"/>
      <point x="306" y="152" type="curve" smooth="yes"/>
      <point x="306" y="124"/>
      <point x="289" y="112"/>
      <point x="258" y="112" type="curve" smooth="yes"/>
      <point x="228" y="112"/>
      <point x="212" y="130"/>
      <point x="205" y="162" type="curve" smooth="yes"/>
      <point x="197" y="193"/>
      <point x="197" y="236"/>
      <point x="197" y="291" type="curve" smooth="yes"/>
      <point x="197" y="336"/>
      <point x="199" y="378"/>
      <point x="208" y="406" type="curve" smooth="yes"/>
      <point x="216" y="431"/>
      <point x="230" y="446"/>
      <point x="254" y="446" type="curve" smooth="yes"/>
      <point x="294" y="446"/>
      <point x="303" y="420"/>
      <point x="303" y="373" type="curve" smooth="yes"/>
      <point x="303" y="358"/>
      <point x="302" y="342"/>
      <point x="301" y="323" type="curve"/>
      <point x="465" y="230" type="line"/>
      <point x="469" y="263"/>
      <point x="471" y="295"/>
      <point x="471" y="325" type="curve" smooth="yes"/>
      <point x="471" y="471"/>
      <point x="419" y="564"/>
      <point x="264" y="564" type="curve" smooth="yes"/>
      <point x="169" y="564"/>
      <point x="105" y="527"/>
      <point x="67" y="463" type="curve" smooth="yes"/>
      <point x="38" y="415"/>
      <point x="25" y="350"/>
      <point x="25" y="275" type="curve" smooth="yes"/>
      <point x="25" y="196"/>
      <point x="38" y="130"/>
      <point x="67" y="81" type="curve" smooth="yes"/>
      <point x="102" y="22"/>
      <point x="162" y="-12"/>
    </contour>
    <contour>
      <point x="62" y="222" type="line"/>
      <point x="182" y="229"/>
      <point x="465" y="230"/>
      <point x="465" y="230" type="curve"/>
      <point x="436" y="344" type="line"/>
      <point x="58" y="342" type="line"/>
    </contour>
  </outline>
</glyph>
<glyph name="f" format="2">
  <advance width="339"/>
  <unicode hex="0066"/>
  <outline>
    <contour>
      <point x="-24" y="419" type="line"/>
      <point x="-24" y="419"/>
      <point x="68" y="422"/>
      <point x="144" y="422" type="curve"/>
      <point x="227" y="423"/>
      <point x="349" y="423"/>
      <point x="349" y="423" type="curve"/>
      <point x="358" y="551" type="line"/>
      <point x="358" y="551"/>
      <point x="240" y="549"/>
      <point x="146" y="549" type="curve"/>
      <point x="73" y="549"/>
      <point x="-20" y="551"/>
      <point x="-20" y="551" type="curve"/>
    </contour>
    <contour>
      <point x="275" y="716" type="curve" smooth="yes"/>
      <point x="96" y="716"/>
      <point x="63" y="604"/>
      <point x="63" y="512" type="curve" smooth="yes"/>
      <point x="63" y="394"/>
      <point x="62" y="392"/>
      <point x="62" y="271" type="curve" smooth="yes"/>
      <point x="62" y="125"/>
      <point x="56" y="-3"/>
      <point x="56" y="-3" type="curve"/>
      <point x="238" y="0" type="line"/>
      <point x="238" y="0"/>
      <point x="231" y="129"/>
      <point x="231" y="272" type="curve" smooth="yes"/>
      <point x="231" y="386"/>
      <point x="237" y="447"/>
      <point x="237" y="550" type="curve" smooth="yes"/>
      <point x="237" y="598"/>
      <point x="249" y="613"/>
      <point x="271" y="613" type="curve" smooth="yes"/>
      <point x="287" y="613"/>
      <point x="297" y="603"/>
      <point x="299" y="588" type="curve"/>
      <point x="459" y="584" type="line"/>
      <point x="458" y="669"/>
      <point x="402" y="716"/>
    </contour>
  </outline>
</glyph>
<glyph name="g" format="2">
  <advance width="512"/>
  <unicode hex="0067"/>
  <anchor x="241" y="555" name="top"/>
  <outline>
    <contour>
      <point x="238" y="-174" type="curve" smooth="yes"/>
      <point x="443" y="-174"/>
      <point x="476" y="-49"/>
      <point x="476" y="47" type="curve" smooth="yes"/>
      <point x="476" y="154"/>
      <point x="476" y="164"/>
      <point x="476" y="278" type="curve" smooth="yes"/>
      <point x="476" y="393"/>
      <point x="485" y="466"/>
      <point x="495" y="555" type="curve"/>
      <point x="348" y="555" type="line"/>
      <point x="334" y="500"/>
      <point x="308" y="400"/>
      <point x="308" y="277" type="curve"/>
      <point x="308" y="146"/>
      <point x="308" y="66"/>
      <point x="308" y="13" type="curve" smooth="yes"/>
      <point x="308" y="-38"/>
      <point x="294" y="-68"/>
      <point x="247" y="-68" type="curve" smooth="yes"/>
      <point x="231" y="-68"/>
      <point x="214" y="-63"/>
      <point x="205" y="-49" type="curve" smooth="yes"/>
      <point x="203" y="-46"/>
      <point x="201" y="-42"/>
      <point x="199" y="-38" type="curve"/>
      <point x="35" y="-54" type="line"/>
      <point x="36" y="-62"/>
      <point x="38" y="-70"/>
      <point x="41" y="-78" type="curve" smooth="yes"/>
      <point x="65" y="-143"/>
      <point x="135" y="-174"/>
    </contour>
    <contour>
      <point x="192" y="-10" type="curve" smooth="yes"/>
      <point x="324" y="-10"/>
      <point x="364" y="144"/>
      <point x="364" y="269" type="curve"/>
      <point x="308" y="277" type="line"/>
      <point x="308" y="160"/>
      <point x="289" y="117"/>
      <point x="249" y="117" type="curve" smooth="yes"/>
      <point x="225" y="117"/>
      <point x="212" y="134"/>
      <point x="206" y="163" type="curve" smooth="yes"/>
      <point x="200" y="193"/>
      <point x="198" y="235"/>
      <point x="199" y="283" type="curve" smooth="yes"/>
      <point x="200" y="326"/>
      <point x="203" y="368"/>
      <point x="212" y="397" type="curve" smooth="yes"/>
      <point x="220" y="423"/>
      <point x="233" y="440"/>
      <point x="254" y="440" type="curve" smooth="yes"/>
      <point x="296" y="440"/>
      <point x="308" y="394"/>
      <point x="308" y="277" type="curve"/>
      <point x="364" y="269" type="line"/>
      <point x="364" y="499"/>
      <point x="316" y="563"/>
      <point x="216" y="563" type="curve" smooth="yes"/>
      <point x="149" y="563"/>
      <point x="100" y="528"/>
      <point x="68" y="471" type="curve" smooth="yes"/>
      <point x="40" y="421"/>
      <point x="27" y="355"/>
      <point x="27" y="281" type="curve" smooth="yes"/>
      <point x="27" y="202"/>
      <point x="39" y="127"/>
      <point x="67" y="72" type="curve" smooth="yes"/>
      <point x="93" y="22"/>
      <point x="133" y="-10"/>
    </contour>
  </outline>
</glyph>
<glyph name="h" format="2">
  <advance width="528"/>
  <unicode hex="0068"/>
  <anchor x="259" y="0" name="bottom"/>
  <anchor x="195" y="621" name="center"/>
  <anchor x="104" y="669" name="top"/>
  <outline>
    <contour>
      <point x="34" y="1" type="curve"/>
      <point x="213" y="1" type="line"/>
      <point x="212" y="82"/>
      <point x="209" y="171"/>
      <point x="209" y="286" type="curve"/>
      <point x="203" y="417"/>
      <point x="204" y="507"/>
      <point x="204" y="691" type="curve"/>
      <point x="38" y="690" type="line"/>
      <point x="39" y="640"/>
      <point x="40" y="415"/>
      <point x="40" y="286" type="curve" smooth="yes"/>
      <point x="40" y="159"/>
      <point x="38" y="76"/>
    </contour>
    <contour>
      <point x="495" y="0" type="line"/>
      <point x="492" y="81"/>
      <point x="490" y="103"/>
      <point x="490" y="211" type="curve" smooth="yes"/>
      <point x="490" y="271"/>
      <point x="490" y="308"/>
      <point x="490" y="372" type="curve" smooth="yes"/>
      <point x="490" y="503"/>
      <point x="422" y="561"/>
      <point x="331" y="561" type="curve" smooth="yes"/>
      <point x="203" y="561"/>
      <point x="140" y="428"/>
      <point x="140" y="237" type="curve"/>
      <point x="209" y="286" type="line"/>
      <point x="209" y="385"/>
      <point x="233" y="433"/>
      <point x="278" y="433" type="curve" smooth="yes"/>
      <point x="306" y="433"/>
      <point x="321" y="412"/>
      <point x="321" y="367" type="curve" smooth="yes"/>
      <point x="321" y="304"/>
      <point x="321" y="267"/>
      <point x="321" y="207" type="curve" smooth="yes"/>
      <point x="321" y="96"/>
      <point x="319" y="79"/>
      <point x="315" y="1" type="curve"/>
    </contour>
  </outline>
</glyph>
<glyph name="i" format="2">
  <advance width="245"/>
  <unicode hex="0069"/>
  <anchor x="122" y="0" name="bottom"/>
  <anchor x="120" y="1" name="ogonek"/>
  <outline>
    <contour>
      <point x="213" y="0" type="line"/>
      <point x="209" y="91"/>
      <point x="207" y="192"/>
      <point x="207" y="285" type="curve" smooth="yes"/>
      <point x="207" y="404"/>
      <point x="209" y="513"/>
      <point x="211" y="554" type="curve"/>
      <point x="31" y="555" type="line"/>
      <point x="33" y="507"/>
      <point x="39" y="405"/>
      <point x="39" y="286" type="curve" smooth="yes"/>
      <point x="39" y="183"/>
      <point x="36" y="81"/>
      <point x="31" y="2" type="curve"/>
    </contour>
    <contour>
      <point x="209" y="643" type="line"/>
      <point x="209" y="763" type="line"/>
      <point x="33" y="755" type="line"/>
      <point x="36" y="634" type="line"/>
    </contour>
  </outline>
</glyph>
<glyph name="j" format="2">
  <advance width="233"/>
  <unicode hex="006A"/>
  <outline>
    <contour>
      <point x="-101" y="-167" type="line"/>
      <point x="50" y="-187"/>
      <point x="197" y="-144"/>
      <point x="201" y="53" type="curve" smooth="yes"/>
      <point x="203" y="154"/>
      <point x="201" y="143"/>
      <point x="201" y="286" type="curve"/>
      <point x="202" y="426"/>
      <point x="200" y="513"/>
      <point x="203" y="555" type="curve"/>
      <point x="24" y="555" type="line"/>
      <point x="29" y="482"/>
      <point x="33" y="374"/>
      <point x="36" y="271" type="curve" smooth="yes"/>
      <point x="39" y="176"/>
      <point x="41" y="126"/>
      <point x="37" y="67" type="curve" smooth="yes"/>
      <point x="32" y="-14"/>
      <point x="11" y="-58"/>
      <point x="-103" y="-45" type="curve"/>
    </contour>
    <contour>
      <point x="26" y="634" type="line"/>
      <point x="200" y="643" type="line"/>
      <point x="200" y="763" type="line"/>
      <point x="23" y="755" type="line"/>
    </contour>
  </outline>
</glyph>
<glyph name="k" format="2">
  <advance width="452"/>
  <unicode hex="006B"/>
  <anchor x="290" y="0" name="bottom"/>
  <outline>
    <contour>
      <point x="308" y="0" type="curve"/>
      <point x="518" y="3" type="line"/>
      <point x="444" y="103"/>
      <point x="373" y="209"/>
      <point x="317" y="298" type="curve"/>
      <point x="375" y="394"/>
      <point x="434" y="478"/>
      <point x="489" y="559" type="curve"/>
      <point x="295" y="561" type="line"/>
      <point x="257" y="485"/>
      <point x="211" y="405"/>
      <point x="129" y="288" type="curve"/>
      <point x="192" y="196"/>
      <point x="261" y="88"/>
    </contour>
    <contour>
      <point x="32" y="1" type="curve"/>
      <point x="206" y="1" type="line"/>
      <point x="206" y="1"/>
      <point x="204" y="120"/>
      <point x="204" y="264" type="curve"/>
      <point x="204" y="406"/>
      <point x="204" y="691"/>
      <point x="204" y="691" type="curve"/>
      <point x="37" y="691" type="line"/>
      <point x="37" y="691"/>
      <point x="38" y="412"/>
      <point x="38" y="266" type="curve"/>
      <point x="38" y="119"/>
      <point x="32" y="1"/>
    </contour>
  </outline>
</glyph>
<glyph name="l" format="2">
  <advance width="234"/>
  <unicode hex="006C"/>
  <anchor x="117" y="0" name="bottom"/>
  <anchor x="115" y="359" name="center"/>
  <anchor x="116" y="693" name="top"/>
  <anchor x="256" y="473" name="topright"/>
  <outline>
    <contour>
      <point x="24" y="0" type="curve"/>
      <point x="198" y="11" type="line"/>
      <point x="197" y="58"/>
      <point x="196" y="160"/>
      <point x="196" y="264" type="curve" smooth="yes"/>
      <point x="196" y="396"/>
      <point x="198" y="547"/>
      <point x="199" y="691" type="curve"/>
      <point x="27" y="692" type="line"/>
      <point x="29" y="599"/>
      <point x="32" y="403"/>
      <point x="32" y="266" type="curve" smooth="yes"/>
      <point x="32" y="117"/>
      <point x="29" y="73"/>
    </contour>
  </outline>
</glyph>
<glyph name="m" format="2">
  <advance width="810"/>
  <unicode hex="006D"/>
  <outline>
    <contour>
      <point x="313" y="1" type="curve"/>
      <point x="498" y="1" type="line"/>
      <point x="495" y="82"/>
      <point x="493" y="178"/>
      <point x="493" y="286" type="curve" smooth="yes"/>
      <point x="493" y="453"/>
      <point x="452" y="561"/>
      <point x="327" y="561" type="curve" smooth="yes"/>
      <point x="183" y="561"/>
      <point x="152" y="423"/>
      <point x="152" y="237" type="curve"/>
      <point x="205" y="286" type="line"/>
      <point x="205" y="390"/>
      <point x="235" y="433"/>
      <point x="274" y="433" type="curve" smooth="yes"/>
      <point x="312" y="433"/>
      <point x="319" y="403"/>
      <point x="319" y="362" type="curve" smooth="yes"/>
      <point x="319" y="299"/>
      <point x="319" y="267"/>
      <point x="319" y="207" type="curve" smooth="yes"/>
      <point x="319" y="96"/>
      <point x="317" y="79"/>
    </contour>
    <contour>
      <point x="31" y="1" type="curve"/>
      <point x="209" y="1" type="line"/>
      <point x="208" y="82"/>
      <point x="205" y="171"/>
      <point x="205" y="286" type="curve"/>
      <point x="199" y="417"/>
      <point x="198" y="538"/>
      <point x="197" y="562" type="curve"/>
      <point x="35" y="555" type="line"/>
      <point x="36" y="505"/>
      <point x="37" y="415"/>
      <point x="37" y="286" type="curve" smooth="yes"/>
      <point x="37" y="159"/>
      <point x="35" y="76"/>
    </contour>
    <contour>
      <point x="766" y="0" type="line"/>
      <point x="769" y="39"/>
      <point x="772" y="102"/>
      <point x="774" y="165" type="curve" smooth="yes"/>
      <point x="776" y="233"/>
      <point x="779" y="300"/>
      <point x="779" y="334" type="curve" smooth="yes"/>
      <point x="779" y="466"/>
      <point x="741" y="561"/>
      <point x="623" y="561" type="curve" smooth="yes"/>
      <point x="469" y="561"/>
      <point x="421" y="423"/>
      <point x="421" y="237" type="curve"/>
      <point x="493" y="286" type="line"/>
      <point x="493" y="384"/>
      <point x="522" y="433"/>
      <point x="564" y="433" type="curve" smooth="yes"/>
      <point x="601" y="433"/>
      <point x="609" y="403"/>
      <point x="609" y="353" type="curve" smooth="yes"/>
      <point x="609" y="323"/>
      <point x="608" y="269"/>
      <point x="606" y="233" type="curve" smooth="yes"/>
      <point x="602" y="165"/>
      <point x="597" y="101"/>
      <point x="588" y="13" type="curve"/>
    </contour>
  </outline>
</glyph>
<glyph name="n" format="2">
  <advance width="532"/>
  <unicode hex="006E"/>
  <anchor x="269" y="0" name="bottom"/>
  <anchor x="277" y="555" name="top"/>
  <anchor x="134" y="565" name="topright"/>
  <outline>
    <contour>
      <point x="499" y="0" type="line"/>
      <point x="496" y="81"/>
      <point x="494" y="103"/>
      <point x="494" y="211" type="curve" smooth="yes"/>
      <point x="494" y="271"/>
      <point x="494" y="308"/>
      <point x="494" y="372" type="curve" smooth="yes"/>
      <point x="494" y="503"/>
      <point x="426" y="561"/>
      <point x="335" y="561" type="curve" smooth="yes"/>
      <point x="207" y="561"/>
      <point x="144" y="428"/>
      <point x="144" y="237" type="curve"/>
      <point x="213" y="286" type="line"/>
      <point x="213" y="385"/>
      <point x="237" y="433"/>
      <point x="282" y="433" type="curve" smooth="yes"/>
      <point x="310" y="433"/>
      <point x="325" y="412"/>
      <point x="325" y="367" type="curve" smooth="yes"/>
      <point x="325" y="304"/>
      <point x="325" y="267"/>
      <point x="325" y="207" type="curve" smooth="yes"/>
      <point x="325" y="96"/>
      <point x="323" y="79"/>
      <point x="319" y="1" type="curve"/>
    </contour>
    <contour>
      <point x="38" y="1" type="curve"/>
      <point x="217" y="1" type="line"/>
      <point x="216" y="82"/>
      <point x="213" y="171"/>
      <point x="213" y="286" type="curve"/>
      <point x="207" y="417"/>
      <point x="206" y="538"/>
      <point x="205" y="562" type="curve"/>
      <point x="42" y="555" type="line"/>
      <point x="43" y="505"/>
      <point x="44" y="415"/>
      <point x="44" y="286" type="curve" smooth="yes"/>
      <point x="44" y="159"/>
      <point x="42" y="76"/>
    </contour>
  </outline>
</glyph>
<glyph name="o" format="2">
  <advance width="506"/>
  <unicode hex="006F"/>
  <anchor x="251" y="0" name="bottom"/>
  <anchor x="255" y="276" name="center"/>
  <anchor x="275" y="-4" name="ogonek"/>
  <anchor x="249" y="555" name="top"/>
  <anchor x="334" y="554" name="topright"/>
  <outline>
    <contour>
      <point x="246" y="-10" type="curve" smooth="yes"/>
      <point x="341" y="-10"/>
      <point x="404" y="26"/>
      <point x="440" y="88" type="curve" smooth="yes"/>
      <point x="469" y="138"/>
      <point x="481" y="204"/>
      <point x="481" y="284" type="curve" smooth="yes"/>
      <point x="481" y="344"/>
      <point x="474" y="398"/>
      <point x="457" y="441" type="curve" smooth="yes"/>
      <point x="427" y="520"/>
      <point x="366" y="568"/>
      <point x="265" y="568" type="curve" smooth="yes"/>
      <point x="160" y="568"/>
      <point x="91" y="525"/>
      <point x="55" y="447" type="curve" smooth="yes"/>
      <point x="35" y="404"/>
      <point x="25" y="349"/>
      <point x="25" y="285" type="curve" smooth="yes"/>
      <point x="25" y="215"/>
      <point x="34" y="154"/>
      <point x="55" y="106" type="curve" smooth="yes"/>
      <point x="87" y="33"/>
      <point x="146" y="-10"/>
    </contour>
    <contour>
      <point x="254" y="117" type="curve" smooth="yes"/>
      <point x="226" y="117"/>
      <point x="212" y="137"/>
      <point x="204" y="171" type="curve" smooth="yes"/>
      <point x="198" y="199"/>
      <point x="197" y="236"/>
      <point x="197" y="278" type="curve" smooth="yes"/>
      <point x="197" y="322"/>
      <point x="198" y="364"/>
      <point x="206" y="395" type="curve" smooth="yes"/>
      <point x="213" y="426"/>
      <point x="228" y="445"/>
      <point x="254" y="445" type="curve" smooth="yes"/>
      <point x="282" y="445"/>
      <point x="295" y="428"/>
      <point x="302" y="396" type="curve" smooth="yes"/>
      <point x="308" y="368"/>
      <point x="308" y="328"/>
      <point x="309" y="278" type="curve" smooth="yes"/>
      <point x="310" y="234"/>
      <point x="310" y="195"/>
      <point x="304" y="166" type="curve" smooth="yes"/>
      <point x="297" y="136"/>
      <point x="283" y="117"/>
    </contour>
  </outline>
</glyph>
<glyph name="p" format="2">
  <advance width="534"/>
  <unicode hex="0070"/>
  <outline>
    <contour>
      <point x="35" y="-166" type="curve"/>
      <point x="220" y="-160" type="line"/>
      <point x="214" y="37" type="line"/>
      <point x="227" y="13"/>
      <point x="259" y="-12"/>
      <point x="309" y="-12" type="curve" smooth="yes"/>
      <point x="389" y="-12"/>
      <point x="442" y="33"/>
      <point x="473" y="104" type="curve" smooth="yes"/>
      <point x="494" y="153"/>
      <point x="504" y="214"/>
      <point x="504" y="282" type="curve" smooth="yes"/>
      <point x="504" y="360"/>
      <point x="494" y="429"/>
      <point x="467" y="478" type="curve" smooth="yes"/>
      <point x="440" y="531"/>
      <point x="395" y="562"/>
      <point x="327" y="562" type="curve" smooth="yes"/>
      <point x="271" y="562"/>
      <point x="234" y="530"/>
      <point x="209" y="489" type="curve"/>
      <point x="210" y="560" type="line"/>
      <point x="41" y="555" type="line"/>
      <point x="41" y="483"/>
      <point x="44" y="328"/>
      <point x="44" y="204" type="curve" smooth="yes"/>
      <point x="44" y="62"/>
      <point x="35" y="-166"/>
    </contour>
    <contour>
      <point x="213" y="233" type="curve" smooth="yes"/>
      <point x="213" y="290" type="line" smooth="yes"/>
      <point x="213" y="400"/>
      <point x="243" y="436"/>
      <point x="275" y="436" type="curve" smooth="yes"/>
      <point x="303" y="436"/>
      <point x="318" y="420"/>
      <point x="326" y="384" type="curve" smooth="yes"/>
      <point x="331" y="359"/>
      <point x="333" y="324"/>
      <point x="333" y="278" type="curve" smooth="yes"/>
      <point x="333" y="228"/>
      <point x="330" y="187"/>
      <point x="321" y="157" type="curve" smooth="yes"/>
      <point x="311" y="124"/>
      <point x="295" y="105"/>
      <point x="270" y="105" type="curve" smooth="yes"/>
      <point x="241" y="105"/>
      <point x="213" y="127"/>
    </contour>
  </outline>
</glyph>
<glyph name="q" format="2">
  <advance width="526"/>
  <unicode hex="0071"/>
  <outline>
    <contour>
      <point x="27" y="275" type="curve" smooth="yes"/>
      <point x="27" y="203"/>
      <point x="38" y="137"/>
      <point x="63" y="86" type="curve" smooth="yes"/>
      <point x="91" y="27"/>
      <point x="138" y="-10"/>
      <point x="205" y="-10" type="curve" smooth="yes"/>
      <point x="267" y="-10"/>
      <point x="308" y="24"/>
      <point x="326" y="51" type="curve"/>
      <point x="329" y="-160" type="line"/>
      <point x="492" y="-164" type="line"/>
      <point x="488" y="-73"/>
      <point x="485" y="81"/>
      <point x="485" y="219" type="curve" smooth="yes"/>
      <point x="485" y="362"/>
      <point x="491" y="568"/>
      <point x="491" y="568" type="curve"/>
      <point x="332" y="565" type="line"/>
      <point x="333" y="494" type="line"/>
      <point x="313" y="532"/>
      <point x="283" y="566"/>
      <point x="216" y="566" type="curve" smooth="yes"/>
      <point x="147" y="566"/>
      <point x="99" y="533"/>
      <point x="68" y="478" type="curve" smooth="yes"/>
      <point x="40" y="427"/>
      <point x="27" y="356"/>
    </contour>
    <contour>
      <point x="194" y="281" type="curve" smooth="yes"/>
      <point x="194" y="325"/>
      <point x="197" y="363"/>
      <point x="205" y="390" type="curve" smooth="yes"/>
      <point x="214" y="421"/>
      <point x="230" y="439"/>
      <point x="256" y="439" type="curve" smooth="yes"/>
      <point x="282" y="439"/>
      <point x="300" y="417"/>
      <point x="310" y="378" type="curve" smooth="yes"/>
      <point x="317" y="352"/>
      <point x="320" y="319"/>
      <point x="320" y="280" type="curve" smooth="yes"/>
      <point x="320" y="236"/>
      <point x="318" y="198"/>
      <point x="311" y="169" type="curve" smooth="yes"/>
      <point x="303" y="131"/>
      <point x="287" y="108"/>
      <point x="260" y="108" type="curve" smooth="yes"/>
      <point x="234" y="108"/>
      <point x="216" y="131"/>
      <point x="205" y="171" type="curve" smooth="yes"/>
      <point x="198" y="200"/>
      <point x="194" y="237"/>
    </contour>
  </outline>
</glyph>
<glyph name="r" format="2">
  <advance width="442"/>
  <unicode hex="0072"/>
  <anchor x="115" y="0" name="bottom"/>
  <anchor x="249" y="564" name="top"/>
  <outline>
    <contour>
      <point x="271" y="247" type="curve"/>
      <point x="425" y="248" type="line"/>
      <point x="444" y="300"/>
      <point x="455" y="353"/>
      <point x="455" y="400" type="curve" smooth="yes"/>
      <point x="455" y="496"/>
      <point x="411" y="571"/>
      <point x="311" y="571" type="curve" smooth="yes"/>
      <point x="207" y="571"/>
      <point x="141" y="487"/>
      <point x="141" y="273" type="curve"/>
      <point x="198" y="316" type="line"/>
      <point x="197" y="379"/>
      <point x="204" y="445"/>
      <point x="253" y="445" type="curve" smooth="yes"/>
      <point x="285" y="445"/>
      <point x="294" y="425"/>
      <point x="294" y="388" type="curve" smooth="yes"/>
      <point x="294" y="344"/>
      <point x="284" y="295"/>
    </contour>
    <contour>
      <point x="20" y="-2" type="curve"/>
      <point x="202" y="0" type="line"/>
      <point x="200" y="98"/>
      <point x="198" y="202"/>
      <point x="198" y="316" type="curve"/>
      <point x="191" y="431"/>
      <point x="189" y="507"/>
      <point x="188" y="567" type="curve"/>
      <point x="21" y="560" type="line"/>
      <point x="25" y="507"/>
      <point x="32" y="414"/>
      <point x="29" y="285" type="curve" smooth="yes"/>
      <point x="27" y="185"/>
      <point x="25" y="98"/>
    </contour>
  </outline>
</glyph>
<glyph name="s" format="2">
  <advance width="450"/>
  <unicode hex="0073"/>
  <anchor x="233" y="0" name="bottom"/>
  <anchor x="223" y="555" name="top"/>
  <outline>
    <contour>
      <point x="216" y="-10" type="curve"/>
      <point x="381" y="-10"/>
      <point x="448" y="54"/>
      <point x="448" y="145" type="curve" smooth="yes"/>
      <point x="448" y="270"/>
      <point x="360" y="293"/>
      <point x="231" y="345" type="curve" smooth="yes"/>
      <point x="181" y="365"/>
      <point x="173" y="380"/>
      <point x="173" y="407" type="curve" smooth="yes"/>
      <point x="173" y="433"/>
      <point x="190" y="452"/>
      <point x="224" y="452" type="curve" smooth="yes"/>
      <point x="259" y="452"/>
      <point x="275" y="432"/>
      <point x="275" y="395" type="curve" smooth="yes"/>
      <point x="275" y="382"/>
      <point x="273" y="367"/>
      <point x="269" y="349" type="curve"/>
      <point x="438" y="349" type="line"/>
      <point x="442" y="368"/>
      <point x="444" y="386"/>
      <point x="444" y="403" type="curve" smooth="yes"/>
      <point x="444" y="512"/>
      <point x="363" y="573"/>
      <point x="230" y="573" type="curve" smooth="yes"/>
      <point x="77" y="573"/>
      <point x="3" y="497"/>
      <point x="3" y="395" type="curve" smooth="yes"/>
      <point x="3" y="270"/>
      <point x="98" y="233"/>
      <point x="186" y="199" type="curve" smooth="yes"/>
      <point x="245" y="176"/>
      <point x="275" y="171"/>
      <point x="275" y="144" type="curve" smooth="yes"/>
      <point x="275" y="121"/>
      <point x="252" y="113"/>
      <point x="224" y="113" type="curve" smooth="yes"/>
      <point x="190" y="113"/>
      <point x="173" y="127"/>
      <point x="173" y="156" type="curve" smooth="yes"/>
      <point x="173" y="163"/>
      <point x="174" y="171"/>
      <point x="176" y="179" type="curve"/>
      <point x="7" y="178" type="line"/>
      <point x="5" y="165"/>
      <point x="4" y="153"/>
      <point x="4" y="142" type="curve" smooth="yes"/>
      <point x="4" y="37"/>
      <point x="85" y="-10"/>
    </contour>
  </outline>
</glyph>
<glyph name="t" format="2">
  <advance width="463"/>
  <unicode hex="0074"/>
  <anchor x="237" y="0" name="bottom"/>
  <anchor x="195" y="361" name="center"/>
  <anchor x="259" y="555" name="topright"/>
  <outline>
    <contour>
      <point x="226" y="-10" type="curve" smooth="yes"/>
      <point x="400" y="-10"/>
      <point x="456" y="87"/>
      <point x="456" y="205" type="curve" smooth="yes"/>
      <point x="456" y="235"/>
      <point x="452" y="266"/>
      <point x="446" y="297" type="curve"/>
      <point x="280" y="298" type="line"/>
      <point x="287" y="264"/>
      <point x="292" y="228"/>
      <point x="292" y="194" type="curve" smooth="yes"/>
      <point x="292" y="151"/>
      <point x="284" y="115"/>
      <point x="248" y="115" type="curve" smooth="yes"/>
      <point x="213" y="115"/>
      <point x="213" y="148"/>
      <point x="213" y="191" type="curve" smooth="yes"/>
      <point x="213" y="218"/>
      <point x="214" y="257"/>
      <point x="216" y="288" type="curve" smooth="yes"/>
      <point x="222" y="385"/>
      <point x="231" y="513"/>
      <point x="234" y="641" type="curve"/>
      <point x="59" y="640" type="line"/>
      <point x="59" y="516"/>
      <point x="50" y="400"/>
      <point x="44" y="298" type="curve" smooth="yes"/>
      <point x="42" y="267"/>
      <point x="40" y="235"/>
      <point x="40" y="205" type="curve" smooth="yes"/>
      <point x="40" y="91"/>
      <point x="68" y="-10"/>
    </contour>
    <contour>
      <point x="-8" y="420" type="line"/>
      <point x="-8" y="420"/>
      <point x="93" y="426"/>
      <point x="143" y="427" type="curve" smooth="yes"/>
      <point x="193" y="428"/>
      <point x="437" y="430"/>
      <point x="437" y="430" type="curve"/>
      <point x="441" y="555" type="line"/>
      <point x="441" y="555"/>
      <point x="178" y="552"/>
      <point x="129" y="552" type="curve" smooth="yes"/>
      <point x="100" y="552"/>
      <point x="24" y="553"/>
      <point x="2" y="553" type="curve"/>
    </contour>
  </outline>
</glyph>
<glyph name="v" format="2">
  <advance width="454"/>
  <unicode hex="0076"/>
  <outline>
    <contour>
      <point x="-11" y="566" type="line"/>
      <point x="8" y="496"/>
      <point x="35" y="390"/>
      <point x="64" y="277" type="curve" smooth="yes"/>
      <point x="88" y="184"/>
      <point x="115" y="86"/>
      <point x="135" y="0" type="curve"/>
      <point x="316" y="-4" type="line"/>
      <point x="336" y="79"/>
      <point x="363" y="176"/>
      <point x="389" y="275" type="curve" smooth="yes"/>
      <point x="415" y="373"/>
      <point x="442" y="472"/>
      <point x="467" y="562" type="curve"/>
      <point x="293" y="555" type="line"/>
      <point x="285" y="501"/>
      <point x="275" y="439"/>
      <point x="265" y="378" type="curve" smooth="yes"/>
      <point x="252" y="298"/>
      <point x="238" y="220"/>
      <point x="228" y="166" type="curve"/>
      <point x="219" y="218"/>
      <point x="207" y="291"/>
      <point x="196" y="368" type="curve" smooth="yes"/>
      <point x="186" y="435"/>
      <point x="176" y="504"/>
      <point x="169" y="566" type="curve"/>
    </contour>
  </outline>
</glyph>
<glyph name="w" format="2">
  <advance width="747"/>
  <unicode hex="0077"/>
  <anchor x="375" y="555" name="top"/>
  <outline>
    <contour>
      <point x="149" y="0" type="curve"/>
      <point x="330" y="-4" type="line"/>
      <point x="333" y="23"/>
      <point x="344" y="92"/>
      <point x="358" y="170" type="curve" smooth="yes"/>
      <point x="365" y="210"/>
      <point x="371" y="251"/>
      <point x="377" y="290" type="curve"/>
      <point x="383" y="243"/>
      <point x="390" y="202"/>
      <point x="396" y="164" type="curve" smooth="yes"/>
      <point x="405" y="107"/>
      <point x="414" y="55"/>
      <point x="422" y="-4" type="curve"/>
      <point x="604" y="0" type="line"/>
      <point x="615" y="50"/>
      <point x="647" y="174"/>
      <point x="678" y="296" type="curve" smooth="yes"/>
      <point x="706" y="407"/>
      <point x="734" y="515"/>
      <point x="747" y="562" type="curve"/>
      <point x="570" y="562" type="line"/>
      <point x="558" y="475"/>
      <point x="547" y="401"/>
      <point x="536" y="334" type="curve" smooth="yes"/>
      <point x="526" y="275"/>
      <point x="517" y="222"/>
      <point x="508" y="173" type="curve"/>
      <point x="501" y="214"/>
      <point x="495" y="255"/>
      <point x="489" y="298" type="curve" smooth="yes"/>
      <point x="480" y="364"/>
      <point x="471" y="435"/>
      <point x="462" y="517" type="curve"/>
      <point x="293" y="517" type="line"/>
      <point x="283" y="434"/>
      <point x="274" y="368"/>
      <point x="266" y="308" type="curve" smooth="yes"/>
      <point x="260" y="262"/>
      <point x="253" y="219"/>
      <point x="245" y="173" type="curve"/>
      <point x="236" y="219"/>
      <point x="228" y="267"/>
      <point x="219" y="321" type="curve" smooth="yes"/>
      <point x="208" y="389"/>
      <point x="196" y="465"/>
      <point x="183" y="555" type="curve"/>
      <point x="6" y="555" type="line"/>
      <point x="26" y="479"/>
      <point x="54" y="376"/>
      <point x="81" y="273" type="curve" smooth="yes"/>
      <point x="107" y="175"/>
      <point x="131" y="76"/>
    </contour>
  </outline>
</glyph>
<glyph name="x" format="2">
  <advance width="416"/>
  <unicode hex="0078"/>
  <outline>
    <contour>
      <point x="129" y="-4" type="line"/>
      <point x="189" y="103"/>
      <point x="219" y="156"/>
      <point x="293" y="281" type="curve" smooth="yes"/>
      <point x="366" y="405"/>
      <point x="391" y="455"/>
      <point x="452" y="558" type="curve"/>
      <point x="278" y="558" type="line"/>
      <point x="260" y="524"/>
      <point x="201" y="418"/>
      <point x="138" y="308" type="curve" smooth="yes"/>
      <point x="57" y="166"/>
      <point x="-30" y="15"/>
      <point x="-41" y="-2" type="curve"/>
    </contour>
    <contour>
      <point x="301" y="0" type="curve"/>
      <point x="469" y="3" type="line"/>
      <point x="457" y="20"/>
      <point x="369" y="168"/>
      <point x="286" y="310" type="curve" smooth="yes"/>
      <point x="225" y="414"/>
      <point x="167" y="515"/>
      <point x="143" y="558" type="curve"/>
      <point x="-38" y="555" type="line"/>
      <point x="22" y="459"/>
      <point x="53" y="402"/>
      <point x="129" y="281" type="curve" smooth="yes"/>
      <point x="205" y="160"/>
      <point x="251" y="85"/>
    </contour>
  </outline>
</glyph>
<glyph name="y" format="2">
  <advance width="464"/>
  <unicode hex="0079"/>
  <anchor x="392" y="31" name="bottom"/>
  <anchor x="231" y="556" name="top"/>
  <outline>
    <contour>
      <point x="276" y="-163" type="line"/>
      <point x="305" y="-50"/>
      <point x="357" y="127"/>
      <point x="408" y="288" type="curve" smooth="yes"/>
      <point x="442" y="395"/>
      <point x="474" y="494"/>
      <point x="498" y="564" type="curve"/>
      <point x="317" y="564" type="line"/>
      <point x="290" y="441"/>
      <point x="264" y="322"/>
      <point x="228" y="197" type="curve" smooth="yes"/>
      <point x="196" y="86"/>
      <point x="154" y="-30"/>
      <point x="109" y="-155" type="curve"/>
    </contour>
    <contour>
      <point x="183" y="-34" type="curve"/>
      <point x="302" y="46" type="line"/>
      <point x="268" y="151"/>
      <point x="240" y="239"/>
      <point x="215" y="324" type="curve" smooth="yes"/>
      <point x="192" y="401"/>
      <point x="171" y="475"/>
      <point x="148" y="554" type="curve"/>
      <point x="-37" y="552" type="line"/>
      <point x="-4" y="470"/>
      <point x="35" y="371"/>
      <point x="72" y="271" type="curve" smooth="yes"/>
      <point x="111" y="165"/>
      <point x="152" y="57"/>
    </contour>
  </outline>
</glyph>
<glyph name="z" format="2">
  <advance width="377"/>
  <unicode hex="007A"/>
  <anchor x="178" y="555" name="top"/>
  <outline>
    <contour>
      <point x="103" y="10" type="line"/>
      <point x="144" y="75"/>
      <point x="197" y="156"/>
      <point x="249" y="233" type="curve" smooth="yes"/>
      <point x="293" y="300"/>
      <point x="336" y="365"/>
      <point x="368" y="413" type="curve"/>
      <point x="252" y="535" type="line"/>
      <point x="218" y="477"/>
      <point x="166" y="391"/>
      <point x="111" y="307" type="curve" smooth="yes"/>
      <point x="71" y="244"/>
      <point x="30" y="182"/>
      <point x="-5" y="132" type="curve"/>
    </contour>
    <contour>
      <point x="-4" y="-4" type="line"/>
      <point x="-4" y="-4"/>
      <point x="95" y="0"/>
      <point x="185" y="0" type="curve"/>
      <point x="229" y="-1"/>
      <point x="372" y="0"/>
      <point x="372" y="0" type="curve"/>
      <point x="377" y="134" type="line"/>
      <point x="377" y="134"/>
      <point x="254" y="132"/>
      <point x="200" y="131" type="curve"/>
      <point x="112" y="131"/>
      <point x="-5" y="132"/>
      <point x="-5" y="132" type="curve"/>
    </contour>
    <contour>
      <point x="-2" y="413" type="line"/>
      <point x="-2" y="413"/>
      <point x="114" y="415"/>
      <point x="169" y="415" type="curve"/>
      <point x="268" y="415"/>
      <point x="368" y="413"/>
      <point x="368" y="413" type="curve"/>
      <point x="365" y="555" type="line"/>
      <point x="365" y="555"/>
      <point x="267" y="552"/>
      <point x="185" y="552" type="curve"/>
      <point x="135" y="551"/>
      <point x="3" y="552"/>
      <point x="3" y="552" type="curve"/>
    </contour>
  </outline>
</glyph>
<glyph name="braceleft" format="2">
  <advance width="654"/>
  <unicode hex="007B"/>
  <outline>
    <contour>
      <point x="389" y="-147" type="curve" smooth="yes"/>
      <point x="444" y="-147"/>
      <point x="506" y="-135"/>
      <point x="569" y="-112" type="curve"/>
      <point x="545" y="17" type="line"/>
      <point x="486" y="-7"/>
      <point x="436" y="-23"/>
      <point x="400" y="-23" type="curve" smooth="yes"/>
      <point x="362" y="-23"/>
      <point x="340" y="-4"/>
      <point x="340" y="44" type="curve" smooth="yes"/>
      <point x="340" y="67"/>
      <point x="361" y="131"/>
      <point x="361" y="177" type="curve" smooth="yes"/>
      <point x="361" y="228"/>
      <point x="322" y="255"/>
      <point x="267" y="279" type="curve"/>
      <point x="321" y="300"/>
      <point x="359" y="322"/>
      <point x="359" y="374" type="curve" smooth="yes"/>
      <point x="359" y="432"/>
      <point x="328" y="498"/>
      <point x="328" y="532" type="curve" smooth="yes"/>
      <point x="328" y="579"/>
      <point x="358" y="597"/>
      <point x="399" y="597" type="curve" smooth="yes"/>
      <point x="436" y="597"/>
      <point x="482" y="583"/>
      <point x="525" y="560" type="curve"/>
      <point x="555" y="685" type="line"/>
      <point x="496" y="708"/>
      <point x="435" y="721"/>
      <point x="379" y="721" type="curve" smooth="yes"/>
      <point x="257" y="721"/>
      <point x="171" y="670"/>
      <point x="171" y="550" type="curve" smooth="yes"/>
      <point x="171" y="493"/>
      <point x="203" y="443"/>
      <point x="203" y="384" type="curve" smooth="yes"/>
      <point x="203" y="335"/>
      <point x="143" y="316"/>
      <point x="73" y="323" type="curve"/>
      <point x="85" y="224" type="line"/>
      <point x="149" y="231"/>
      <point x="203" y="212"/>
      <point x="203" y="161" type="curve" smooth="yes"/>
      <point x="203" y="112"/>
      <point x="181" y="73"/>
      <point x="181" y="23" type="curve" smooth="yes"/>
      <point x="181" y="-96"/>
      <point x="265" y="-147"/>
    </contour>
  </outline>
</glyph>
<glyph name="bar" format="2">
  <advance width="289"/>
  <unicode hex="007C"/>
  <outline>
    <contour>
      <point x="215" y="-136" type="line"/>
      <point x="209" y="-22"/>
      <point x="205" y="112"/>
      <point x="205" y="289" type="curve" smooth="yes"/>
      <point x="205" y="467"/>
      <point x="211" y="589"/>
      <point x="214" y="694" type="curve"/>
      <point x="75" y="693" type="line"/>
      <point x="74" y="590"/>
      <point x="77" y="462"/>
      <point x="77" y="288" type="curve" smooth="yes"/>
      <point x="77" y="113"/>
      <point x="74" y="0"/>
      <point x="74" y="-134" type="curve"/>
    </contour>
  </outline>
</glyph>
<glyph name="braceright" format="2">
  <advance width="654"/>
  <unicode hex="007D"/>
  <outline>
    <contour>
      <point x="275" y="-147" type="curve" smooth="yes"/>
      <point x="397" y="-147"/>
      <point x="483" y="-96"/>
      <point x="483" y="24" type="curve" smooth="yes"/>
      <point x="483" y="81"/>
      <point x="451" y="131"/>
      <point x="451" y="190" type="curve" smooth="yes"/>
      <point x="451" y="239"/>
      <point x="511" y="258"/>
      <point x="581" y="251" type="curve"/>
      <point x="569" y="350" type="line"/>
      <point x="505" y="343"/>
      <point x="451" y="362"/>
      <point x="451" y="413" type="curve" smooth="yes"/>
      <point x="451" y="462"/>
      <point x="473" y="501"/>
      <point x="473" y="551" type="curve" smooth="yes"/>
      <point x="473" y="670"/>
      <point x="389" y="721"/>
      <point x="265" y="721" type="curve" smooth="yes"/>
      <point x="210" y="721"/>
      <point x="148" y="709"/>
      <point x="85" y="686" type="curve"/>
      <point x="109" y="557" type="line"/>
      <point x="168" y="581"/>
      <point x="218" y="597"/>
      <point x="254" y="597" type="curve" smooth="yes"/>
      <point x="292" y="597"/>
      <point x="314" y="578"/>
      <point x="314" y="530" type="curve" smooth="yes"/>
      <point x="314" y="507"/>
      <point x="293" y="443"/>
      <point x="293" y="397" type="curve" smooth="yes"/>
      <point x="293" y="346"/>
      <point x="332" y="319"/>
      <point x="387" y="295" type="curve"/>
      <point x="333" y="274"/>
      <point x="295" y="252"/>
      <point x="295" y="200" type="curve" smooth="yes"/>
      <point x="295" y="142"/>
      <point x="326" y="76"/>
      <point x="326" y="42" type="curve" smooth="yes"/>
      <point x="326" y="-5"/>
      <point x="296" y="-23"/>
      <point x="255" y="-23" type="curve" smooth="yes"/>
      <point x="218" y="-23"/>
      <point x="172" y="-9"/>
      <point x="129" y="14" type="curve"/>
      <point x="99" y="-111" type="line"/>
      <point x="158" y="-134"/>
      <point x="219" y="-147"/>
    </contour>
  </outline>
</glyph>
<glyph name="asciitilde" format="2">
  <advance width="638"/>
  <unicode hex="007E"/>
  <outline>
    <contour>
      <point x="29" y="239" type="line"/>
      <point x="52" y="249"/>
      <point x="120" y="269"/>
      <point x="176" y="269" type="curve" smooth="yes"/>
      <point x="244" y="269"/>
      <point x="325" y="243"/>
      <point x="392" y="243" type="curve" smooth="yes"/>
      <point x="497" y="243"/>
      <point x="562" y="274"/>
      <point x="581" y="286" type="curve"/>
      <point x="574" y="389" type="line"/>
      <point x="525" y="365"/>
      <point x="471" y="345"/>
      <point x="381" y="345" type="curve" smooth="yes"/>
      <point x="311" y="345"/>
      <point x="283" y="373"/>
      <point x="185" y="373" type="curve" smooth="yes"/>
      <point x="105" y="373"/>
      <point x="59" y="351"/>
      <point x="21" y="335" type="curve"/>
    </contour>
  </outline>
</glyph>
<glyph name="exclamdown" format="2">
  <advance width="369"/>
  <unicode hex="00A1"/>
  <outline>
    <contour>
      <point x="79" y="-158" type="curve"/>
      <point x="255" y="-150" type="line"/>
      <point x="250" y="-44"/>
      <point x="246" y="1"/>
      <point x="243" y="70" type="curve" smooth="yes"/>
      <point x="240" y="141"/>
      <point x="236" y="214"/>
      <point x="232" y="323" type="curve"/>
      <point x="110" y="321" type="line"/>
      <point x="106" y="200"/>
      <point x="103" y="145"/>
      <point x="98" y="76" type="curve" smooth="yes"/>
      <point x="92" y="-9"/>
      <point x="90" y="-37"/>
    </contour>
    <contour>
      <point x="98" y="382" type="line"/>
      <point x="248" y="385" type="line"/>
      <point x="252" y="554" type="line"/>
      <point x="87" y="544" type="line"/>
    </contour>
  </outline>
</glyph>
<glyph name="cent" format="2">
  <advance width="640"/>
  <unicode hex="00A2"/>
  <outline>
    <contour>
      <point x="307" y="28" type="curve" smooth="yes"/>
      <point x="443" y="28"/>
      <point x="525" y="80"/>
      <point x="525" y="199" type="curve" smooth="yes"/>
      <point x="525" y="208"/>
      <point x="525" y="218"/>
      <point x="524" y="228" type="curve"/>
      <point x="356" y="228" type="line"/>
      <point x="358" y="217"/>
      <point x="359" y="208"/>
      <point x="359" y="199" type="curve" smooth="yes"/>
      <point x="359" y="170"/>
      <point x="347" y="153"/>
      <point x="312" y="153" type="curve" smooth="yes"/>
      <point x="285" y="153"/>
      <point x="273" y="167"/>
      <point x="267" y="195" type="curve" smooth="yes"/>
      <point x="260" y="227"/>
      <point x="261" y="332"/>
      <point x="268" y="362" type="curve" smooth="yes"/>
      <point x="275" y="390"/>
      <point x="288" y="405"/>
      <point x="316" y="405" type="curve" smooth="yes"/>
      <point x="346" y="405"/>
      <point x="354" y="379"/>
      <point x="354" y="351" type="curve" smooth="yes"/>
      <point x="354" y="337"/>
      <point x="352" y="322"/>
      <point x="349" y="309" type="curve"/>
      <point x="519" y="306" type="line"/>
      <point x="523" y="325"/>
      <point x="525" y="344"/>
      <point x="525" y="361" type="curve" smooth="yes"/>
      <point x="525" y="458"/>
      <point x="460" y="524"/>
      <point x="321" y="524" type="curve" smooth="yes"/>
      <point x="246" y="524"/>
      <point x="191" y="503"/>
      <point x="153" y="465" type="curve" smooth="yes"/>
      <point x="73" y="385"/>
      <point x="68" y="188"/>
      <point x="137" y="99" type="curve" smooth="yes"/>
      <point x="172" y="54"/>
      <point x="226" y="28"/>
    </contour>
    <contour>
      <point x="356" y="-45" type="line"/>
      <point x="350" y="69"/>
      <point x="347" y="159"/>
      <point x="347" y="311" type="curve" smooth="yes"/>
      <point x="347" y="462"/>
      <point x="353" y="500"/>
      <point x="360" y="604" type="curve"/>
      <point x="272" y="608" type="line"/>
      <point x="273" y="524"/>
      <point x="275" y="549"/>
      <point x="275" y="322" type="curve" smooth="yes"/>
      <point x="275" y="96"/>
      <point x="273" y="43"/>
      <point x="268" y="-44" type="curve"/>
    </contour>
  </outline>
</glyph>
<glyph name="sterling" format="2">
  <advance width="640"/>
  <unicode hex="00A3"/>
  <outline>
    <contour>
      <point x="248" y="66" type="line"/>
      <point x="305" y="97"/>
      <point x="340" y="129"/>
      <point x="340" y="184" type="curve" smooth="yes"/>
      <point x="340" y="307"/>
      <point x="244" y="385"/>
      <point x="244" y="488" type="curve" smooth="yes"/>
      <point x="244" y="544"/>
      <point x="284" y="566"/>
      <point x="338" y="566" type="curve" smooth="yes"/>
      <point x="389" y="566"/>
      <point x="421" y="547"/>
      <point x="421" y="504" type="curve" smooth="yes"/>
      <point x="421" y="483"/>
      <point x="417" y="460"/>
      <point x="410" y="435" type="curve"/>
      <point x="578" y="436" type="line"/>
      <point x="587" y="468"/>
      <point x="591" y="497"/>
      <point x="591" y="524" type="curve" smooth="yes"/>
      <point x="591" y="638"/>
      <point x="514" y="706"/>
      <point x="337" y="706" type="curve" smooth="yes"/>
      <point x="190" y="706"/>
      <point x="73" y="625"/>
      <point x="73" y="487" type="curve" smooth="yes"/>
      <point x="73" y="355"/>
      <point x="172" y="294"/>
      <point x="172" y="186" type="curve" smooth="yes"/>
      <point x="172" y="142"/>
      <point x="135" y="126"/>
      <point x="83" y="109" type="curve"/>
    </contour>
    <contour>
      <point x="96" y="-4" type="line"/>
      <point x="93" y="-4"/>
      <point x="203" y="0"/>
      <point x="333" y="0" type="curve" smooth="yes"/>
      <point x="391" y="0"/>
      <point x="581" y="-1"/>
      <point x="578" y="-1" type="curve"/>
      <point x="583" y="112" type="line"/>
      <point x="536" y="111"/>
      <point x="410" y="107"/>
      <point x="345" y="107" type="curve" smooth="yes"/>
      <point x="205" y="107"/>
      <point x="172" y="108"/>
      <point x="83" y="109" type="curve"/>
    </contour>
    <contour>
      <point x="30" y="241" type="line"/>
      <point x="106" y="245"/>
      <point x="205" y="248"/>
      <point x="306" y="248" type="curve" smooth="yes"/>
      <point x="423" y="248"/>
      <point x="480" y="245"/>
      <point x="480" y="245" type="curve"/>
      <point x="499" y="354" type="line"/>
      <point x="416" y="350"/>
      <point x="292" y="347"/>
      <point x="236" y="347" type="curve" smooth="yes"/>
      <point x="199" y="347"/>
      <point x="120" y="347"/>
      <point x="56" y="348" type="curve"/>
    </contour>
  </outline>
</glyph>
<glyph name="currency" format="2">
  <advance width="640"/>
  <unicode hex="00A4"/>
  <outline>
    <contour>
      <point x="309" y="40" type="curve" smooth="yes"/>
      <point x="498" y="40"/>
      <point x="591" y="160"/>
      <point x="591" y="284" type="curve" smooth="yes"/>
      <point x="591" y="421"/>
      <point x="495" y="517"/>
      <point x="326" y="517" type="curve" smooth="yes"/>
      <point x="155" y="517"/>
      <point x="51" y="409"/>
      <point x="51" y="270" type="curve" smooth="yes"/>
      <point x="51" y="148"/>
      <point x="133" y="40"/>
    </contour>
    <contour>
      <point x="96" y="-14" type="line"/>
      <point x="182" y="91" type="line"/>
      <point x="111" y="162" type="line"/>
      <point x="14" y="62" type="line"/>
    </contour>
    <contour>
      <point x="107" y="390" type="line"/>
      <point x="181" y="458" type="line"/>
      <point x="97" y="562" type="line"/>
      <point x="14" y="487" type="line"/>
    </contour>
    <contour>
      <point x="317" y="165" type="curve" smooth="yes"/>
      <point x="236" y="165"/>
      <point x="193" y="215"/>
      <point x="193" y="277" type="curve" smooth="yes"/>
      <point x="193" y="333"/>
      <point x="233" y="390"/>
      <point x="322" y="390" type="curve" smooth="yes"/>
      <point x="406" y="390"/>
      <point x="449" y="348"/>
      <point x="449" y="276" type="curve" smooth="yes"/>
      <point x="449" y="207"/>
      <point x="401" y="165"/>
    </contour>
    <contour>
      <point x="544" y="-13" type="line"/>
      <point x="626" y="63" type="line"/>
      <point x="530" y="161" type="line"/>
      <point x="457" y="93" type="line"/>
    </contour>
    <contour>
      <point x="530" y="385" type="line"/>
      <point x="626" y="486" type="line"/>
      <point x="544" y="561" type="line"/>
      <point x="458" y="455" type="line"/>
    </contour>
  </outline>
</glyph>
<glyph name="yen" format="2">
  <advance width="640"/>
  <unicode hex="00A5"/>
  <outline>
    <contour>
      <point x="227" y="0" type="line"/>
      <point x="407" y="1" type="line"/>
      <point x="401" y="204" type="line"/>
      <point x="426" y="265"/>
      <point x="459" y="346"/>
      <point x="492" y="427" type="curve" smooth="yes"/>
      <point x="535" y="531"/>
      <point x="578" y="635"/>
      <point x="605" y="698" type="curve"/>
      <point x="416" y="694" type="line"/>
      <point x="399" y="632"/>
      <point x="382" y="578"/>
      <point x="365" y="525" type="curve" smooth="yes"/>
      <point x="351" y="481"/>
      <point x="335" y="438"/>
      <point x="318" y="392" type="curve"/>
      <point x="301" y="442"/>
      <point x="288" y="484"/>
      <point x="275" y="527" type="curve" smooth="yes"/>
      <point x="259" y="579"/>
      <point x="245" y="632"/>
      <point x="227" y="704" type="curve"/>
      <point x="36" y="704" type="line"/>
      <point x="60" y="646"/>
      <point x="96" y="554"/>
      <point x="133" y="460" type="curve" smooth="yes"/>
      <point x="168" y="372"/>
      <point x="203" y="281"/>
      <point x="229" y="212" type="curve"/>
    </contour>
    <contour>
      <point x="80" y="83" type="line"/>
      <point x="142" y="86"/>
      <point x="250" y="90"/>
      <point x="319" y="90" type="curve" smooth="yes"/>
      <point x="389" y="90"/>
      <point x="481" y="89"/>
      <point x="531" y="88" type="curve"/>
      <point x="545" y="186" type="line"/>
      <point x="487" y="184"/>
      <point x="384" y="181"/>
      <point x="318" y="179" type="curve" smooth="yes"/>
      <point x="256" y="177"/>
      <point x="154" y="178"/>
      <point x="95" y="179" type="curve"/>
    </contour>
    <contour>
      <point x="83" y="215" type="line"/>
      <point x="145" y="218"/>
      <point x="253" y="222"/>
      <point x="322" y="222" type="curve" smooth="yes"/>
      <point x="392" y="222"/>
      <point x="484" y="220"/>
      <point x="534" y="219" type="curve"/>
      <point x="548" y="317" type="line"/>
      <point x="490" y="315"/>
      <point x="387" y="312"/>
      <point x="321" y="311" type="curve" smooth="yes"/>
      <point x="259" y="310"/>
      <point x="157" y="310"/>
      <point x="98" y="311" type="curve"/>
    </contour>
  </outline>
</glyph>
<glyph name="section" format="2">
  <advance width="528"/>
  <unicode hex="00A7"/>
  <outline>
    <contour>
      <point x="264" y="711" type="curve" smooth="yes"/>
      <point x="130" y="711"/>
      <point x="40" y="638"/>
      <point x="40" y="530" type="curve" smooth="yes"/>
      <point x="40" y="431"/>
      <point x="91" y="371"/>
      <point x="201" y="335" type="curve" smooth="yes"/>
      <point x="280" y="313"/>
      <point x="334" y="305"/>
      <point x="334" y="280" type="curve" smooth="yes"/>
      <point x="334" y="249"/>
      <point x="305" y="241"/>
      <point x="223" y="250" type="curve"/>
      <point x="233" y="154" type="line"/>
      <point x="370" y="123"/>
      <point x="487" y="188"/>
      <point x="487" y="296" type="curve" smooth="yes"/>
      <point x="487" y="399"/>
      <point x="394" y="425"/>
      <point x="317" y="447" type="curve" smooth="yes"/>
      <point x="245" y="469"/>
      <point x="195" y="481"/>
      <point x="195" y="539" type="curve" smooth="yes"/>
      <point x="195" y="582"/>
      <point x="219" y="607"/>
      <point x="261" y="607" type="curve" smooth="yes"/>
      <point x="304" y="607"/>
      <point x="328" y="577"/>
      <point x="328" y="520" type="curve" smooth="yes"/>
      <point x="328" y="497"/>
      <point x="325" y="479"/>
      <point x="321" y="467" type="curve"/>
      <point x="477" y="467" type="line"/>
      <point x="482" y="489"/>
      <point x="485" y="509"/>
      <point x="485" y="530" type="curve" smooth="yes"/>
      <point x="485" y="643"/>
      <point x="402" y="711"/>
    </contour>
    <contour>
      <point x="263" y="-119" type="curve" smooth="yes"/>
      <point x="397" y="-119"/>
      <point x="487" y="-46"/>
      <point x="487" y="62" type="curve" smooth="yes"/>
      <point x="487" y="161"/>
      <point x="436" y="221"/>
      <point x="326" y="257" type="curve" smooth="yes"/>
      <point x="247" y="279"/>
      <point x="193" y="287"/>
      <point x="193" y="312" type="curve" smooth="yes"/>
      <point x="193" y="343"/>
      <point x="222" y="351"/>
      <point x="304" y="342" type="curve"/>
      <point x="294" y="438" type="line"/>
      <point x="157" y="469"/>
      <point x="40" y="404"/>
      <point x="40" y="296" type="curve" smooth="yes"/>
      <point x="40" y="192"/>
      <point x="135" y="166"/>
      <point x="213" y="144" type="curve" smooth="yes"/>
      <point x="287" y="123"/>
      <point x="332" y="107"/>
      <point x="332" y="53" type="curve" smooth="yes"/>
      <point x="332" y="10"/>
      <point x="308" y="-15"/>
      <point x="266" y="-15" type="curve" smooth="yes"/>
      <point x="223" y="-15"/>
      <point x="199" y="15"/>
      <point x="199" y="72" type="curve" smooth="yes"/>
      <point x="199" y="95"/>
      <point x="202" y="113"/>
      <point x="206" y="125" type="curve"/>
      <point x="50" y="125" type="line"/>
      <point x="45" y="103"/>
      <point x="42" y="83"/>
      <point x="42" y="62" type="curve" smooth="yes"/>
      <point x="42" y="-51"/>
      <point x="125" y="-119"/>
    </contour>
  </outline>
</glyph>
<glyph name="ordfeminine" format="2">
  <advance width="410"/>
  <unicode hex="00AA"/>
  <outline>
    <contour>
      <point x="69" y="534" type="curve" smooth="yes"/>
      <point x="69" y="492"/>
      <point x="110" y="472"/>
      <point x="156" y="472" type="curve" smooth="yes"/>
      <point x="193" y="472"/>
      <point x="233" y="484"/>
      <point x="259" y="508" type="curve"/>
      <point x="264" y="495"/>
      <point x="270" y="482"/>
      <point x="286" y="472" type="curve"/>
      <point x="354" y="500" type="line"/>
      <point x="341" y="511"/>
      <point x="337" y="531"/>
      <point x="337" y="545" type="curve" smooth="yes"/>
      <point x="337" y="619" type="line" smooth="yes"/>
      <point x="337" y="674"/>
      <point x="296" y="703"/>
      <point x="211" y="703" type="curve" smooth="yes"/>
      <point x="116" y="703"/>
      <point x="75" y="665"/>
      <point x="78" y="618" type="curve"/>
      <point x="150" y="618" type="line"/>
      <point x="147" y="635"/>
      <point x="158" y="653"/>
      <point x="206" y="653" type="curve" smooth="yes"/>
      <point x="242" y="653"/>
      <point x="256" y="644"/>
      <point x="256" y="631" type="curve" smooth="yes"/>
      <point x="256" y="611"/>
      <point x="221" y="609"/>
      <point x="180" y="603" type="curve" smooth="yes"/>
      <point x="129" y="595"/>
      <point x="69" y="587"/>
    </contour>
    <contour>
      <point x="149" y="539" type="curve" smooth="yes"/>
      <point x="149" y="554"/>
      <point x="167" y="556"/>
      <point x="189" y="561" type="curve" smooth="yes"/>
      <point x="213" y="566"/>
      <point x="241" y="570"/>
      <point x="255" y="577" type="curve"/>
      <point x="255" y="566" type="line" smooth="yes"/>
      <point x="255" y="536"/>
      <point x="216" y="523"/>
      <point x="185" y="523" type="curve" smooth="yes"/>
      <point x="165" y="523"/>
      <point x="149" y="528"/>
    </contour>
  </outline>
</glyph>
<glyph name="guillemetleft" format="2">
  <advance width="923"/>
  <unicode hex="00AB"/>
  <outline>
    <contour>
      <point x="95" y="215" type="line"/>
      <point x="171" y="254"/>
      <point x="235" y="267"/>
      <point x="298" y="299" type="curve" smooth="yes"/>
      <point x="357" y="328"/>
      <point x="415" y="357"/>
      <point x="482" y="389" type="curve"/>
      <point x="422" y="494" type="line"/>
      <point x="370" y="464"/>
      <point x="318" y="435"/>
      <point x="263" y="406" type="curve" smooth="yes"/>
      <point x="211" y="378"/>
      <point x="156" y="350"/>
      <point x="97" y="321" type="curve"/>
    </contour>
    <contour>
      <point x="421" y="34" type="curve"/>
      <point x="480" y="133" type="line"/>
      <point x="425" y="161"/>
      <point x="372" y="190"/>
      <point x="319" y="219" type="curve" smooth="yes"/>
      <point x="248" y="257"/>
      <point x="176" y="278"/>
      <point x="97" y="321" type="curve"/>
      <point x="95" y="215" type="line"/>
      <point x="153" y="184"/>
      <point x="212" y="152"/>
      <point x="269" y="120" type="curve" smooth="yes"/>
      <point x="323" y="91"/>
      <point x="375" y="61"/>
    </contour>
    <contour>
      <point x="442" y="215" type="line"/>
      <point x="518" y="254"/>
      <point x="582" y="267"/>
      <point x="645" y="299" type="curve" smooth="yes"/>
      <point x="704" y="328"/>
      <point x="762" y="357"/>
      <point x="829" y="389" type="curve"/>
      <point x="769" y="494" type="line"/>
      <point x="717" y="464"/>
      <point x="665" y="435"/>
      <point x="610" y="406" type="curve" smooth="yes"/>
      <point x="558" y="378"/>
      <point x="503" y="350"/>
      <point x="444" y="321" type="curve"/>
    </contour>
    <contour>
      <point x="768" y="34" type="curve"/>
      <point x="827" y="133" type="line"/>
      <point x="772" y="161"/>
      <point x="719" y="190"/>
      <point x="666" y="219" type="curve" smooth="yes"/>
      <point x="595" y="257"/>
      <point x="523" y="278"/>
      <point x="444" y="321" type="curve"/>
      <point x="442" y="215" type="line"/>
      <point x="500" y="184"/>
      <point x="559" y="152"/>
      <point x="616" y="120" type="curve" smooth="yes"/>
      <point x="670" y="91"/>
      <point x="722" y="61"/>
    </contour>
  </outline>
</glyph>
<glyph name="registered" format="2">
  <advance width="550"/>
  <unicode hex="00AE"/>
  <outline>
    <contour>
      <point x="256" y="198" type="curve" smooth="yes"/>
      <point x="464" y="198"/>
      <point x="554" y="324"/>
      <point x="554" y="498" type="curve" smooth="yes"/>
      <point x="554" y="625"/>
      <point x="477" y="736"/>
      <point x="287" y="736" type="curve" smooth="yes"/>
      <point x="83" y="736"/>
      <point x="-4" y="614"/>
      <point x="-4" y="452" type="curve" smooth="yes"/>
      <point x="-4" y="311"/>
      <point x="68" y="198"/>
    </contour>
    <contour>
      <point x="272" y="276" type="curve" smooth="yes"/>
      <point x="134" y="276"/>
      <point x="90" y="344"/>
      <point x="90" y="465" type="curve" smooth="yes"/>
      <point x="90" y="521"/>
      <point x="101" y="653"/>
      <point x="271" y="653" type="curve" smooth="yes"/>
      <point x="412" y="653"/>
      <point x="455" y="593"/>
      <point x="455" y="476" type="curve" smooth="yes"/>
      <point x="455" y="365"/>
      <point x="409" y="276"/>
    </contour>
    <contour>
      <point x="321" y="320" type="curve"/>
      <point x="382" y="321" type="line"/>
      <point x="366" y="360"/>
      <point x="348" y="405"/>
      <point x="334" y="443" type="curve"/>
      <point x="360" y="461"/>
      <point x="376" y="487"/>
      <point x="376" y="520" type="curve" smooth="yes"/>
      <point x="376" y="593"/>
      <point x="341" y="617"/>
      <point x="255" y="617" type="curve" smooth="yes"/>
      <point x="239" y="617"/>
      <point x="202" y="617"/>
      <point x="183" y="615" type="curve"/>
      <point x="185" y="581"/>
      <point x="187" y="518"/>
      <point x="187" y="467" type="curve" smooth="yes"/>
      <point x="187" y="416"/>
      <point x="186" y="353"/>
      <point x="185" y="320" type="curve"/>
      <point x="238" y="324" type="line"/>
      <point x="238" y="354"/>
      <point x="237" y="383"/>
      <point x="237" y="413" type="curve"/>
      <point x="256" y="414"/>
      <point x="273" y="417"/>
      <point x="289" y="422" type="curve"/>
      <point x="301" y="387"/>
      <point x="312" y="349"/>
    </contour>
    <contour>
      <point x="237" y="456" type="curve"/>
      <point x="237" y="460"/>
      <point x="237" y="464"/>
      <point x="237" y="468" type="curve" smooth="yes"/>
      <point x="237" y="499"/>
      <point x="236" y="540"/>
      <point x="237" y="573" type="curve"/>
      <point x="246" y="574"/>
      <point x="254" y="574"/>
      <point x="263" y="574" type="curve" smooth="yes"/>
      <point x="315" y="574"/>
      <point x="324" y="555"/>
      <point x="324" y="519" type="curve" smooth="yes"/>
      <point x="324" y="485"/>
      <point x="294" y="456"/>
    </contour>
  </outline>
</glyph>
<glyph name="degree" format="2">
  <advance width="439"/>
  <unicode hex="00B0"/>
  <outline>
    <contour>
      <point x="222" y="494" type="curve"/>
      <point x="309" y="494"/>
      <point x="356" y="547"/>
      <point x="356" y="609" type="curve" smooth="yes"/>
      <point x="356" y="663"/>
      <point x="309" y="710"/>
      <point x="219" y="710" type="curve"/>
      <point x="128" y="710"/>
      <point x="83" y="659"/>
      <point x="83" y="593" type="curve" smooth="yes"/>
      <point x="83" y="549"/>
      <point x="117" y="494"/>
    </contour>
    <contour>
      <point x="222" y="554" type="curve" smooth="yes"/>
      <point x="189" y="554"/>
      <point x="156" y="559"/>
      <point x="156" y="603" type="curve" smooth="yes"/>
      <point x="156" y="623"/>
      <point x="174" y="650"/>
      <point x="219" y="650" type="curve" smooth="yes"/>
      <point x="257" y="650"/>
      <point x="283" y="632"/>
      <point x="283" y="609" type="curve" smooth="yes"/>
      <point x="283" y="581"/>
      <point x="270" y="554"/>
    </contour>
  </outline>
</glyph>
<glyph name="twosuperior" format="2">
  <advance width="352"/>
  <unicode hex="00B2"/>
  <outline>
    <contour>
      <point x="146" y="589" type="line"/>
      <point x="218" y="603"/>
      <point x="305" y="639"/>
      <point x="305" y="719" type="curve" smooth="yes"/>
      <point x="305" y="763"/>
      <point x="274" y="805"/>
      <point x="180" y="805" type="curve" smooth="yes"/>
      <point x="98" y="805"/>
      <point x="56" y="763"/>
      <point x="56" y="706" type="curve" smooth="yes"/>
      <point x="56" y="696"/>
      <point x="57" y="687"/>
      <point x="59" y="677" type="curve"/>
      <point x="153" y="680" type="line"/>
      <point x="150" y="691"/>
      <point x="148" y="701"/>
      <point x="148" y="709" type="curve" smooth="yes"/>
      <point x="148" y="730"/>
      <point x="158" y="743"/>
      <point x="179" y="743" type="curve" smooth="yes"/>
      <point x="202" y="743"/>
      <point x="210" y="731"/>
      <point x="210" y="710" type="curve" smooth="yes"/>
      <point x="210" y="658"/>
      <point x="154" y="635"/>
      <point x="58" y="612" type="curve"/>
    </contour>
    <contour>
      <point x="57" y="556" type="line"/>
      <point x="105" y="556"/>
      <point x="138" y="555"/>
      <point x="180" y="555" type="curve" smooth="yes"/>
      <point x="208" y="555"/>
      <point x="251" y="555"/>
      <point x="309" y="554" type="curve"/>
      <point x="308" y="614" type="line"/>
      <point x="295" y="613"/>
      <point x="233" y="612"/>
      <point x="185" y="612" type="curve" smooth="yes"/>
      <point x="138" y="612"/>
      <point x="74" y="612"/>
      <point x="58" y="612" type="curve"/>
    </contour>
  </outline>
</glyph>
<glyph name="threesuperior" format="2">
  <advance width="352"/>
  <unicode hex="00B3"/>
  <outline>
    <contour>
      <point x="170" y="560" type="curve" smooth="yes"/>
      <point x="245" y="560"/>
      <point x="300" y="577"/>
      <point x="300" y="626" type="curve" smooth="yes"/>
      <point x="300" y="652"/>
      <point x="279" y="666"/>
      <point x="248" y="668" type="curve"/>
      <point x="277" y="679"/>
      <point x="304" y="698"/>
      <point x="304" y="733" type="curve" smooth="yes"/>
      <point x="304" y="776"/>
      <point x="260" y="806"/>
      <point x="180" y="806" type="curve" smooth="yes"/>
      <point x="102" y="806"/>
      <point x="53" y="773"/>
      <point x="53" y="729" type="curve" smooth="yes"/>
      <point x="53" y="723"/>
      <point x="54" y="716"/>
      <point x="56" y="709" type="curve"/>
      <point x="148" y="709" type="line"/>
      <point x="147" y="712"/>
      <point x="146" y="716"/>
      <point x="146" y="719" type="curve" smooth="yes"/>
      <point x="146" y="732"/>
      <point x="155" y="743"/>
      <point x="180" y="743" type="curve" smooth="yes"/>
      <point x="208" y="743"/>
      <point x="215" y="735"/>
      <point x="215" y="717" type="curve" smooth="yes"/>
      <point x="215" y="695"/>
      <point x="199" y="686"/>
      <point x="180" y="686" type="curve" smooth="yes"/>
      <point x="165" y="686"/>
      <point x="129" y="685"/>
      <point x="109" y="685" type="curve"/>
      <point x="109" y="645" type="line"/>
      <point x="129" y="645"/>
      <point x="166" y="645"/>
      <point x="176" y="645" type="curve" smooth="yes"/>
      <point x="199" y="645"/>
      <point x="208" y="642"/>
      <point x="208" y="631" type="curve" smooth="yes"/>
      <point x="208" y="613"/>
      <point x="193" y="607"/>
      <point x="176" y="607" type="curve" smooth="yes"/>
      <point x="157" y="607"/>
      <point x="142" y="610"/>
      <point x="142" y="629" type="curve"/>
      <point x="49" y="629" type="line"/>
      <point x="51" y="584"/>
      <point x="91" y="560"/>
    </contour>
  </outline>
</glyph>
<glyph name="periodcentered" format="2">
  <advance width="332"/>
  <unicode hex="00B7"/>
  <outline>
    <contour>
      <point x="218" y="235" type="line"/>
      <point x="216" y="429" type="line"/>
      <point x="79" y="420" type="line"/>
      <point x="84" y="238" type="line"/>
    </contour>
  </outline>
</glyph>
<glyph name="onesuperior" format="2">
  <advance width="352"/>
  <unicode hex="00B9"/>
  <outline>
    <contour>
      <point x="165" y="567" type="curve"/>
      <point x="270" y="567" type="line"/>
      <point x="267" y="662"/>
      <point x="267" y="717"/>
      <point x="271" y="801" type="curve"/>
      <point x="211" y="801" type="line"/>
      <point x="168" y="736" type="line"/>
      <point x="170" y="671"/>
      <point x="169" y="623"/>
    </contour>
    <contour>
      <point x="66" y="686" type="line"/>
      <point x="122" y="682"/>
      <point x="202" y="690"/>
      <point x="236" y="706" type="curve"/>
      <point x="211" y="801" type="line"/>
      <point x="191" y="773"/>
      <point x="110" y="754"/>
      <point x="60" y="754" type="curve"/>
    </contour>
  </outline>
</glyph>
<glyph name="ordmasculine" format="2">
  <advance width="410"/>
  <unicode hex="00BA"/>
  <outline>
    <contour>
      <point x="203" y="469" type="curve" smooth="yes"/>
      <point x="304" y="469"/>
      <point x="342" y="528"/>
      <point x="342" y="593" type="curve" smooth="yes"/>
      <point x="342" y="655"/>
      <point x="307" y="703"/>
      <point x="208" y="703" type="curve" smooth="yes"/>
      <point x="106" y="703"/>
      <point x="68" y="642"/>
      <point x="68" y="587" type="curve" smooth="yes"/>
      <point x="68" y="525"/>
      <point x="103" y="469"/>
    </contour>
    <contour>
      <point x="203" y="533" type="curve" smooth="yes"/>
      <point x="161" y="533"/>
      <point x="151" y="558"/>
      <point x="151" y="589" type="curve" smooth="yes"/>
      <point x="151" y="616"/>
      <point x="161" y="642"/>
      <point x="207" y="642" type="curve" smooth="yes"/>
      <point x="251" y="642"/>
      <point x="259" y="616"/>
      <point x="259" y="593" type="curve" smooth="yes"/>
      <point x="259" y="555"/>
      <point x="246" y="533"/>
    </contour>
  </outline>
</glyph>
<glyph name="guillemetright" format="2">
  <advance width="923"/>
  <unicode hex="00BB"/>
  <outline>
    <contour>
      <point x="827" y="207" type="curve"/>
      <point x="829" y="313" type="line"/>
      <point x="771" y="344"/>
      <point x="712" y="376"/>
      <point x="655" y="408" type="curve" smooth="yes"/>
      <point x="601" y="437"/>
      <point x="549" y="467"/>
      <point x="503" y="494" type="curve"/>
      <point x="444" y="395" type="line"/>
      <point x="499" y="367"/>
      <point x="552" y="338"/>
      <point x="605" y="309" type="curve" smooth="yes"/>
      <point x="676" y="271"/>
      <point x="748" y="250"/>
    </contour>
    <contour>
      <point x="480" y="207" type="curve"/>
      <point x="482" y="313" type="line"/>
      <point x="424" y="344"/>
      <point x="365" y="376"/>
      <point x="308" y="408" type="curve" smooth="yes"/>
      <point x="254" y="437"/>
      <point x="202" y="467"/>
      <point x="156" y="494" type="curve"/>
      <point x="97" y="395" type="line"/>
      <point x="152" y="367"/>
      <point x="205" y="338"/>
      <point x="258" y="309" type="curve" smooth="yes"/>
      <point x="329" y="271"/>
      <point x="401" y="250"/>
    </contour>
    <contour>
      <point x="502" y="34" type="line"/>
      <point x="554" y="64"/>
      <point x="606" y="93"/>
      <point x="661" y="122" type="curve" smooth="yes"/>
      <point x="713" y="150"/>
      <point x="768" y="178"/>
      <point x="827" y="207" type="curve"/>
      <point x="829" y="313" type="line"/>
      <point x="753" y="274"/>
      <point x="689" y="261"/>
      <point x="626" y="229" type="curve" smooth="yes"/>
      <point x="567" y="200"/>
      <point x="509" y="171"/>
      <point x="442" y="139" type="curve"/>
    </contour>
    <contour>
      <point x="155" y="34" type="line"/>
      <point x="207" y="64"/>
      <point x="259" y="93"/>
      <point x="314" y="122" type="curve" smooth="yes"/>
      <point x="366" y="150"/>
      <point x="421" y="178"/>
      <point x="480" y="207" type="curve"/>
      <point x="482" y="313" type="line"/>
      <point x="406" y="274"/>
      <point x="342" y="261"/>
      <point x="279" y="229" type="curve" smooth="yes"/>
      <point x="220" y="200"/>
      <point x="162" y="171"/>
      <point x="95" y="139" type="curve"/>
    </contour>
  </outline>
</glyph>
<glyph name="onequarter" format="2">
  <advance width="860"/>
  <unicode hex="00BC"/>
  <outline>
    <contour>
      <point x="96" y="7" type="curve"/>
      <point x="251" y="-7" type="line"/>
      <point x="333" y="106"/>
      <point x="416" y="221"/>
      <point x="498" y="332" type="curve" smooth="yes"/>
      <point x="586" y="451"/>
      <point x="680" y="569"/>
      <point x="771" y="688" type="curve"/>
      <point x="616" y="704" type="line"/>
      <point x="532" y="585"/>
      <point x="457" y="466"/>
      <point x="364" y="347" type="curve" smooth="yes"/>
      <point x="274" y="231"/>
      <point x="185" y="120"/>
    </contour>
    <contour>
      <point x="165" y="463" type="curve"/>
      <point x="270" y="463" type="line"/>
      <point x="267" y="558"/>
      <point x="267" y="613"/>
      <point x="271" y="697" type="curve"/>
      <point x="211" y="697" type="line"/>
      <point x="191" y="669"/>
      <point x="110" y="650"/>
      <point x="60" y="650" type="curve"/>
      <point x="66" y="582" type="line"/>
      <point x="97" y="580"/>
      <point x="135" y="581"/>
      <point x="169" y="586" type="curve"/>
      <point x="169" y="542"/>
      <point x="168" y="505"/>
    </contour>
    <contour>
      <point x="660" y="-1" type="line"/>
      <point x="736" y="0" type="line"/>
      <point x="736" y="40" type="line"/>
      <point x="778" y="40" type="line"/>
      <point x="778" y="100" type="line"/>
      <point x="735" y="99" type="line"/>
      <point x="735" y="127" type="line" smooth="yes"/>
      <point x="735" y="169"/>
      <point x="736" y="214"/>
      <point x="736" y="235" type="curve"/>
      <point x="614" y="236" type="line"/>
      <point x="599" y="211"/>
      <point x="584" y="188"/>
      <point x="562" y="157" type="curve" smooth="yes"/>
      <point x="520" y="98" type="line"/>
      <point x="525" y="39" type="line"/>
      <point x="660" y="40" type="line"/>
    </contour>
    <contour>
      <point x="598" y="97" type="line"/>
      <point x="661" y="182" type="line"/>
      <point x="661" y="97" type="line"/>
    </contour>
  </outline>
</glyph>
<glyph name="onehalf" format="2">
  <advance width="860"/>
  <unicode hex="00BD"/>
  <outline>
    <contour>
      <point x="96" y="7" type="curve"/>
      <point x="251" y="-7" type="line"/>
      <point x="333" y="106"/>
      <point x="416" y="221"/>
      <point x="498" y="332" type="curve" smooth="yes"/>
      <point x="586" y="451"/>
      <point x="680" y="569"/>
      <point x="771" y="688" type="curve"/>
      <point x="616" y="704" type="line"/>
      <point x="532" y="585"/>
      <point x="457" y="466"/>
      <point x="364" y="347" type="curve" smooth="yes"/>
      <point x="274" y="231"/>
      <point x="185" y="120"/>
    </contour>
    <contour>
      <point x="527" y="0" type="line"/>
      <point x="575" y="0"/>
      <point x="608" y="-1"/>
      <point x="650" y="-1" type="curve"/>
      <point x="779" y="-2" type="line"/>
      <point x="778" y="58" type="line"/>
      <point x="768" y="57"/>
      <point x="730" y="56"/>
      <point x="691" y="56" type="curve"/>
      <point x="738" y="77"/>
      <point x="775" y="111"/>
      <point x="775" y="163" type="curve" smooth="yes"/>
      <point x="775" y="207"/>
      <point x="744" y="249"/>
      <point x="650" y="249" type="curve" smooth="yes"/>
      <point x="568" y="249"/>
      <point x="526" y="207"/>
      <point x="526" y="150" type="curve" smooth="yes"/>
      <point x="526" y="140"/>
      <point x="527" y="131"/>
      <point x="529" y="121" type="curve"/>
      <point x="623" y="124" type="line"/>
      <point x="620" y="135"/>
      <point x="618" y="145"/>
      <point x="618" y="153" type="curve" smooth="yes"/>
      <point x="618" y="174"/>
      <point x="628" y="187"/>
      <point x="649" y="187" type="curve" smooth="yes"/>
      <point x="672" y="187"/>
      <point x="680" y="175"/>
      <point x="680" y="154" type="curve" smooth="yes"/>
      <point x="680" y="102"/>
      <point x="624" y="79"/>
      <point x="528" y="56" type="curve"/>
    </contour>
    <contour>
      <point x="165" y="463" type="curve"/>
      <point x="270" y="463" type="line"/>
      <point x="267" y="558"/>
      <point x="267" y="613"/>
      <point x="271" y="697" type="curve"/>
      <point x="211" y="697" type="line"/>
      <point x="191" y="669"/>
      <point x="110" y="650"/>
      <point x="60" y="650" type="curve"/>
      <point x="66" y="582" type="line"/>
      <point x="97" y="580"/>
      <point x="135" y="581"/>
      <point x="169" y="586" type="curve"/>
      <point x="169" y="542"/>
      <point x="168" y="505"/>
    </contour>
  </outline>
</glyph>
<glyph name="threequarters" format="2">
  <advance width="860"/>
  <unicode hex="00BE"/>
  <outline>
    <contour>
      <point x="96" y="7" type="curve"/>
      <point x="251" y="-7" type="line"/>
      <point x="333" y="106"/>
      <point x="416" y="221"/>
      <point x="498" y="332" type="curve" smooth="yes"/>
      <point x="586" y="451"/>
      <point x="680" y="569"/>
      <point x="771" y="688" type="curve"/>
      <point x="616" y="704" type="line"/>
      <point x="532" y="585"/>
      <point x="457" y="466"/>
      <point x="364" y="347" type="curve" smooth="yes"/>
      <point x="274" y="231"/>
      <point x="185" y="120"/>
    </contour>
    <contour>
      <point x="180" y="457" type="curve" smooth="yes"/>
      <point x="255" y="457"/>
      <point x="310" y="474"/>
      <point x="310" y="523" type="curve" smooth="yes"/>
      <point x="310" y="549"/>
      <point x="289" y="563"/>
      <point x="258" y="565" type="curve"/>
      <point x="287" y="576"/>
      <point x="314" y="595"/>
      <point x="314" y="630" type="curve" smooth="yes"/>
      <point x="314" y="673"/>
      <point x="270" y="703"/>
      <point x="190" y="703" type="curve" smooth="yes"/>
      <point x="112" y="703"/>
      <point x="63" y="670"/>
      <point x="63" y="626" type="curve" smooth="yes"/>
      <point x="63" y="620"/>
      <point x="64" y="613"/>
      <point x="66" y="606" type="curve"/>
      <point x="158" y="606" type="line"/>
      <point x="157" y="609"/>
      <point x="156" y="613"/>
      <point x="156" y="616" type="curve" smooth="yes"/>
      <point x="156" y="629"/>
      <point x="165" y="640"/>
      <point x="190" y="640" type="curve" smooth="yes"/>
      <point x="218" y="640"/>
      <point x="225" y="632"/>
      <point x="225" y="614" type="curve" smooth="yes"/>
      <point x="225" y="592"/>
      <point x="209" y="583"/>
      <point x="190" y="583" type="curve" smooth="yes"/>
      <point x="175" y="583"/>
      <point x="139" y="582"/>
      <point x="119" y="582" type="curve"/>
      <point x="119" y="542" type="line"/>
      <point x="139" y="542"/>
      <point x="176" y="542"/>
      <point x="186" y="542" type="curve" smooth="yes"/>
      <point x="209" y="542"/>
      <point x="218" y="539"/>
      <point x="218" y="528" type="curve" smooth="yes"/>
      <point x="218" y="510"/>
      <point x="203" y="504"/>
      <point x="186" y="504" type="curve" smooth="yes"/>
      <point x="167" y="504"/>
      <point x="152" y="507"/>
      <point x="152" y="526" type="curve"/>
      <point x="59" y="526" type="line"/>
      <point x="61" y="481"/>
      <point x="101" y="457"/>
    </contour>
    <contour>
      <point x="660" y="-1" type="line"/>
      <point x="736" y="0" type="line"/>
      <point x="736" y="40" type="line"/>
      <point x="778" y="40" type="line"/>
      <point x="778" y="100" type="line"/>
      <point x="735" y="99" type="line"/>
      <point x="735" y="127" type="line" smooth="yes"/>
      <point x="735" y="169"/>
      <point x="736" y="214"/>
      <point x="736" y="235" type="curve"/>
      <point x="614" y="236" type="line"/>
      <point x="599" y="211"/>
      <point x="584" y="188"/>
      <point x="562" y="157" type="curve" smooth="yes"/>
      <point x="520" y="98" type="line"/>
      <point x="525" y="39" type="line"/>
      <point x="660" y="40" type="line"/>
    </contour>
    <contour>
      <point x="598" y="97" type="line"/>
      <point x="661" y="182" type="line"/>
      <point x="661" y="97" type="line"/>
    </contour>
  </outline>
</glyph>
<glyph name="questiondown" format="2">
  <advance width="666"/>
  <unicode hex="00BF"/>
  <outline>
    <contour>
      <point x="260" y="340" type="line"/>
      <point x="268" y="305"/>
      <point x="271" y="283"/>
      <point x="271" y="267" type="curve" smooth="yes"/>
      <point x="271" y="235"/>
      <point x="226" y="214"/>
      <point x="178" y="185" type="curve" smooth="yes"/>
      <point x="123" y="152"/>
      <point x="64" y="107"/>
      <point x="64" y="22" type="curve" smooth="yes"/>
      <point x="64" y="-92"/>
      <point x="155" y="-163"/>
      <point x="326" y="-163" type="curve" smooth="yes"/>
      <point x="519" y="-163"/>
      <point x="604" y="-63"/>
      <point x="604" y="41" type="curve" smooth="yes"/>
      <point x="604" y="66"/>
      <point x="599" y="92"/>
      <point x="589" y="117" type="curve"/>
      <point x="421" y="118" type="line"/>
      <point x="429" y="99"/>
      <point x="434" y="78"/>
      <point x="434" y="56" type="curve" smooth="yes"/>
      <point x="434" y="0"/>
      <point x="400" y="-27"/>
      <point x="332" y="-27" type="curve" smooth="yes"/>
      <point x="280" y="-27"/>
      <point x="231" y="-11"/>
      <point x="231" y="35" type="curve" smooth="yes"/>
      <point x="231" y="72"/>
      <point x="257" y="96"/>
      <point x="289" y="117" type="curve" smooth="yes"/>
      <point x="345" y="154"/>
      <point x="421" y="185"/>
      <point x="421" y="268" type="curve" smooth="yes"/>
      <point x="421" y="287"/>
      <point x="418" y="307"/>
      <point x="411" y="339" type="curve"/>
    </contour>
    <contour>
      <point x="405" y="553" type="line"/>
      <point x="260" y="556" type="line"/>
      <point x="272" y="386" type="line"/>
      <point x="404" y="388" type="line"/>
    </contour>
  </outline>
</glyph>
<glyph name="AE" format="2">
  <advance width="776"/>
  <unicode hex="00C6"/>
  <anchor x="474" y="693" name="top"/>
  <outline>
    <contour>
      <point x="-45" y="7" type="curve"/>
      <point x="141" y="6" type="line"/>
      <point x="155" y="39"/>
      <point x="169" y="73"/>
      <point x="183" y="106" type="curve"/>
      <point x="336" y="110" type="line"/>
      <point x="334" y="-1" type="line"/>
      <point x="748" y="0" type="line"/>
      <point x="747" y="126" type="line"/>
      <point x="516" y="129" type="line"/>
      <point x="516" y="213" type="line"/>
      <point x="743" y="216" type="line"/>
      <point x="745" y="354" type="line"/>
      <point x="515" y="357" type="line"/>
      <point x="515" y="402" type="line" smooth="yes"/>
      <point x="515" y="452"/>
      <point x="516" y="510"/>
      <point x="517" y="560" type="curve"/>
      <point x="736" y="561" type="line"/>
      <point x="736" y="693" type="line"/>
      <point x="246" y="704" type="line"/>
      <point x="208" y="609"/>
      <point x="151" y="472"/>
      <point x="99" y="346" type="curve" smooth="yes"/>
      <point x="44" y="212"/>
      <point x="-11" y="83"/>
    </contour>
    <contour>
      <point x="337" y="244" type="line"/>
      <point x="234" y="245" type="line"/>
      <point x="247" y="278"/>
      <point x="260" y="312"/>
      <point x="273" y="345" type="curve" smooth="yes"/>
      <point x="298" y="408"/>
      <point x="310" y="443"/>
      <point x="335" y="506" type="curve"/>
      <point x="337" y="447"/>
      <point x="339" y="408"/>
      <point x="338" y="342" type="curve" smooth="yes"/>
    </contour>
  </outline>
</glyph>
<glyph name="Eth" format="2">
  <advance width="561"/>
  <unicode hex="00D0"/>
  <outline>
    <contour>
      <point x="-28" y="291" type="line"/>
      <point x="-8" y="292"/>
      <point x="59" y="293"/>
      <point x="166" y="293" type="curve"/>
      <point x="210" y="293"/>
      <point x="276" y="292"/>
      <point x="314" y="291" type="curve"/>
      <point x="312" y="405" type="line"/>
      <point x="281" y="403"/>
      <point x="221" y="401"/>
      <point x="172" y="402" type="curve"/>
      <point x="103" y="403"/>
      <point x="19" y="404"/>
      <point x="-25" y="405" type="curve"/>
    </contour>
    <component base="D"/>
  </outline>
</glyph>
<glyph name="Oslash" format="2">
  <advance width="555"/>
  <unicode hex="00D8"/>
  <anchor x="278" y="0" name="bottom"/>
  <anchor x="278" y="693" name="top"/>
  <outline>
    <contour>
      <point x="271" y="-5" type="curve"/>
      <point x="371" y="-5"/>
      <point x="436" y="36"/>
      <point x="476" y="102" type="curve" smooth="yes"/>
      <point x="515" y="166"/>
      <point x="529" y="256"/>
      <point x="529" y="356" type="curve" smooth="yes"/>
      <point x="529" y="429"/>
      <point x="522" y="494"/>
      <point x="505" y="548" type="curve" smooth="yes"/>
      <point x="474" y="645"/>
      <point x="408" y="706"/>
      <point x="283" y="706" type="curve" smooth="yes"/>
      <point x="164" y="706"/>
      <point x="93" y="647"/>
      <point x="57" y="553" type="curve" smooth="yes"/>
      <point x="36" y="498"/>
      <point x="26" y="431"/>
      <point x="26" y="357" type="curve" smooth="yes"/>
      <point x="26" y="265"/>
      <point x="35" y="183"/>
      <point x="63" y="121" type="curve" smooth="yes"/>
      <point x="98" y="43"/>
      <point x="161" y="-5"/>
    </contour>
    <contour>
      <point x="279" y="141" type="curve"/>
      <point x="247" y="141"/>
      <point x="229" y="162"/>
      <point x="219" y="205" type="curve" smooth="yes"/>
      <point x="211" y="238"/>
      <point x="209" y="286"/>
      <point x="209" y="346" type="curve" smooth="yes"/>
      <point x="209" y="407"/>
      <point x="211" y="456"/>
      <point x="219" y="493" type="curve" smooth="yes"/>
      <point x="228" y="537"/>
      <point x="247" y="561"/>
      <point x="280" y="561" type="curve" smooth="yes"/>
      <point x="312" y="561"/>
      <point x="330" y="536"/>
      <point x="339" y="487" type="curve" smooth="yes"/>
      <point x="345" y="455"/>
      <point x="347" y="412"/>
      <point x="347" y="359" type="curve" smooth="yes"/>
      <point x="347" y="296"/>
      <point x="343" y="240"/>
      <point x="333" y="201" type="curve" smooth="yes"/>
      <point x="323" y="163"/>
      <point x="305" y="141"/>
    </contour>
    <contour>
      <point x="178" y="-72" type="line"/>
      <point x="178" y="-72"/>
      <point x="273" y="195"/>
      <point x="320" y="317" type="curve" smooth="yes"/>
      <point x="367" y="440"/>
      <point x="503" y="738"/>
      <point x="503" y="738" type="curve"/>
      <point x="400" y="772" type="line"/>
      <point x="400" y="772"/>
      <point x="316" y="531"/>
      <point x="245" y="352" type="curve" smooth="yes"/>
      <point x="174" y="173"/>
      <point x="76" y="-41"/>
      <point x="76" y="-41" type="curve"/>
    </contour>
  </outline>
</glyph>
<glyph name="Thorn" format="2">
  <advance width="509"/>
  <unicode hex="00DE"/>
  <outline>
    <contour>
      <point x="140" y="116" type="line"/>
      <point x="357" y="116"/>
      <point x="512" y="161"/>
      <point x="512" y="371" type="curve" smooth="yes"/>
      <point x="512" y="535"/>
      <point x="408" y="588"/>
      <point x="220" y="588" type="curve" smooth="yes"/>
      <point x="175" y="588"/>
      <point x="110" y="586"/>
      <point x="57" y="582" type="curve"/>
      <point x="108" y="440" type="line"/>
      <point x="155" y="446"/>
      <point x="204" y="450"/>
      <point x="242" y="450" type="curve" smooth="yes"/>
      <point x="306" y="450"/>
      <point x="329" y="424"/>
      <point x="329" y="368" type="curve" smooth="yes"/>
      <point x="329" y="256"/>
      <point x="285" y="247"/>
      <point x="140" y="256" type="curve"/>
    </contour>
    <contour>
      <point x="27" y="-5" type="curve"/>
      <point x="214" y="5" type="line"/>
      <point x="213" y="113"/>
      <point x="211" y="283"/>
      <point x="211" y="354" type="curve"/>
      <point x="209" y="430"/>
      <point x="208" y="635"/>
      <point x="213" y="702" type="curve"/>
      <point x="23" y="712" type="line"/>
      <point x="26" y="631"/>
      <point x="31" y="477"/>
      <point x="31" y="352" type="curve"/>
      <point x="31" y="228"/>
      <point x="29" y="75"/>
    </contour>
  </outline>
</glyph>
<glyph name="germandbls" format="2">
  <advance width="577"/>
  <unicode hex="00DF"/>
  <outline>
    <contour>
      <point x="10" y="-2" type="curve"/>
      <point x="194" y="1" type="line"/>
      <point x="190" y="46"/>
      <point x="187" y="123"/>
      <point x="187" y="271" type="curve" smooth="yes"/>
      <point x="187" y="373"/>
      <point x="189" y="435"/>
      <point x="189" y="473" type="curve" smooth="yes"/>
      <point x="189" y="555"/>
      <point x="244" y="576"/>
      <point x="286" y="576" type="curve" smooth="yes"/>
      <point x="342" y="576"/>
      <point x="367" y="558"/>
      <point x="367" y="521" type="curve" smooth="yes"/>
      <point x="367" y="459"/>
      <point x="226" y="428"/>
      <point x="226" y="338" type="curve" smooth="yes"/>
      <point x="226" y="278"/>
      <point x="284" y="245"/>
      <point x="336" y="215" type="curve" smooth="yes"/>
      <point x="377" y="191"/>
      <point x="414" y="169"/>
      <point x="414" y="139" type="curve" smooth="yes"/>
      <point x="414" y="108"/>
      <point x="376" y="75"/>
      <point x="242" y="105" type="curve"/>
      <point x="234" y="-1" type="line"/>
      <point x="485" y="-35"/>
      <point x="585" y="44"/>
      <point x="585" y="151" type="curve" smooth="yes"/>
      <point x="585" y="229"/>
      <point x="513" y="267"/>
      <point x="458" y="296" type="curve" smooth="yes"/>
      <point x="424" y="313"/>
      <point x="396" y="328"/>
      <point x="396" y="346" type="curve" smooth="yes"/>
      <point x="396" y="387"/>
      <point x="536" y="421"/>
      <point x="536" y="541" type="curve" smooth="yes"/>
      <point x="536" y="638"/>
      <point x="451" y="701"/>
      <point x="306" y="701" type="curve" smooth="yes"/>
      <point x="114" y="701"/>
      <point x="27" y="616"/>
      <point x="21" y="468" type="curve" smooth="yes"/>
      <point x="20" y="442"/>
      <point x="19" y="329"/>
      <point x="19" y="270" type="curve" smooth="yes"/>
      <point x="19" y="119"/>
      <point x="14" y="42"/>
    </contour>
  </outline>
</glyph>
<glyph name="ae" format="2">
  <advance width="773"/>
  <unicode hex="00E6"/>
  <anchor x="397" y="555" name="top"/>
  <outline>
    <contour>
      <point x="163" y="-9" type="curve" smooth="yes"/>
      <point x="263" y="-9"/>
      <point x="325" y="32"/>
      <point x="362" y="101" type="curve"/>
      <point x="388" y="25"/>
      <point x="443" y="-12"/>
      <point x="549" y="-12" type="curve" smooth="yes"/>
      <point x="660" y="-12"/>
      <point x="749" y="46"/>
      <point x="749" y="149" type="curve" smooth="yes"/>
      <point x="749" y="160"/>
      <point x="748" y="171"/>
      <point x="746" y="183" type="curve"/>
      <point x="577" y="183" type="line"/>
      <point x="580" y="171"/>
      <point x="582" y="160"/>
      <point x="582" y="152" type="curve" smooth="yes"/>
      <point x="582" y="124"/>
      <point x="565" y="112"/>
      <point x="534" y="112" type="curve" smooth="yes"/>
      <point x="504" y="112"/>
      <point x="488" y="130"/>
      <point x="481" y="162" type="curve" smooth="yes"/>
      <point x="477" y="180"/>
      <point x="474" y="201"/>
      <point x="474" y="227" type="curve"/>
      <point x="565" y="228"/>
      <point x="680" y="230"/>
      <point x="741" y="230" type="curve"/>
      <point x="745" y="263"/>
      <point x="747" y="295"/>
      <point x="747" y="325" type="curve" smooth="yes"/>
      <point x="747" y="471"/>
      <point x="702" y="564"/>
      <point x="560" y="564" type="curve" smooth="yes"/>
      <point x="483" y="564"/>
      <point x="430" y="534"/>
      <point x="396" y="488" type="curve"/>
      <point x="372" y="534"/>
      <point x="324" y="565"/>
      <point x="251" y="565" type="curve" smooth="yes"/>
      <point x="112" y="565"/>
      <point x="39" y="492"/>
      <point x="39" y="399" type="curve" smooth="yes"/>
      <point x="39" y="383"/>
      <point x="42" y="366"/>
      <point x="46" y="349" type="curve"/>
      <point x="209" y="356" type="line"/>
      <point x="205" y="369"/>
      <point x="203" y="382"/>
      <point x="203" y="394" type="curve" smooth="yes"/>
      <point x="203" y="420"/>
      <point x="220" y="439"/>
      <point x="249" y="439" type="curve" smooth="yes"/>
      <point x="279" y="439"/>
      <point x="295" y="422"/>
      <point x="295" y="397" type="curve" smooth="yes"/>
      <point x="295" y="339"/>
      <point x="275" y="333"/>
      <point x="207" y="309" type="curve" smooth="yes"/>
      <point x="112" y="276"/>
      <point x="19" y="244"/>
      <point x="19" y="123" type="curve" smooth="yes"/>
      <point x="19" y="37"/>
      <point x="76" y="-9"/>
    </contour>
    <contour>
      <point x="219" y="105" type="curve" smooth="yes"/>
      <point x="194" y="105"/>
      <point x="182" y="122"/>
      <point x="182" y="146" type="curve" smooth="yes"/>
      <point x="182" y="177"/>
      <point x="203" y="192"/>
      <point x="235" y="207" type="curve" smooth="yes"/>
      <point x="261" y="219"/>
      <point x="281" y="229"/>
      <point x="296" y="241" type="curve"/>
      <point x="296" y="233"/>
      <point x="296" y="224"/>
      <point x="296" y="216" type="curve" smooth="yes"/>
      <point x="296" y="148"/>
      <point x="268" y="105"/>
    </contour>
    <contour>
      <point x="474" y="343" type="line"/>
      <point x="476" y="367"/>
      <point x="479" y="389"/>
      <point x="484" y="406" type="curve" smooth="yes"/>
      <point x="491" y="431"/>
      <point x="506" y="446"/>
      <point x="530" y="446" type="curve" smooth="yes"/>
      <point x="570" y="446"/>
      <point x="579" y="420"/>
      <point x="579" y="373" type="curve" smooth="yes"/>
      <point x="579" y="363"/>
      <point x="578" y="353"/>
      <point x="578" y="343" type="curve"/>
    </contour>
  </outline>
</glyph>
<glyph name="divide" format="2">
  <advance width="638"/>
  <unicode hex="00F7"/>
  <outline>
    <contour>
      <point x="55" y="258" type="line"/>
      <point x="106" y="260"/>
      <point x="249" y="261"/>
      <point x="298" y="261" type="curve" smooth="yes"/>
      <point x="343" y="261"/>
      <point x="499" y="258"/>
      <point x="553" y="258" type="curve"/>
      <point x="547" y="372" type="line"/>
      <point x="513" y="371"/>
      <point x="358" y="368"/>
      <point x="307" y="368" type="curve" smooth="yes"/>
      <point x="254" y="368"/>
      <point x="106" y="371"/>
      <point x="62" y="372" type="curve"/>
    </contour>
    <contour>
      <point x="307" y="33" type="curve" smooth="yes"/>
      <point x="352" y="33"/>
      <point x="383" y="68"/>
      <point x="383" y="110" type="curve" smooth="yes"/>
      <point x="383" y="156"/>
      <point x="344" y="191"/>
      <point x="297" y="191" type="curve" smooth="yes"/>
      <point x="253" y="191"/>
      <point x="221" y="159"/>
      <point x="221" y="117" type="curve" smooth="yes"/>
      <point x="221" y="70"/>
      <point x="260" y="33"/>
    </contour>
    <contour>
      <point x="307" y="438" type="curve" smooth="yes"/>
      <point x="350" y="438"/>
      <point x="383" y="473"/>
      <point x="383" y="515" type="curve" smooth="yes"/>
      <point x="383" y="561"/>
      <point x="344" y="596"/>
      <point x="297" y="596" type="curve" smooth="yes"/>
      <point x="253" y="596"/>
      <point x="221" y="564"/>
      <point x="221" y="521" type="curve" smooth="yes"/>
      <point x="221" y="475"/>
      <point x="260" y="438"/>
    </contour>
  </outline>
</glyph>
<glyph name="Hbar" format="2">
  <advance width="613"/>
  <unicode hex="0126"/>
  <anchor x="306" y="459" name="_center"/>
  <outline>
    <contour>
      <point x="9" y="404" type="line"/>
      <point x="9" y="404"/>
      <point x="123" y="406"/>
      <point x="303" y="406" type="curve"/>
      <point x="363" y="406"/>
      <point x="605" y="404"/>
      <point x="605" y="404" type="curve"/>
      <point x="603" y="510" type="line"/>
      <point x="603" y="510"/>
      <point x="376" y="506"/>
      <point x="309" y="507" type="curve"/>
      <point x="215" y="508"/>
      <point x="12" y="510"/>
      <point x="12" y="510" type="curve"/>
    </contour>
    <component base="H"/>
  </outline>
</glyph>
<glyph name="idotless" format="2">
  <advance width="245"/>
  <unicode hex="0131"/>
  <anchor x="117" y="0" name="bottom"/>
  <anchor x="116" y="555" name="top"/>
  <outline>
    <contour>
      <point x="213" y="0" type="line"/>
      <point x="209" y="91"/>
      <point x="207" y="192"/>
      <point x="207" y="285" type="curve" smooth="yes"/>
      <point x="207" y="404"/>
      <point x="209" y="513"/>
      <point x="211" y="554" type="curve"/>
      <point x="31" y="555" type="line"/>
      <point x="33" y="507"/>
      <point x="39" y="405"/>
      <point x="39" y="286" type="curve" smooth="yes"/>
      <point x="39" y="183"/>
      <point x="36" y="81"/>
      <point x="31" y="2" type="curve"/>
    </contour>
  </outline>
</glyph>
<glyph name="kgreenlandic" format="2">
  <advance width="452"/>
  <unicode hex="0138"/>
  <outline>
    <contour>
      <point x="308" y="0" type="curve"/>
      <point x="518" y="3" type="line"/>
      <point x="444" y="103"/>
      <point x="373" y="209"/>
      <point x="317" y="298" type="curve"/>
      <point x="375" y="394"/>
      <point x="434" y="478"/>
      <point x="489" y="559" type="curve"/>
      <point x="295" y="561" type="line"/>
      <point x="257" y="485"/>
      <point x="211" y="405"/>
      <point x="129" y="288" type="curve"/>
      <point x="192" y="196"/>
      <point x="261" y="88"/>
    </contour>
    <contour>
      <point x="32" y="1" type="curve"/>
      <point x="206" y="1" type="line"/>
      <point x="205" y="52"/>
      <point x="204" y="159"/>
      <point x="204" y="264" type="curve"/>
      <point x="204" y="368"/>
      <point x="204" y="497"/>
      <point x="204" y="565" type="curve"/>
      <point x="37" y="555" type="line"/>
      <point x="37" y="494"/>
      <point x="38" y="373"/>
      <point x="38" y="266" type="curve"/>
      <point x="38" y="159"/>
      <point x="35" y="52"/>
    </contour>
  </outline>
</glyph>
<glyph name="lcaron" format="2">
  <advance width="260"/>
  <unicode hex="013E"/>
  <outline>
    <contour>
      <point x="24" y="0" type="curve"/>
      <point x="198" y="11" type="line"/>
      <point x="197" y="58"/>
      <point x="196" y="160"/>
      <point x="196" y="264" type="curve" smooth="yes"/>
      <point x="196" y="396"/>
      <point x="198" y="547"/>
      <point x="199" y="691" type="curve"/>
      <point x="27" y="692" type="line"/>
      <point x="29" y="599"/>
      <point x="32" y="403"/>
      <point x="32" y="266" type="curve" smooth="yes"/>
      <point x="32" y="117"/>
      <point x="29" y="73"/>
    </contour>
    <contour>
      <point x="271" y="443" type="line"/>
      <point x="324" y="483"/>
      <point x="336" y="529"/>
      <point x="336" y="584" type="curve" smooth="yes"/>
      <point x="336" y="622"/>
      <point x="336" y="660"/>
      <point x="336" y="698" type="curve"/>
      <point x="220" y="691" type="line"/>
      <point x="223" y="579" type="line"/>
      <point x="281" y="577" type="line"/>
      <point x="280" y="545"/>
      <point x="274" y="506"/>
      <point x="232" y="474" type="curve"/>
    </contour>
  </outline>
</glyph>
<glyph name="ldot" format="2">
  <advance width="296"/>
  <unicode hex="0140"/>
  <outline>
    <contour>
      <point x="24" y="0" type="curve"/>
      <point x="198" y="11" type="line"/>
      <point x="198" y="11"/>
      <point x="196" y="121"/>
      <point x="196" y="264" type="curve" smooth="yes"/>
      <point x="196" y="396"/>
      <point x="198" y="547"/>
      <point x="199" y="691" type="curve"/>
      <point x="27" y="692" type="line"/>
      <point x="29" y="599"/>
      <point x="32" y="403"/>
      <point x="32" y="266" type="curve" smooth="yes"/>
      <point x="32" y="117"/>
      <point x="29" y="73"/>
    </contour>
    <contour>
      <point x="308" y="292" type="line"/>
      <point x="307" y="421" type="line"/>
      <point x="217" y="415" type="line"/>
      <point x="222" y="294" type="line"/>
    </contour>
  </outline>
</glyph>
<glyph name="napostrophe" format="2">
  <advance width="532"/>
  <unicode hex="0149"/>
  <outline>
    <contour>
      <point x="76" y="586" type="line"/>
      <point x="106" y="609"/>
      <point x="129" y="677"/>
      <point x="129" y="734" type="curve"/>
      <point x="129" y="775"/>
      <point x="128" y="838"/>
      <point x="127" y="864" type="curve"/>
      <point x="8" y="857" type="line"/>
      <point x="15" y="743" type="line"/>
      <point x="75" y="742" type="line"/>
      <point x="76" y="696"/>
      <point x="62" y="642"/>
      <point x="35" y="610" type="curve"/>
    </contour>
    <component base="n"/>
  </outline>
</glyph>
<glyph name="Eng" format="2">
  <advance width="615"/>
  <unicode hex="014A"/>
  <outline>
    <contour>
      <point x="259" y="-167" type="line"/>
      <point x="410" y="-187"/>
      <point x="554" y="-144"/>
      <point x="558" y="53" type="curve" smooth="yes"/>
      <point x="560" y="152"/>
      <point x="561" y="203"/>
      <point x="561" y="246" type="curve" smooth="yes"/>
      <point x="562" y="375"/>
      <point x="564" y="668"/>
      <point x="566" y="715" type="curve"/>
      <point x="389" y="715" type="line"/>
      <point x="389" y="697"/>
      <point x="391" y="622"/>
      <point x="393" y="545" type="curve" smooth="yes"/>
      <point x="394" y="465"/>
      <point x="396" y="373"/>
      <point x="396" y="346" type="curve"/>
      <point x="373" y="392"/>
      <point x="346" y="448"/>
      <point x="319" y="505" type="curve" smooth="yes"/>
      <point x="285" y="575"/>
      <point x="252" y="647"/>
      <point x="226" y="704" type="curve"/>
      <point x="50" y="704" type="line"/>
      <point x="53" y="611"/>
      <point x="55" y="422"/>
      <point x="55" y="250" type="curve" smooth="yes"/>
      <point x="55" y="156"/>
      <point x="54" y="67"/>
      <point x="53" y="1" type="curve"/>
      <point x="227" y="0" type="line"/>
      <point x="226" y="16"/>
      <point x="226" y="83"/>
      <point x="225" y="154" type="curve" smooth="yes"/>
      <point x="224" y="221"/>
      <point x="224" y="293"/>
      <point x="224" y="330" type="curve"/>
      <point x="241" y="302"/>
      <point x="275" y="240"/>
      <point x="309" y="177" type="curve" smooth="yes"/>
      <point x="345" y="109"/>
      <point x="381" y="40"/>
      <point x="396" y="9" type="curve"/>
      <point x="396" y="-49"/>
      <point x="359" y="-67"/>
      <point x="257" y="-45" type="curve"/>
    </contour>
  </outline>
</glyph>
<glyph name="eng" format="2">
  <advance width="532"/>
  <unicode hex="014B"/>
  <outline>
    <contour>
      <point x="242" y="-167" type="line"/>
      <point x="369" y="-187"/>
      <point x="496" y="-144"/>
      <point x="496" y="53" type="curve" smooth="yes"/>
      <point x="496" y="123"/>
      <point x="495" y="181"/>
      <point x="494" y="258" type="curve"/>
      <point x="494" y="372" type="line" smooth="yes"/>
      <point x="494" y="503"/>
      <point x="426" y="561"/>
      <point x="335" y="561" type="curve" smooth="yes"/>
      <point x="280" y="561"/>
      <point x="238" y="537"/>
      <point x="206" y="494" type="curve"/>
      <point x="206" y="517"/>
      <point x="205" y="539"/>
      <point x="205" y="562" type="curve"/>
      <point x="42" y="555" type="line"/>
      <point x="43" y="505"/>
      <point x="44" y="415"/>
      <point x="44" y="286" type="curve" smooth="yes"/>
      <point x="44" y="159"/>
      <point x="42" y="76"/>
      <point x="38" y="1" type="curve"/>
      <point x="217" y="1" type="line"/>
      <point x="216" y="82"/>
      <point x="213" y="171"/>
      <point x="213" y="286" type="curve" smooth="yes"/>
      <point x="213" y="385"/>
      <point x="237" y="433"/>
      <point x="282" y="433" type="curve" smooth="yes"/>
      <point x="310" y="433"/>
      <point x="325" y="412"/>
      <point x="325" y="367" type="curve" smooth="yes"/>
      <point x="326" y="259" type="line" smooth="yes"/>
      <point x="326" y="177"/>
      <point x="326" y="90"/>
      <point x="326" y="50" type="curve" smooth="yes"/>
      <point x="326" y="-24"/>
      <point x="309" y="-55"/>
      <point x="240" y="-45" type="curve"/>
    </contour>
  </outline>
</glyph>
<glyph name="OE" format="2">
  <advance width="808"/>
  <unicode hex="0152"/>
  <outline>
    <contour>
      <point x="273" y="-5" type="curve" smooth="yes"/>
      <point x="354" y="-5"/>
      <point x="402" y="0"/>
      <point x="451" y="0" type="curve" smooth="yes"/>
      <point x="770" y="0" type="line"/>
      <point x="769" y="126" type="line"/>
      <point x="540" y="130" type="line"/>
      <point x="539" y="212" type="line"/>
      <point x="765" y="216" type="line"/>
      <point x="767" y="354" type="line"/>
      <point x="538" y="357" type="line"/>
      <point x="538" y="400" type="line" smooth="yes"/>
      <point x="538" y="471"/>
      <point x="539" y="482"/>
      <point x="540" y="560" type="curve"/>
      <point x="758" y="561" type="line"/>
      <point x="758" y="693" type="line"/>
      <point x="469" y="693" type="line" smooth="yes"/>
      <point x="412" y="693"/>
      <point x="363" y="706"/>
      <point x="285" y="706" type="curve" smooth="yes"/>
      <point x="103" y="706"/>
      <point x="28" y="565"/>
      <point x="28" y="357" type="curve" smooth="yes"/>
      <point x="28" y="143"/>
      <point x="78" y="-5"/>
    </contour>
    <contour>
      <point x="306" y="141" type="curve" smooth="yes"/>
      <point x="224" y="141"/>
      <point x="211" y="228"/>
      <point x="211" y="346" type="curve" smooth="yes"/>
      <point x="211" y="469"/>
      <point x="221" y="560"/>
      <point x="310" y="560" type="curve" smooth="yes"/>
      <point x="328" y="560"/>
      <point x="337" y="559"/>
      <point x="355" y="556" type="curve"/>
      <point x="358" y="488"/>
      <point x="360" y="436"/>
      <point x="360" y="342" type="curve" smooth="yes"/>
      <point x="360" y="255"/>
      <point x="359" y="211"/>
      <point x="358" y="147" type="curve"/>
      <point x="336" y="144"/>
      <point x="325" y="141"/>
    </contour>
  </outline>
</glyph>
<glyph name="oe" format="2">
  <advance width="816"/>
  <unicode hex="0153"/>
  <outline>
    <contour>
      <point x="263" y="-10" type="curve" smooth="yes"/>
      <point x="358" y="-10"/>
      <point x="421" y="26"/>
      <point x="457" y="88" type="curve" smooth="yes"/>
      <point x="486" y="138"/>
      <point x="498" y="204"/>
      <point x="498" y="284" type="curve" smooth="yes"/>
      <point x="498" y="344"/>
      <point x="491" y="398"/>
      <point x="474" y="441" type="curve" smooth="yes"/>
      <point x="444" y="520"/>
      <point x="383" y="568"/>
      <point x="282" y="568" type="curve" smooth="yes"/>
      <point x="177" y="568"/>
      <point x="108" y="525"/>
      <point x="72" y="447" type="curve" smooth="yes"/>
      <point x="52" y="404"/>
      <point x="42" y="349"/>
      <point x="42" y="285" type="curve" smooth="yes"/>
      <point x="42" y="215"/>
      <point x="51" y="154"/>
      <point x="72" y="106" type="curve" smooth="yes"/>
      <point x="104" y="33"/>
      <point x="163" y="-10"/>
    </contour>
    <contour>
      <point x="271" y="117" type="curve" smooth="yes"/>
      <point x="243" y="117"/>
      <point x="229" y="137"/>
      <point x="221" y="171" type="curve" smooth="yes"/>
      <point x="215" y="199"/>
      <point x="214" y="236"/>
      <point x="214" y="278" type="curve" smooth="yes"/>
      <point x="214" y="322"/>
      <point x="215" y="364"/>
      <point x="223" y="395" type="curve" smooth="yes"/>
      <point x="230" y="426"/>
      <point x="245" y="445"/>
      <point x="271" y="445" type="curve" smooth="yes"/>
      <point x="299" y="445"/>
      <point x="312" y="428"/>
      <point x="319" y="396" type="curve" smooth="yes"/>
      <point x="325" y="368"/>
      <point x="325" y="328"/>
      <point x="326" y="278" type="curve" smooth="yes"/>
      <point x="327" y="234"/>
      <point x="327" y="195"/>
      <point x="321" y="166" type="curve" smooth="yes"/>
      <point x="314" y="136"/>
      <point x="300" y="117"/>
    </contour>
    <contour>
      <point x="562" y="-12" type="curve" smooth="yes"/>
      <point x="686" y="-12"/>
      <point x="782" y="46"/>
      <point x="782" y="149" type="curve" smooth="yes"/>
      <point x="782" y="160"/>
      <point x="781" y="171"/>
      <point x="779" y="183" type="curve"/>
      <point x="610" y="183" type="line"/>
      <point x="613" y="171"/>
      <point x="615" y="160"/>
      <point x="615" y="152" type="curve" smooth="yes"/>
      <point x="615" y="124"/>
      <point x="598" y="112"/>
      <point x="567" y="112" type="curve" smooth="yes"/>
      <point x="537" y="112"/>
      <point x="521" y="130"/>
      <point x="514" y="162" type="curve" smooth="yes"/>
      <point x="506" y="193"/>
      <point x="506" y="236"/>
      <point x="506" y="291" type="curve" smooth="yes"/>
      <point x="506" y="336"/>
      <point x="508" y="378"/>
      <point x="517" y="406" type="curve" smooth="yes"/>
      <point x="525" y="431"/>
      <point x="539" y="446"/>
      <point x="563" y="446" type="curve" smooth="yes"/>
      <point x="603" y="446"/>
      <point x="612" y="420"/>
      <point x="612" y="373" type="curve" smooth="yes"/>
      <point x="612" y="358"/>
      <point x="611" y="342"/>
      <point x="610" y="323" type="curve"/>
      <point x="774" y="230" type="line"/>
      <point x="778" y="263"/>
      <point x="780" y="295"/>
      <point x="780" y="325" type="curve" smooth="yes"/>
      <point x="780" y="471"/>
      <point x="728" y="564"/>
      <point x="573" y="564" type="curve" smooth="yes"/>
      <point x="478" y="564"/>
      <point x="414" y="527"/>
      <point x="376" y="463" type="curve" smooth="yes"/>
      <point x="347" y="415"/>
      <point x="334" y="350"/>
      <point x="334" y="275" type="curve" smooth="yes"/>
      <point x="334" y="196"/>
      <point x="347" y="130"/>
      <point x="376" y="81" type="curve" smooth="yes"/>
      <point x="411" y="22"/>
      <point x="471" y="-12"/>
    </contour>
    <contour>
      <point x="371" y="222" type="line"/>
      <point x="491" y="229"/>
      <point x="774" y="230"/>
      <point x="774" y="230" type="curve"/>
      <point x="745" y="344" type="line"/>
      <point x="367" y="342" type="line"/>
    </contour>
  </outline>
</glyph>
<glyph name="Schwa" format="2">
  <advance width="534"/>
  <unicode hex="018F"/>
  <outline>
    <contour>
      <point x="257" y="-8" type="curve" smooth="yes"/>
      <point x="372" y="-8"/>
      <point x="444" y="49"/>
      <point x="482" y="137" type="curve" smooth="yes"/>
      <point x="506" y="194"/>
      <point x="517" y="262"/>
      <point x="517" y="338" type="curve" smooth="yes"/>
      <point x="517" y="429"/>
      <point x="507" y="509"/>
      <point x="480" y="571" type="curve" smooth="yes"/>
      <point x="444" y="653"/>
      <point x="378" y="703"/>
      <point x="267" y="703" type="curve"/>
      <point x="113" y="703"/>
      <point x="29" y="643"/>
      <point x="29" y="509" type="curve" smooth="yes"/>
      <point x="29" y="499"/>
      <point x="30" y="488"/>
      <point x="31" y="477" type="curve"/>
      <point x="201" y="479" type="line"/>
      <point x="200" y="484"/>
      <point x="200" y="490"/>
      <point x="200" y="495" type="curve" smooth="yes"/>
      <point x="200" y="530"/>
      <point x="221" y="558"/>
      <point x="259" y="558" type="curve" smooth="yes"/>
      <point x="296" y="558"/>
      <point x="315" y="536"/>
      <point x="325" y="492" type="curve" smooth="yes"/>
      <point x="332" y="461"/>
      <point x="334" y="421"/>
      <point x="334" y="370" type="curve" smooth="yes"/>
      <point x="334" y="303"/>
      <point x="331" y="246"/>
      <point x="322" y="203" type="curve" smooth="yes"/>
      <point x="312" y="155"/>
      <point x="293" y="126"/>
      <point x="259" y="126" type="curve" smooth="yes"/>
      <point x="213" y="126"/>
      <point x="198" y="159"/>
      <point x="198" y="226" type="curve" smooth="yes"/>
      <point x="198" y="259"/>
      <point x="201" y="300"/>
      <point x="207" y="350" type="curve"/>
      <point x="32" y="350" type="line"/>
      <point x="26" y="308"/>
      <point x="23" y="269"/>
      <point x="23" y="234" type="curve" smooth="yes"/>
      <point x="23" y="81"/>
      <point x="85" y="-8"/>
    </contour>
    <contour>
      <point x="38" y="233" type="line"/>
      <point x="454" y="235" type="line"/>
      <point x="453" y="357" type="line"/>
      <point x="337" y="352"/>
      <point x="32" y="350"/>
      <point x="32" y="350" type="curve"/>
    </contour>
  </outline>
</glyph>
<glyph name="florin" format="2">
  <advance width="640"/>
  <unicode hex="0192"/>
  <outline>
    <contour>
      <point x="154" y="-163" type="curve" smooth="yes"/>
      <point x="273" y="-163"/>
      <point x="360" y="-117"/>
      <point x="372" y="13" type="curve" smooth="yes"/>
      <point x="384" y="146"/>
      <point x="391" y="235"/>
      <point x="394" y="271" type="curve" smooth="yes"/>
      <point x="402" y="361"/>
      <point x="411" y="485"/>
      <point x="416" y="542" type="curve" smooth="yes"/>
      <point x="421" y="600"/>
      <point x="441" y="622"/>
      <point x="486" y="622" type="curve" smooth="yes"/>
      <point x="515" y="622"/>
      <point x="554" y="613"/>
      <point x="606" y="599" type="curve"/>
      <point x="631" y="699" type="line"/>
      <point x="579" y="714"/>
      <point x="528" y="724"/>
      <point x="482" y="724" type="curve" smooth="yes"/>
      <point x="352" y="724"/>
      <point x="270" y="671"/>
      <point x="263" y="524" type="curve" smooth="yes"/>
      <point x="261" y="489"/>
      <point x="245" y="310"/>
      <point x="242" y="274" type="curve" smooth="yes"/>
      <point x="228" y="127"/>
      <point x="223" y="80"/>
      <point x="218" y="33" type="curve" smooth="yes"/>
      <point x="211" y="-32"/>
      <point x="190" y="-58"/>
      <point x="146" y="-58" type="curve" smooth="yes"/>
      <point x="116" y="-58"/>
      <point x="75" y="-46"/>
      <point x="20" y="-26" type="curve"/>
      <point x="-11" y="-124" type="line"/>
      <point x="51" y="-150"/>
      <point x="100" y="-163"/>
    </contour>
    <contour>
      <point x="142" y="446" type="line"/>
      <point x="190" y="450"/>
      <point x="302" y="450"/>
      <point x="354" y="450" type="curve" smooth="yes"/>
      <point x="367" y="450"/>
      <point x="538" y="450"/>
      <point x="566" y="450" type="curve"/>
      <point x="584" y="552" type="line"/>
      <point x="470" y="549"/>
      <point x="544" y="551"/>
      <point x="361" y="551" type="curve" smooth="yes"/>
      <point x="312" y="551"/>
      <point x="198" y="551"/>
      <point x="156" y="552" type="curve"/>
    </contour>
  </outline>
</glyph>
<glyph name="Nhookleft" format="2">
  <advance width="615"/>
  <unicode hex="019D"/>
  <outline>
    <contour>
      <point x="-80" y="-45" type="curve"/>
      <point x="-78" y="-167" type="line"/>
      <point x="73" y="-187"/>
      <point x="220" y="-144"/>
      <point x="224" y="53" type="curve" smooth="yes"/>
      <point x="225" y="108"/>
      <point x="225" y="150"/>
      <point x="225" y="200" type="curve" smooth="yes"/>
      <point x="224" y="237"/>
      <point x="224" y="277"/>
      <point x="224" y="330" type="curve"/>
      <point x="239" y="303"/>
      <point x="264" y="256"/>
      <point x="290" y="205" type="curve" smooth="yes"/>
      <point x="328" y="132"/>
      <point x="369" y="51"/>
      <point x="390" y="7" type="curve"/>
      <point x="557" y="14" type="line"/>
      <point x="558" y="86"/>
      <point x="560" y="260"/>
      <point x="561" y="419" type="curve" smooth="yes"/>
      <point x="562" y="548"/>
      <point x="564" y="668"/>
      <point x="566" y="715" type="curve"/>
      <point x="389" y="715" type="line"/>
      <point x="389" y="697"/>
      <point x="391" y="622"/>
      <point x="393" y="545" type="curve" smooth="yes"/>
      <point x="394" y="465"/>
      <point x="396" y="383"/>
      <point x="396" y="356" type="curve"/>
      <point x="366" y="413"/>
      <point x="340" y="464"/>
      <point x="315" y="515" type="curve" smooth="yes"/>
      <point x="286" y="574"/>
      <point x="258" y="633"/>
      <point x="226" y="704" type="curve"/>
      <point x="50" y="704" type="line"/>
      <point x="53" y="611"/>
      <point x="55" y="422"/>
      <point x="55" y="250" type="curve" smooth="yes"/>
      <point x="56" y="168"/>
      <point x="56" y="122"/>
      <point x="52" y="67" type="curve" smooth="yes"/>
      <point x="47" y="-14"/>
      <point x="34" y="-58"/>
    </contour>
  </outline>
</glyph>
